<?xml version="1.0" encoding="utf-8"?>
<!-- Generator: Adobe Illustrator 24.0.1, SVG Export Plug-In . SVG Version: 6.00 Build 0)  -->
<svg version="1.1" id="Layer_1" xmlns="http://www.w3.org/2000/svg" xmlns:xlink="http://www.w3.org/1999/xlink" x="0px" y="0px"
	 width="1200px" height="318px" viewBox="0 0 1200 318" enable-background="new 0 0 1200 318" xml:space="preserve">
<g id="Layer_1_1_">
	<g display="none">
		<g display="inline">
			<path fill="none" stroke="#FFCCCC" stroke-width="3" d="M160,92.1h40 M200,92.1c35,0,35,2.7,70,2.7h40"/>
			<path fill="none" stroke="#FFCCCC" stroke-width="3" d="M160,92.1h40 M200,92.1c35,0,35,2.7,70,2.7h40 M310,94.8
				c175,0,175-0.6,350-0.6h40"/>
		</g>
		<g display="inline">
			<path fill="none" stroke="#CCCCCC" d="M160,70h40 M200,70c35,0,35,3.5,70,3.5h40"/>
		</g>
		<g display="inline">
			<path fill="none" stroke="#FFCCCC" stroke-width="1.5" d="M160,123h40 M200,123c35,0,35,11,70,11h40"/>
			<path fill="none" stroke="#FFCCCC" stroke-width="1.5" d="M160,123h40 M200,123c35,0,35,11,70,11h40 M310,134c175,0,175,9,350,9
				h40"/>
		</g>
		<g display="inline">
			<path fill="none" stroke="#FFCCCC" stroke-width="1.5" d="M160,24h40 M200,24c35,0,35-1,70-1h40"/>
			<path fill="none" stroke="#FFCCCC" stroke-width="1.5" d="M160,24h40 M200,24c35,0,35-1,70-1h40 M310,23c175,0,175-11.7,350-11.7
				h40"/>
		</g>
		<g display="inline">
			<path fill="none" stroke="#FFCCCC" stroke-width="1.5" d="M160,171h40 M200,171c35,0,35,10.6,70,10.6h40"/>
			<path fill="none" stroke="#FFCCCC" stroke-width="1.5" d="M160,171h40 M200,171c35,0,35,10.6,70,10.6h40 M310,181.6
				c175,0,175,111.9,350,111.9h40"/>
		</g>
		<g display="inline">
			<path fill="none" stroke="#FFCCCC" stroke-width="1.5" d="M160,79h40 M200,79c35,0,35-1,70-1h40"/>
			<path fill="none" stroke="#FFCCCC" stroke-width="1.5" d="M160,79h40 M200,79c35,0,35-1,70-1h40 M310,78c175,0,175,11,350,11h40"
				/>
		</g>
		<g display="inline">
			<path fill="none" stroke="#CCCCCC" d="M160,81h40 M200,81c35,0,35,0,70,0h40"/>
			<path fill="none" stroke="#CCCCCC" d="M160,81h40 M200,81c35,0,35,0,70,0h40 M310,81c175,0,175,9,350,9h40"/>
		</g>
		<g display="inline">
			<path fill="none" stroke="#CCCCCC" stroke-width="3" d="M160,58.4h40 M200,58.4c35,0,35-7.9,70-7.9h40"/>
			<path fill="none" stroke="#CCCCCC" stroke-width="3" d="M160,58.4h40 M200,58.4c35,0,35-7.9,70-7.9h40 M310,50.5
				C485,50.5,485,61,660,61h40"/>
		</g>
		<g display="inline">
			<path fill="none" stroke="#CCCCCC" stroke-width="1.5" d="M160,161h40 M200,161c35,0,35,2,70,2h40"/>
			<path fill="none" stroke="#CCCCCC" stroke-width="1.5" d="M160,161h40 M200,161c35,0,35,2,70,2h40 M310,163c175,0,175,52,350,52
				h40"/>
		</g>
		<g display="inline">
			<path fill="none" stroke="#CCCCCC" stroke-width="1.5" d="M160,99h40 M200,99c35,0,35,0,70,0h40"/>
			<path fill="none" stroke="#CCCCCC" stroke-width="1.5" d="M160,99h40 M200,99c35,0,35,0,70,0h40 M310,99c175,0,175,4,350,4h40"/>
		</g>
		<g display="inline">
			<path fill="none" stroke="#CCCCCC" stroke-width="3" d="M160,5h40 M200,5c35,0,35,0,70,0h40"/>
			<path fill="none" stroke="#CCCCCC" stroke-width="3" d="M160,5h40 M200,5c35,0,35,0,70,0h40 M310,5c175,0,175,0,350,0h40"/>
		</g>
	</g>
	<g>
		<g transform="translate(144.99999237060547, 5)">
			<g>
				<g>
					<rect x="16.5" y="167.5" fill="#DEEFFC" width="20" height="70.7"/>
					<rect x="16.5" y="157.5" fill="#4DB6AC" width="20" height="10"/>
					<rect x="16.5" y="140.5" fill="#DCEDC8" width="20" height="17"/>
					<rect x="16.5" y="138.8" fill="#4DB6AC" width="20" height="1.7"/>
					<rect x="16.5" y="131.9" fill="#DCEDC8" width="20" height="6.9"/>
					<rect x="16.5" y="130.5" fill="#4DB6AC" width="20" height="1.4"/>
					<rect x="16.5" y="128.5" fill="#64B0AD" width="20" height="2"/>
					<rect x="16.5" y="128" fill="#4DB6AC" width="20" height="0.5"/>
					<rect x="16.5" y="127.5" fill="#DCEDC8" width="20" height="0.5"/>
					<rect x="16.5" y="115.5" fill="#4DB6AC" width="20" height="12"/>
					<rect x="16.5" y="110.5" fill="#64B0AD" width="20" height="5"/>
					<rect x="16.5" y="105" fill="#4DB6AC" width="20" height="5.5"/>
					<rect x="16.5" y="103.3" fill="#64B0AD" width="20" height="1.7"/>
					<rect x="16.5" y="95.5" fill="#4DB6AC" width="20" height="7.8"/>
					<rect x="16.5" y="75.5" fill="#BBDEFB" width="20" height="20"/>
					<rect x="16.5" y="53.5" fill="#4DB6AC" width="20" height="22"/>
					<rect x="16.5" y="22.5" fill="#BBDEFB" width="20" height="31"/>
					<rect x="16.5" y="20.5" fill="#4DB6AC" width="20" height="2"/>
					<rect x="16.5" y="16.9" fill="#BBDEFB" width="20" height="3.6"/>
					<rect x="16.5" y="10" fill="#7986CB" width="20" height="6.9"/>
					<rect x="16.5" y="1.5" fill="#C22762" width="20" height="8.5"/>
					<rect x="16.5" y="1" fill="#DCEDC8" width="20" height="0.5"/>
				</g>
			</g>
		</g>
		<g transform="translate(258.33805084228516, 5)">
			<g>
				<g>
					<rect x="16.5" y="186.2" fill="#DEEFFC" width="20" height="39.7"/>
					<rect x="16.5" y="167.9" fill="#4DB6AC" width="20" height="18.3"/>
					<rect x="16.5" y="149.9" fill="#DCEDC8" width="20" height="18"/>
					<rect x="16.5" y="131.4" fill="#64B0AD" width="20" height="18.5"/>
					<rect x="16.5" y="125.4" fill="#DCEDC8" width="20" height="6"/>
					<rect x="16.5" y="123.9" fill="#4DB6AC" width="20" height="1.5"/>
					<rect x="16.5" y="122.4" fill="#DCEDC8" width="20" height="1.5"/>
					<rect x="16.5" y="119.3" fill="#4DB6AC" width="20" height="3.1"/>
					<rect x="16.5" y="112.3" fill="#DCEDC8" width="20" height="7.1"/>
					<rect x="16.5" y="103.9" fill="#4DB6AC" width="20" height="8.3"/>
					<rect x="16.5" y="82.9" fill="#BBDEFB" width="20" height="21"/>
					<rect x="16.5" y="55.4" fill="#64B0AD" width="20" height="27.5"/>
					<rect x="16.5" y="49.4" fill="#DCEDC8" width="20" height="6"/>
					<rect x="16.5" y="17.9" fill="#BBDEFB" width="20" height="31.5"/>
					<rect x="16.5" y="1.5" fill="#C22762" width="20" height="16.5"/>
					<rect x="16.5" y="-5.5" fill="#DCEDC8" width="20" height="7"/>
				</g>
			</g>
		</g>
		<g transform="translate(664.9999465942383, 5)">
			<g>
				<g>
					<rect x="16.5" y="288" fill="#BBDEFB" width="20" height="19.5"/>
					<rect x="16.5" y="280.1" fill="#4DB6AC" width="20" height="7.9"/>
					<rect x="16.5" y="256.5" fill="#BBDEFB" width="20" height="23.6"/>
					<rect x="16.5" y="239.5" fill="#4DB6AC" width="20" height="17"/>
					<rect x="16.5" y="220.5" fill="#BBDEFB" width="20" height="19"/>
					<rect x="16.5" y="209.5" fill="#4DB6AC" width="20" height="11"/>
					<rect x="16.5" y="197.5" fill="#BBDEFB" width="20" height="12"/>
					<rect x="16.5" y="188.5" fill="#DCEDC8" width="20" height="9"/>
					<rect x="16.5" y="182.5" fill="#BBDEFB" width="20" height="6"/>
					<rect x="16.5" y="152.5" fill="#DCEDC8" width="20" height="30"/>
					<rect x="16.5" y="143.5" fill="#4DB6AC" width="20" height="9"/>
					<rect x="16.5" y="124.3" fill="#64B0AD" width="20" height="19.2"/>
					<rect x="16.5" y="114" fill="#4DB6AC" width="20" height="10.3"/>
					<rect x="16.5" y="93.5" fill="#DCEDC8" width="20" height="20.5"/>
					<rect x="16.5" y="86.5" fill="#BBDEFB" width="20" height="7"/>
					<rect x="16.5" y="85.5" fill="#DCEDC8" width="20" height="1"/>
					<rect x="16.5" y="70.5" fill="#4DB6AC" width="20" height="15"/>
					<rect x="16.5" y="68" fill="#DCEDC8" width="20" height="2.5"/>
					<rect x="16.5" y="34.5" fill="#BBDEFB" width="20" height="33.5"/>
					<rect x="16.5" y="30.1" fill="#DEEFFC" width="20" height="4.4"/>
					<rect x="16.5" y="20.8" fill="#7986CB" width="20" height="9.3"/>
					<rect x="16.5" y="17.4" fill="#DEEFFC" width="20" height="3.4"/>
					<rect x="16.5" y="15.2" fill="#7986CB" width="20" height="2.2"/>
					<rect x="16.5" y="13.6" fill="#DEEFFC" width="20" height="1.6"/>
					<rect x="16.5" y="1.5" fill="#7986CB" width="20" height="12.1"/>
					<rect x="16.5" y="-32.4" fill="#DCEDC8" width="20" height="33.9"/>
				</g>
			</g>
		</g>
	</g>
</g>
<g id="Lines">
	<path fill="none" stroke="#CCCCCC" stroke-width="0.5" d="M251.5,15.4c11.1-1.1,117.2-0.9,117.2-0.9"/>
	<path fill="none" stroke="#CCCCCC" d="M4.2,120.8l167.3,3c27.9,0.4,68.1,10.8,113.3,12.4c0,0,200.2,6.8,375.2,6.8l578.1,21"/>
	<path fill="none" stroke="#B90000" d="M4.2,170c0,0,128,0.2,167.3,2.5c62.5,3.6,81.2,12.4,123.3,18.7
		C463.8,216.5,593,285.8,691.5,293c109.4,12.4,530.5,50.3,530.5,50.3"/>
	<path fill="none" stroke="#CCCCCC" stroke-width="0.75" d="M1143,276.8c0,0-403.2-13.4-468.1-14.8c-64.8-1.4-136.4-17-136.4-17"/>
	<path fill="none" stroke="#CCCCCC" stroke-width="1.5" d="M1003.2,255.6l-15.5,5.2"/>
	<path fill="none" stroke="#CCCCCC" stroke-width="1.5" d="M559.9,185H419.1l67.2,5.5l-95.4-3c1.3,0.1,27.4,4.1,27.4,4.1
		c57.3,9.3,165.1,22.5,241.8,23.4h40l178.4,6.7l341.5,11.3"/>
	<path fill="none" stroke="#CCCCCC" d="M445.6,99c56.8-0.6,74.2-0.5,249.2-0.5c0,0,157.2-1,231.8,0.9L909,97l96.1-1"/>
	<path fill="none" stroke="#B90000" stroke-width="2" d="M4.2,18.4c0,0,44.5-1.9,57.2,1.4c22.3,5.7,55.8,7,80.3,7.7
		C156.2,27.9,200,27,200,27c35,0,44.3-11.6,51.5-11.6c14,0,16.1,7.7,33.3,7.7c11.1,0,21.5-5.2,29.1-5.2c8.2,0,13.1,5.1,26.5,5.1
		c9.1,0,20.7-8.5,28.3-8.5c147.9-0.3,124.8-3.2,291.3-3.2L1213.2,23"/>
	<path fill="none" stroke="#B90000" d="M4.2,78c0,0,126.6,0.7,168.8,2.5c24.1,1,69.9,6.6,96,7.4c12.8,0.4,32.2-1,42.6-0.8
		C482.5,89,503.8,89.4,660,90c0,0,187.3,0.3,290.9,5c36.3,1.6,200.4,4.4,218.4,4.4"/>
	<path fill="none" stroke="#CCCCCC" d="M57.8,61l97.2-2.6l32.3-0.3l46.7-2.4l76-1.3c175,0,175.8,1.5,350.8,1.5l346.7,1.1l-28.2-2.2
		l103.7-3.2l-419.5-5.3l326.8-1.2"/>
	<path fill="none" stroke="#CCCCCC" d="M364.6,111.5l77.7-2.8l-90.5-4l206.6-2.1L445.6,99"/>
	<polyline fill="none" stroke="#CCCCCC" stroke-width="3" points="6.7,5 155,5 200,5 	"/>
	<path fill="none" stroke="#CCCCCC" stroke-width="3" d="M200,5c35,0,35,0,70,0h40"/>
	<path fill="none" stroke="#CCCCCC" stroke-width="3" d="M310,5c175,0,190,0,365,0l538.2,12.1"/>
	<path fill="none" d="M10.7,286.3L8.2-9.4L1204-1.6V318H169C146.9,309.8,11.1,303.2,10.7,286.3z"/>
	<path fill="none" stroke="#CCCCCC" d="M4.2,245h134.2c140.6,0,162.3,5.8,270.2,28.3s233.2,58,240.3,58"/>
	<path fill="none" stroke="#CCCCCC" stroke-width="0.75" d="M949.8,210.9l-107.4,3l123.9,5.2l-243.4-2"/>
	<path fill="none" stroke="#CCCCCC" d="M964.2,212.1c-53.8-1.5-214.4-9.1-289.2-9.2c-8.6,0-108-3.2-143.2-8.9l21-0.5l-38-4.7
		c0,0,111.9,4.1,160.1,5.2s231.2,9,231.2,9l-70.4-6.3l145-2.7c0,0-214.2-6-305.8-6s-275.7-9.8-306.3-10.3
		c-20.1-0.3-67.6-3.6-82.7-4.7c-32.4-2.3-63.8-11.2-114.5-11.2c-38.1,0-167.3-0.8-167.3-0.8"/>
	<path fill="none" stroke="#CCCCCC" d="M803.9,250.7l9.3-1.3l197.9,2l-41-5.4l119.8-3.4l-275.1-6.4l32.8-2.5L711,232.1l33-3.2
		c0,0-58.9-0.3-99.1-1.9c-40.2-1.6-62.8-5.9-62.8-5.9"/>
	<path fill="none" stroke="#CCCCCC" d="M1238.1,265.6l-378.3-13.9c0,0-88.1-1.8-193.4-7.5c-16.9-1.4-93-9.2-93-9.2h60.4
		c-42.8-4.2-124.2-13.6-179.1-25.9c95.8,11.1,154.2,16.4,220.3,17c135.6,1,459.5,11.6,459.5,11.6"/>
	<path fill="none" stroke="#CCCCCC" d="M1213.2,124.5c-0.6-0.1-479.4-3.4-521.7-4.5c-37-1-124.4-3.8-162.1-5.8
		c-37.4-2-244.5-5.3-244.5-5.3c-31.3-1.4-85.7-7.9-114.3-9.6C129,96.8,4.2,95.6,4.2,95.6"/>
	<path fill="none" stroke="#CCCCCC" stroke-width="1.5" d="M859.8,303"/>
	<path fill="none" stroke="#CCCCCC" d="M4.2,152.5H73l-32-2.7l89.6-1.4L68.8,146c0,0,45.5-0.3,82.1-0.3c34.9,0,83.1,8.3,83.1,8.3
		c3.7,0.2-38.7-8.6-62.5-9.8c-45-2.2-148.9-1.3-148.9-1.3l0,0"/>
	<path fill="none" stroke="#CCCCCC" d="M1208.3,76c0,0-499.7-1-533.3-1c-54.8,0-297.5-1.5-365-1.5h-40L234,73c15.1-1,36-1.4,36-1.4
		l52.9,0.4c75.1-2.5,318.8,0.5,369.1,0.5c36.7,0,172.8-4.6,172.8-4.6l-25.9-1.7"/>
	<path fill="none" stroke="#CCCCCC" d="M714.1,159.7l19.6-1.6c0,0,180.6,6.3,171,5.5c-10-0.8-59.3-5.2-126.8-6.9l242.8,6.4
		l-126.9-7.5l291.5,9.3l-7.6-4.7"/>
	<polyline fill="none" stroke="#CCCCCC" points="481,72 617.8,67.2 501.1,64.1 653.3,57.9 	"/>
	<path fill="none" stroke="#CCCCCC" stroke-width="0.5" d="M6.2,7.5c0,0,56.5,0.2,76,0.8c18.2,0.6,47.1,6.4,77,6.4
		c47.3,0,51.1-2.7,125.8-2.7c53.4,0,200.4-0.7,258.1-0.9l-64.8,3.2"/>
	<path fill="none" stroke="#CCCCCC" stroke-width="0.75" d="M106.7,9.7L13,11.3l108.4,4.4l-25.8,1.4c0,0,35.1,3.7,51.7,4.3
		c13.6,0.5,50.2-0.5,70.8-1.1l-11.9-3.1l62.8-5.8"/>
	<polyline fill="none" stroke="#CCCCCC" stroke-width="0.75" points="356.7,12.4 459.1,9.3 424.9,8.1 505.4,3.7 	"/>
	<polyline fill="none" stroke="#CCCCCC" points="974.7,45.2 1194,44.8 1018.5,38.5 1215.6,39.5 	"/>
	<polyline fill="none" stroke="#CCCCCC" points="593.2,11.1 624.8,15.7 748.7,17.9 603.7,19.8 548,20.9 820.2,23.2 716.8,25.5 
		574.5,28.9 612.9,31.3 514.9,33.3 951.1,37.8 1018.5,38.5 	"/>
	<path fill="none" stroke="#CCCCCC" stroke-width="0.75" d="M404.7,94.8"/>
	<path fill="none" d="M520.6,245c10.4-0.2,35.8,0,35.8,0"/>
	<path fill="none" d="M568.3,220.1C578.7,219.9,600,209,600,209"/>
	<polyline fill="none" stroke="#CCCCCC" points="1213.2,81 1099.5,80 1020.8,80.6 1193,86.7 915.4,82.8 1065.1,91.1 833.7,87.5 
		1164.4,100.1 	"/>
	<path fill="none" stroke="#CCCCCC" d="M21.7,143l75.3-4.3H15.4c0,0,34.4-2.2,45.8-2.5c24-0.7,95.9-0.3,95.9-0.3
		c72.4,0,85.9,16.9,130.2,19c3.2,0.2,301.1,1.7,387.7,3.3s546.6,19.5,546.6,19.5"/>
	<path fill="none" stroke="#CCCCCC" d="M230.7,145.5"/>
	<path fill="none" stroke="#CCCCCC" stroke-width="0.5" d="M112.2,152.5"/>
	<path fill="none" stroke="#CCCCCC" stroke-width="0.5" d="M19.9,164"/>
	<path fill="none" stroke="#CCCCCC" stroke-width="0.5" d="M2.9,15.7c0,0,40.4,0,53.9,0.7c9.4,0.5,32.4,3.4,32.4,3.4l-10.8,1.7
		l67.8,4c0,0,44.1-0.4,58.8-0.4c31.1,0,34.1-11.3,51.8-11.3c22.6,0,133.9-2.1,133.9-2.1"/>
	<path fill="none" stroke="#CCCCCC" stroke-width="0.75" d="M215.7,18.6"/>
	<path fill="none" stroke="#FFCCCC" stroke-width="1.5" d="M314,14.7"/>
	<path fill="none" stroke="#CCCCCC" d="M4.2,60.4h121.9h168.7h126.8c0,0,223.4-2.7,292-2s191.6,4.7,191.6,4.7l-66.3,3.1"/>
	<path fill="none" stroke="#CCCCCC" stroke-width="1.5" d="M654.5,243.2"/>
	<polyline fill="none" stroke="#CCCCCC" points="379.8,268.7 502.5,285.1 447,268.7 610.8,293 497.7,262.7 660.1,288.1 	"/>
	<polyline fill="none" stroke="#CCCCCC" points="1125.1,237.9 1084.5,233 1180.9,231.4 	"/>
	<polyline fill="none" stroke="#CCCCCC" points="866.1,230.4 833.7,225.5 936.3,223.3 	"/>
	<path fill="none" stroke="#CCCCCC" stroke-width="0.75" d="M846.4,259.2c0,0-116.4-0.2-127.4,0.8c-4.7,0.4,75.9,5.8,88,6.6"/>
	<path fill="none" stroke="#CCCCCC" stroke-width="0.75" d="M1041.5,333l77-8.5l-172.1-15.3c-91.2-6.7-219-18.6-252.9-23.6
		c-4.1-0.6-64.3-9.7-106.7-23.9c40,5.4,90.8,9.7,83.4,9c-53.8-5.2-122.2-23.8-122.2-23.8"/>
	<path fill="none" stroke="#CCCCCC" stroke-width="0.75" d="M747.4,293l72,1.7l-35-6.5l194.5,12.2l-102.2-12.2l223.5,10l-103.9-11.3
		l185.6,1.5c0,0-422.1-17.6-520.2-27.4"/>
	<path fill="none" stroke="#CCCCCC" d="M891.1,165.3"/>
	<path fill="none" stroke="#CCCCCC" d="M856,138.9l-164.5-4.4c-27.6,0-104.8-5.1-406.7-12.6c-22.8-0.6-50.7-4.3-59.8-7.6
		c0,0,40.6,3.1,59.8,3.1c17.5,0,399.7,12.2,406.7,12.3c41.2,0.6,124.8,1.4,124.8,1.4l152,1.9l-83.2-6.4c141.8-1.6,291,1.4,291,1.4
		l-33.1-4.5"/>
	<path fill="none" stroke="#CCCCCC" d="M124.3,124.3l-24.3-3.5c0,0,49.4,0,71.6,0s84.3,9.6,115.6,9.6c31.2,0,372.6,6.7,406.6,7.9
		c27.6,1,171.8,3,171.8,3l-11.8-2.5"/>
	<line fill="none" stroke="#CCCCCC" x1="800.1" y1="175.6" x2="797.1" y2="175.6"/>
	<line fill="none" stroke="#CCCCCC" stroke-width="1.5" x1="849.8" y1="309.8" x2="965.5" y2="309.8"/>
	<path fill="none" stroke="#CCCCCC" stroke-width="0.75" d="M1146.9,262l22.4,3.6l-85.4-2.9L753.8,253
		c-55.7-0.6-121.3-2.5-147.7-6.1c64.7,10.8,238.5,13,238.5,13l352.1,12.5l-81.4,3.8"/>
</g>
<g id="Facies">
	<text transform="matrix(1 0 0 1 333.3944 190.4903)" font-family="'ArialMT'" font-size="12px">cc</text>
	<text transform="matrix(1 0 0 1 294.8379 285.0901)" font-family="'ArialMT'" font-size="12px">none</text>
	<text transform="matrix(1 0 0 1 1105.2056 207.1543)" font-family="'ArialMT'" font-size="12px">fc</text>
	<text transform="matrix(1 0 0 1 751.3169 282.6447)" font-family="'ArialMT'" font-size="12px">sub</text>
	<text transform="matrix(1 0 0 1 639.9999 213.0804)" font-family="'ArialMT'" font-size="12px">sub</text>
	<text transform="matrix(1 0 0 1 421.6659 243.19)" font-family="'ArialMT'" font-size="12px">p</text>
	<text transform="matrix(1 0 0 1 606.0997 190.49)" font-family="'ArialMT'" font-size="4px">sub</text>
	<text transform="matrix(1 0 0 1 768.9454 182.08)" font-family="'ArialMT'" font-size="12px">fc</text>
	<text transform="matrix(1 0 0 1 770.5541 114.0005)" font-family="'ArialMT'" font-size="12px">fc</text>
	<text transform="matrix(1 0 0 1 641.702 52.609)" font-family="'ArialMT'" font-size="12px">sub</text>
	<text transform="matrix(1 0 0 1 185.6679 109.9904)" font-family="'ArialMT'" font-size="12px">cc</text>
	<text transform="matrix(1 0 0 1 324.6821 144)" font-family="'ArialMT'" font-size="8px">cc</text>
	<text transform="matrix(1 0 0 1 648.8998 67.95)" font-family="'ArialMT'" font-size="9px">sub</text>
	<text transform="matrix(1 0 0 1 462.487 65.9497)" font-family="'ArialMT'" font-size="8px">cc</text>
	<text transform="matrix(1 0 0 1 198.0004 24.6904)" font-family="'ArialMT'" font-size="5px">sub</text>
	<text transform="matrix(1 0 0 1 888.787 27.5993)" font-family="'ArialMT'" font-size="7px">sh</text>
	<text transform="matrix(1 0 0 1 784.4243 12.425)" font-family="'ArialMT'" font-size="5px">sh</text>
	<text transform="matrix(1 0 0 1 189.9183 18.6)" font-family="'ArialMT'" font-size="4px">sh</text>
	<text transform="matrix(1 0 0 1 915.4325 9.7444)" font-family="'ArialMT'" font-size="12px">none</text>
	<text transform="matrix(1 0 0 1 1153.8755 172.3625)" font-family="'ArialMT'" font-size="12px">fc</text>
	<text transform="matrix(1 0 0 1 713.5973 84.6016)" font-family="'ArialMT'" font-size="12px">cc</text>
	<text transform="matrix(1 0 0 1 190.2012 141.3828)" font-family="'ArialMT'" font-size="5.2826px">fc</text>
	<text transform="matrix(1 0 0 1 577.5596 246.9353)" font-family="'ArialMT'" font-size="12px">cc</text>
	<text transform="matrix(1 0 0 1 599.9998 219.9999)" font-family="'ArialMT'" font-size="8px">cc</text>
	<text transform="matrix(1 0 0 1 572.1335 261.7343)" font-family="'ArialMT'" font-size="3px">cc</text>
	<text transform="matrix(1 0 0 1 936.3196 249.8686)" font-family="'ArialMT'" font-size="12px">sub</text>
	<text transform="matrix(1 0 0 1 1184.0269 140.1996)" font-family="'ArialMT'" font-size="12px">fc</text>
	<text transform="matrix(1 0 0 1 292.583 96.0084)" font-family="'ArialMT'" font-size="9px">sub</text>
	<text transform="matrix(1 0 0 1 1180.9316 99.3505)" font-family="'ArialMT'" font-size="6px">fc</text>
	<text transform="matrix(1 0 0 1 1187.6697 85.7373)" font-family="'ArialMT'" font-size="6px">fc</text>
	<text transform="matrix(1 0 0 1 198.0002 160.2001)" font-family="'ArialMT'" font-size="5.2826px">fc</text>
	<text transform="matrix(1 0 0 1 45.9091 134.6997)" font-family="'ArialMT'" font-size="5.2826px">cc</text>
	<text transform="matrix(1 0 0 1 68.7851 20.5324)" font-family="'ArialMT'" font-size="4px">cc</text>
	<text transform="matrix(1 0 0 1 274.838 19.8001)" font-family="'ArialMT'" font-size="6px">rework</text>
	<text transform="matrix(1 0 0 1 303.0954 10.95)" font-family="'ArialMT'" font-size="6px">rework</text>
	<text transform="matrix(1 0 0 1 1014.2089 71.9999)" font-family="'ArialMT'" font-size="12px">fc</text>
	<text transform="matrix(1 0 0 1 1015.9915 259.8823)" font-family="'ArialMT'" font-size="3px">sub</text>
	<text transform="matrix(1 0 0 1 899.7867 265.6003)" font-family="'ArialMT'" font-size="3px">sub</text>
	<text transform="matrix(1 0 0 1 726.8226 309.84)" font-family="'ArialMT'" font-size="12px">sub</text>
	<text transform="matrix(1 0 0 1 943.8043 230.365)" font-family="'ArialMT'" font-size="7px">sub</text>
	<text transform="matrix(1 0 0 1 938.6351 314.5634)" font-family="'ArialMT'" font-size="3px">sub</text>
	<text transform="matrix(1 0 0 1 1131.5972 309.8398)" font-family="'ArialMT'" font-size="12px">fc</text>
	<text transform="matrix(1 0 0 1 1131.5968 249.8686)" font-family="'ArialMT'" font-size="12px">fc</text>
	<text transform="matrix(1 0 0 1 651.3127 237.8563)" font-family="'ArialMT'" font-size="12px">sub</text>
	<text transform="matrix(1 0 0 1 661.7891 278.6866)" font-family="'ArialMT'" font-size="10px">sub</text>
</g>
</svg>
