<?xml version="1.0" encoding="utf-8"?>
<!-- Generator: Adobe Illustrator 24.0.0, SVG Export Plug-In . SVG Version: 6.00 Build 0)  -->
<svg version="1.1" id="Layer_1" xmlns="http://www.w3.org/2000/svg" xmlns:xlink="http://www.w3.org/1999/xlink" x="0px" y="0px"
	 width="1200px" height="318px" viewBox="0 0 1200 318" enable-background="new 0 0 1200 318" xml:space="preserve">
<g id="Layer_1_1_">
	<g display="none">
		<g display="inline">
			<path fill="none" stroke="#FFCCCC" stroke-width="3" d="M160,92.1h40 M200,92.1c35,0,35,2.7,70,2.7h40"/>
			<path fill="none" stroke="#FFCCCC" stroke-width="3" d="M160,92.1h40 M200,92.1c35,0,35,2.7,70,2.7h40 M310,94.8
				c175,0,175-0.6,350-0.6h40"/>
		</g>
		<g display="inline">
			<path fill="none" stroke="#CCCCCC" d="M160,70h40 M200,70c35,0,35,3.5,70,3.5h40"/>
		</g>
		<g display="inline">
			<path fill="none" stroke="#FFCCCC" stroke-width="1.5" d="M160,123h40 M200,123c35,0,35,11,70,11h40"/>
			<path fill="none" stroke="#FFCCCC" stroke-width="1.5" d="M160,123h40 M200,123c35,0,35,11,70,11h40 M310,134c175,0,175,9,350,9
				h40"/>
		</g>
		<g display="inline">
			<path fill="none" stroke="#FFCCCC" stroke-width="1.5" d="M160,24h40 M200,24c35,0,35-1,70-1h40"/>
			<path fill="none" stroke="#FFCCCC" stroke-width="1.5" d="M160,24h40 M200,24c35,0,35-1,70-1h40 M310,23c175,0,175-11.7,350-11.7
				h40"/>
		</g>
		<g display="inline">
			<path fill="none" stroke="#FFCCCC" stroke-width="1.5" d="M160,171h40 M200,171c35,0,35,10.6,70,10.6h40"/>
			<path fill="none" stroke="#FFCCCC" stroke-width="1.5" d="M160,171h40 M200,171c35,0,35,10.6,70,10.6h40 M310,181.6
				c175,0,175,111.9,350,111.9h40"/>
		</g>
		<g display="inline">
			<path fill="none" stroke="#FFCCCC" stroke-width="1.5" d="M160,79h40 M200,79c35,0,35-1,70-1h40"/>
			<path fill="none" stroke="#FFCCCC" stroke-width="1.5" d="M160,79h40 M200,79c35,0,35-1,70-1h40 M310,78c175,0,175,11,350,11h40"
				/>
		</g>
		<g display="inline">
			<path fill="none" stroke="#CCCCCC" d="M160,81h40 M200,81c35,0,35,0,70,0h40"/>
			<path fill="none" stroke="#CCCCCC" d="M160,81h40 M200,81c35,0,35,0,70,0h40 M310,81c175,0,175,9,350,9h40"/>
		</g>
		<g display="inline">
			<path fill="none" stroke="#CCCCCC" stroke-width="3" d="M160,58.4h40 M200,58.4c35,0,35-7.9,70-7.9h40"/>
			<path fill="none" stroke="#CCCCCC" stroke-width="3" d="M160,58.4h40 M200,58.4c35,0,35-7.9,70-7.9h40 M310,50.5
				C485,50.5,485,61,660,61h40"/>
		</g>
		<g display="inline">
			<path fill="none" stroke="#CCCCCC" stroke-width="1.5" d="M160,161h40 M200,161c35,0,35,2,70,2h40"/>
			<path fill="none" stroke="#CCCCCC" stroke-width="1.5" d="M160,161h40 M200,161c35,0,35,2,70,2h40 M310,163c175,0,175,52,350,52
				h40"/>
		</g>
		<g display="inline">
			<path fill="none" stroke="#CCCCCC" stroke-width="1.5" d="M160,99h40 M200,99c35,0,35,0,70,0h40"/>
			<path fill="none" stroke="#CCCCCC" stroke-width="1.5" d="M160,99h40 M200,99c35,0,35,0,70,0h40 M310,99c175,0,175,4,350,4h40"/>
		</g>
		<g display="inline">
			<path fill="none" stroke="#CCCCCC" stroke-width="3" d="M160,5h40 M200,5c35,0,35,0,70,0h40"/>
			<path fill="none" stroke="#CCCCCC" stroke-width="3" d="M160,5h40 M200,5c35,0,35,0,70,0h40 M310,5c175,0,175,0,350,0h40"/>
		</g>
	</g>
	<g>
		<g transform="translate(165, 5)">
			<g>
				<g>
					<rect y="166" fill="#DEEFFC" width="20" height="70.7"/>
					<rect y="156" fill="#4DB6AC" width="20" height="10"/>
					<rect y="139" fill="#DCEDC8" width="20" height="17"/>
					<rect y="137.3" fill="#4DB6AC" width="20" height="1.7"/>
					<rect y="130.4" fill="#DCEDC8" width="20" height="6.9"/>
					<rect y="129" fill="#4DB6AC" width="20" height="1.4"/>
					<rect y="127" fill="#64B0AD" width="20" height="2"/>
					<rect y="126.5" fill="#4DB6AC" width="20" height="0.5"/>
					<rect y="126" fill="#DCEDC8" width="20" height="0.5"/>
					<rect y="114" fill="#4DB6AC" width="20" height="12"/>
					<rect y="109" fill="#64B0AD" width="20" height="5"/>
					<rect y="103.5" fill="#4DB6AC" width="20" height="5.5"/>
					<rect y="101.8" fill="#64B0AD" width="20" height="1.7"/>
					<rect y="94" fill="#4DB6AC" width="20" height="7.8"/>
					<rect y="74" fill="#DEEFFC" width="20" height="20"/>
					<rect y="52" fill="#4DB6AC" width="20" height="22"/>
					<rect y="21" fill="#BBDEFB" width="20" height="31"/>
					<rect y="19" fill="#4DB6AC" width="20" height="2"/>
					<rect y="15.4" fill="#BBDEFB" width="20" height="3.6"/>
					<rect y="8.5" fill="#7986CB" width="20" height="6.9"/>
					<rect y="0" fill="#C22762" width="20" height="8.5"/>
					<rect y="-0.5" fill="#DCEDC8" width="20" height="0.5"/>
				</g>
			</g>
		</g>
		<g transform="translate(275, 5)">
			<g>
				<g>
					<rect y="176.3" fill="#DEEFFC" width="20" height="39.7"/>
					<rect y="149.2" fill="#4DB6AC" width="20" height="27.1"/>
					<rect y="140" fill="#DCEDC8" width="20" height="9.2"/>
					<rect y="94" fill="#64B0AD" width="20" height="46"/>
					<rect y="73" fill="#BBDEFB" width="20" height="21"/>
					<rect y="68.5" fill="#64B0AD" width="20" height="4.5"/>
					<rect y="60" fill="#DCEDC8" width="20" height="8.5"/>
					<rect y="45.5" fill="#64B0AD" width="20" height="14.5"/>
					<rect y="39.5" fill="#DCEDC8" width="20" height="6"/>
					<rect y="7" fill="#BBDEFB" width="20" height="32.5"/>
					<rect y="6.5" fill="#C22762" width="20" height="0.5"/>
					<rect y="0" fill="#DEEFFC" width="20" height="6.5"/>
					<rect y="-7" fill="#DCEDC8" width="20" height="7"/>
				</g>
			</g>
		</g>
		<g transform="translate(665, 5)">
			<g>
				<g>
					<rect y="308" width="20" height="50"/>
					<rect y="288.5" fill="#DEEFFC" width="20" height="19.5"/>
					<rect y="280.6" fill="#4DB6AC" width="20" height="7.9"/>
					<rect y="257" fill="#DEEFFC" width="20" height="23.6"/>
					<rect y="240" fill="#4DB6AC" width="20" height="17"/>
					<rect y="221" fill="#DEEFFC" width="20" height="19"/>
					<rect y="210" fill="#4DB6AC" width="20" height="11"/>
					<rect y="198" fill="#DEEFFC" width="20" height="12"/>
					<rect y="189" fill="#DCEDC8" width="20" height="9"/>
					<rect y="183" fill="#7986CB" width="20" height="6"/>
					<rect y="153" fill="#DCEDC8" width="20" height="30"/>
					<rect y="150" fill="#4DB6AC" width="20" height="3"/>
					<rect y="142" fill="#DCEDC8" width="20" height="8"/>
					<rect y="116" fill="#BBDEFB" width="20" height="26"/>
					<rect y="112.5" fill="#4DB6AC" width="20" height="3.5"/>
					<rect y="92" fill="#DCEDC8" width="20" height="20.5"/>
					<rect y="85" fill="#DEEFFC" width="20" height="7"/>
					<rect y="84" fill="#DCEDC8" width="20" height="1"/>
					<rect y="69" fill="#4DB6AC" width="20" height="15"/>
					<rect y="66.5" fill="#DCEDC8" width="20" height="2.5"/>
					<rect y="33" fill="#BBDEFB" width="20" height="33.5"/>
					<rect y="28.6" fill="#DEEFFC" width="20" height="4.4"/>
					<rect y="19.3" fill="#7986CB" width="20" height="9.3"/>
					<rect y="15.9" fill="#DEEFFC" width="20" height="3.4"/>
					<rect y="13.7" fill="#7986CB" width="20" height="2.2"/>
					<rect y="12.1" fill="#DEEFFC" width="20" height="1.6"/>
					<rect y="0" fill="#7986CB" width="20" height="12.1"/>
					<rect y="-33.9" fill="#DCEDC8" width="20" height="33.9"/>
				</g>
			</g>
		</g>
	</g>
</g>
<g id="Lines">
	<path fill="none" stroke="#FFCCCC" stroke-width="1.5" d="M4.2,121.9L155,122l0,0c52.5-1,80,11,130,12.6c0,0,200,8.4,375,8.4
		l578.1,21"/>
	<path fill="none" stroke="#FFCCCC" stroke-width="1.5" d="M4.2,171h152.9c44.5,0,81,10.3,129.3,10.3c170.8,0,290.1,105,388.6,112.2
		c99.4,7.3,547,14.4,547,14.4"/>
	<path fill="none" stroke="#CCCCCC" stroke-width="1.5" d="M447.3,201.6c0,0,175.7,81.9,209.9,84s147.8,6.8,239,13.5"/>
	<path fill="none" stroke="#CCCCCC" stroke-width="1.5" d="M1205.8,274.9c0,0-466-11.5-530.9-12.9c-64.8-1.4-241.4-61.9-241.4-61.9"
		/>
	<path fill="none" stroke="#CCCCCC" stroke-width="1.5" d="M796.2,252.5l-84,1c0,0,22,5,92.9,10.1l80,7.2"/>
	<path fill="none" stroke="#CCCCCC" stroke-width="1.5" d="M421.6,186.7c72.1,22.8,156.2,50.2,244.8,57.5
		c92.1,9.5,129.8,10.5,129.8,10.5"/>
	<path fill="none" stroke="#CCCCCC" stroke-width="1.5" d="M1027.4,226c0,0-216.8,2.8-352.4,0s-201.5-25.5-256.8-38"/>
	<path fill="none" stroke="#CCCCCC" stroke-width="1.5" d="M4.2,162l152.9-1c35,0,127.9,1.4,127.9,1.4c118.7,0,200,52.6,375,52.6h40
		l178.4,6.7l160,5.3"/>
	<polyline fill="none" stroke="#FFCCCC" stroke-width="3" points="4.2,92.1 155,92.1 200,92.1 	"/>
	<path fill="none" stroke="#FFCCCC" stroke-width="3" d="M200,92.1c35,0,35,2.7,70,2.7h40"/>
	<path fill="none" stroke="#FFCCCC" stroke-width="3" d="M310,94.8c175,0,175-0.6,350-0.6c0,0,229.7,2,306.3,2.8
		c33.2,0.3,255.7,17,255.7,17"/>
	<path fill="none" stroke="#CCCCCC" d="M4.2,69.3L155,70h45c35,0,35,3.5,70,3.5h40c67.5,0,310.2,0.5,365,0.5c33.6,0,533.3,2,533.3,2
		"/>
	<polyline fill="none" stroke="#FFCCCC" stroke-width="1.5" points="4.2,23.5 155,24 200,24 	"/>
	<path fill="none" stroke="#FFCCCC" stroke-width="1.5" d="M200,24c35,0,35-1,70-1h40"/>
	<path fill="none" stroke="#FFCCCC" stroke-width="1.5" d="M310,23c175,0,175-11.7,350-11.7L1213.2,23"/>
	<path fill="none" stroke="#CCCCCC" d="M4.2,81H155c0,0,80,0,115,0h40"/>
	<path fill="none" stroke="#CCCCCC" d="M310,81c175,0,175,9,350,9c0,0,187.4,1,291.1,1.6c32.4,0.2,239.2,13.4,257.2,13.4"/>
	<path fill="none" stroke="#CCCCCC" stroke-width="3" d="M4.2,55.8L155,58.4h45c35,0,35-7.9,70-7.9h40C485,50.5,485,61,660,61h561.6
		"/>
	<path fill="none" stroke="#CCCCCC" stroke-width="1.5" d="M4.2,100.6L155,99h155c175,0,175,4,350,4c0,0,301.8,1.3,402.3,3.5
		c30.7,0.7,141.7,9.2,141.7,9.2"/>
	<polyline fill="none" stroke="#CCCCCC" stroke-width="3" points="6.7,5 155,5 200,5 	"/>
	<path fill="none" stroke="#CCCCCC" stroke-width="3" d="M200,5c35,0,35,0,70,0h40"/>
	<path fill="none" stroke="#CCCCCC" stroke-width="3" d="M310,5c175,0,190,0,365,0l538.2,12.1"/>
	<path fill="none" stroke="#CCCCCC" d="M10.7,286.3L8.2-9.4L1204-1.6V318H169C146.9,309.8,11.1,303.2,10.7,286.3z"/>
	<path fill="none" stroke="#CCCCCC" d="M4.2,245h134.2c100.7,1.6,203.8-14,311.7,8.5s191.7,77.8,198.8,77.8"/>
	<path fill="none" stroke="#CCCCCC" stroke-width="0.75" d="M949.8,210.9l-107.4,3l123.9,5.2l-243.4-2"/>
	<path fill="none" stroke="#CCCCCC" stroke-width="1.5" d="M1238.1,265.6l-214.6-6.8l54.2-4.2l-50.2-4.3l62.3-7.7l-76-7.8l181.2-6
		l-177.2-9.8l39.6-4.1l-93.2-2.8c-53.8-1.5-214.4-9.2-289.2-9.2s-190.2-15.9-225.4-21.6L558,191l-61.4-9.6
		c0,0,130.2,11.5,178.4,12.6s231.2,9,231.2,9l-70.4-6.3l145-2.7c0,0-214.2-6-305.8-6s-342.2-33.8-360.5-33.8s-138,0-163.6,0H4.2"/>
	<path fill="none" stroke="#FFCCCC" stroke-width="1.5" d="M1213.2,124.5c0,0-585.1-7-621.3-7s-266.2-9.8-306.9-9.8
		s-130-0.8-130-0.8L4.2,106.5"/>
	<line fill="none" stroke="#CCCCCC" stroke-width="1.5" x1="848.9" y1="305.9" x2="885.1" y2="296.1"/>
	<path fill="none" stroke="#CCCCCC" d="M4.2,147.3l146.7-3.3l74.9,1H285c0,0,303.4,11.6,390,13.2s546.6,19.5,546.6,19.5"/>
	<polyline fill="none" stroke="#CCCCCC" stroke-width="0.5" points="249.9,164.5 215.3,159 233.9,158.2 194.6,151 	"/>
	<polyline fill="none" stroke="#CCCCCC" stroke-width="0.5" points="450.7,166.6 383.8,164.5 496.6,181.4 	"/>
	<path fill="none" stroke="#CCCCCC" d="M194.6,72.5l20.1-3.2l-8.2-0.4L191.7,68c0,0,36.6-3.2,63.3-3s72.4,0,72.4,0
		c74.2,1.3,297.3,6.5,347.6,6.5c36.7,0,164.4-1.5,164.4-1.5l-47.7-2.4L937.6,67l-5.1-2l299.2-1.6"/>
	<polyline fill="none" stroke="#CCCCCC" points="368.1,142.3 480.1,135.4 418.2,131 575.6,125 496.6,121 675,121 844.6,124 
		961.5,114 	"/>
	<path fill="none" stroke="#CCCCCC" d="M64.2,136.6l92.9-0.7c72.4,0,84.6,7.1,128.9,9.6"/>
	<path fill="none" stroke="#CCCCCC" d="M194.6,143l-169.8-1.8l-6,1.1"/>
	<path fill="none" stroke="#CCCCCC" d="M823.6,164.3c0,0-12.5-2.8-21.8-5.3s-59.3-2.3-126.8-4s-246.4-11.5-261.1-10l261.1,1.8
		l128.9,4.2l62.2-4"/>
	<path fill="none" stroke="#CCCCCC" stroke-width="0.75" d="M360.9,114c0,0,88.1-7.5,132.3-15"/>
	<path fill="none" stroke="#CCCCCC" d="M548,147.3c0,0,16.3-5.5,26.5-7.3"/>
	<polyline fill="none" stroke="#CCCCCC" stroke-width="1.5" points="432.6,70 466.9,65 440.2,63.4 501,50.5 	"/>
	<path fill="none" stroke="#CCCCCC" stroke-width="0.75" d="M4.2,13.5H155c47.3,0,55.3-1.5,130-1.5s257.9-0.9,257.9-0.9l-52.4,8.7"
		/>
	<polyline fill="none" stroke="#CCCCCC" stroke-width="0.75" points="4.2,18.6 147.3,20.4 225.1,18.7 213.2,15.4 260.2,11.1 	"/>
	<polyline fill="none" stroke="#CCCCCC" stroke-width="0.75" points="445.1,15.4 375.7,9.3 418.2,1.5 	"/>
	<polyline fill="none" stroke="#CCCCCC" points="593.2,11.1 624.8,15.7 748.7,17.9 603.7,19.8 548,20.9 735.2,20.9 716.8,23.5 
		517.2,28.3 600.7,33.6 744.7,33.6 885.1,38 763.3,41 954.3,43.7 1204,43.7 	"/>
	<path fill="none" stroke="#CCCCCC" stroke-width="0.75" d="M344.4,103c0,0,53.7-13,70.9-13"/>
	<path fill="none" d="M520.6,245c10.4-0.2,35.8,0,35.8,0"/>
	<path fill="none" d="M550.5,238.5c10.4-0.2,35.8-9.6,35.8-9.6"/>
	<path fill="none" d="M568.3,220.1C578.7,219.9,600,209,600,209"/>
	<path fill="none" stroke="#CCCCCC" d="M991.8,157.2l-189.5-18.1l337.9,3.5l-244-11.4c33.5-4.4,370.5-3.2,370.5-3.2"/>
	<polyline fill="none" stroke="#CCCCCC" points="1213.2,81 1099.5,80 1070.7,82.4 1221.6,87.7 1209.6,91.6 932.8,85.7 1216.5,102.1 
			"/>
	<line fill="none" stroke="#CCCCCC" x1="456.3" y1="173" x2="360.9" y2="176.1"/>
	<line fill="none" stroke="#CCCCCC" stroke-width="0.5" x1="21.7" y1="143" x2="118.7" y2="134.7"/>
	<line fill="none" stroke="#CCCCCC" x1="194.6" y1="143" x2="230.7" y2="145.5"/>
	<line fill="none" stroke="#CCCCCC" stroke-width="0.5" x1="19.9" y1="164" x2="112.2" y2="152.5"/>
	<line fill="none" stroke="#CCCCCC" stroke-width="0.5" x1="13" y1="155.7" x2="80.1" y2="144.2"/>
</g>
<g id="Facies">
	<text transform="matrix(1 0 0 1 330.6108 177.7471)" font-family="'ArialMT'" font-size="12px">cc</text>
	<text transform="matrix(1 0 0 1 341.3084 278.7215)" font-family="'ArialMT'" font-size="12px">none</text>
	<text transform="matrix(1 0 0 1 1105.2056 207.1543)" font-family="'ArialMT'" font-size="12px">fc</text>
	<text transform="matrix(1 0 0 1 751.3169 282.6447)" font-family="'ArialMT'" font-size="12px">p</text>
	<text transform="matrix(1 0 0 1 606.1223 209.0004)" font-family="'ArialMT'" font-size="12px">p</text>
	<text transform="matrix(1 0 0 1 432.5821 232.1247)" font-family="'ArialMT'" font-size="12px">p</text>
	<text transform="matrix(1 0 0 1 564.6277 184.9206)" font-family="'ArialMT'" font-size="4px">p</text>
	<text transform="matrix(1 0 0 1 789.3549 177.7468)" font-family="'ArialMT'" font-size="12px">fc</text>
	<text transform="matrix(1 0 0 1 770.5541 114.0005)" font-family="'ArialMT'" font-size="12px">fc</text>
	<text transform="matrix(1 0 0 1 641.702 52.609)" font-family="'ArialMT'" font-size="12px">p</text>
	<text transform="matrix(1 0 0 1 375.6619 108.4999)" font-family="'ArialMT'" font-size="12px">cc</text>
	<text transform="matrix(1 0 0 1 324.682 128.1499)" font-family="'ArialMT'" font-size="12px">cc</text>
	<text transform="matrix(1 0 0 1 324.6821 144)" font-family="'ArialMT'" font-size="8px">cc</text>
	<text transform="matrix(1 0 0 1 744.7489 134)" font-family="'ArialMT'" font-size="12px">p</text>
	<text transform="matrix(1 0 0 1 493.227 64.9998)" font-family="'ArialMT'" font-size="9px">p</text>
	<text transform="matrix(1 0 0 1 350.5292 62.2503)" font-family="'ArialMT'" font-size="12px">cc</text>
	<text transform="matrix(1 0 0 1 632.6437 145.4619)" font-family="'ArialMT'" font-size="3px">p</text>
	<text transform="matrix(1 0 0 1 344.4357 19.7998)" font-family="'ArialMT'" font-size="9px">p</text>
	<text transform="matrix(1 0 0 1 794.1621 24.7954)" font-family="'ArialMT'" font-size="7px">sh</text>
	<text transform="matrix(1 0 0 1 784.4243 12.425)" font-family="'ArialMT'" font-size="5px">sh</text>
	<text transform="matrix(1 0 0 1 189.9183 18.6)" font-family="'ArialMT'" font-size="4px">sh</text>
	<text transform="matrix(1 0 0 1 915.4325 9.7444)" font-family="'ArialMT'" font-size="12px">none</text>
	<text transform="matrix(1 0 0 1 873.2318 159.2)" font-family="'ArialMT'" font-size="12px">fc</text>
	<text transform="matrix(1 0 0 1 312.8964 72.0002)" font-family="'ArialMT'" font-size="6px">fc</text>
	<text transform="matrix(1 0 0 1 201.7891 96.6235)" font-family="'ArialMT'" font-size="5px">p</text>
	<text transform="matrix(1 0 0 1 707.3557 100.6467)" font-family="'ArialMT'" font-size="5px">fc</text>
	<text transform="matrix(1 0 0 1 713.5973 84.6016)" font-family="'ArialMT'" font-size="12px">cc</text>
	<text transform="matrix(1 0 0 1 190.2012 141.3828)" font-family="'ArialMT'" font-size="5.2826px">fc</text>
	<text transform="matrix(1 0 0 1 586.2258 244.9038)" font-family="'ArialMT'" font-size="12px">cc</text>
	<text transform="matrix(1 0 0 1 599.9998 219.9999)" font-family="'ArialMT'" font-size="8px">cc</text>
	<text transform="matrix(1 0 0 1 572.1335 261.7343)" font-family="'ArialMT'" font-size="3px">cc</text>
	<text transform="matrix(1 0 0 1 936.3196 249.8686)" font-family="'ArialMT'" font-size="12px">p</text>
	<text transform="matrix(1 0 0 1 1184.0269 140.1996)" font-family="'ArialMT'" font-size="12px">fc</text>
	<text transform="matrix(1 0 0 1 298.583 90.0084)" font-family="'ArialMT'" font-size="9px">p</text>
	<text transform="matrix(1 0 0 1 1180.9316 99.3505)" font-family="'ArialMT'" font-size="6px">fc</text>
	<text transform="matrix(1 0 0 1 1187.6697 85.7373)" font-family="'ArialMT'" font-size="6px">fc</text>
	<text transform="matrix(1 0 0 1 327.0537 162.0004)" font-family="'ArialMT'" font-size="8px">cc</text>
	<text transform="matrix(1 0 0 1 198.0002 160.2001)" font-family="'ArialMT'" font-size="5.2826px">fc</text>
	<text transform="matrix(1 0 0 1 337.7474 9.7445)" font-family="'ArialMT'" font-size="6px">p</text>
	<text transform="matrix(1 0 0 1 45.9091 134.6997)" font-family="'ArialMT'" font-size="5.2826px">cc</text>
	<text transform="matrix(1 0 0 1 17.8006 152.0002)" font-family="'ArialMT'" font-size="5.2826px">cc</text>
	<text transform="matrix(1 0 0 1 33.4966 159.2002)" font-family="'ArialMT'" font-size="5.2826px">cc</text>
</g>
</svg>
