<?xml version="1.0" encoding="utf-8"?>
<!-- Generator: Adobe Illustrator 24.0.0, SVG Export Plug-In . SVG Version: 6.00 Build 0)  -->
<svg version="1.1" xmlns="http://www.w3.org/2000/svg" xmlns:xlink="http://www.w3.org/1999/xlink" x="0px" y="0px" width="1200px"
	 height="318px" viewBox="0 0 1200 318" enable-background="new 0 0 1200 318" xml:space="preserve">
<g id="Layer_1">
	<g display="none">
		<g display="inline">
			<path fill="none" stroke="#FFCCCC" stroke-width="3" d="M160,92.1h40 M200,92.1c35,0,35,2.7,70,2.7h40"/>
			<path fill="none" stroke="#FFCCCC" stroke-width="3" d="M160,92.1h40 M200,92.1c35,0,35,2.7,70,2.7h40 M310,94.8
				c175,0,175-0.6,350-0.6h40"/>
		</g>
		<g display="inline">
			<path fill="none" stroke="#CCCCCC" d="M160,70h40 M200,70c35,0,35,3.5,70,3.5h40"/>
		</g>
		<g display="inline">
			<path fill="none" stroke="#FFCCCC" stroke-width="1.5" d="M160,123h40 M200,123c35,0,35,11,70,11h40"/>
			<path fill="none" stroke="#FFCCCC" stroke-width="1.5" d="M160,123h40 M200,123c35,0,35,11,70,11h40 M310,134c175,0,175,9,350,9
				h40"/>
		</g>
		<g display="inline">
			<path fill="none" stroke="#FFCCCC" stroke-width="1.5" d="M160,24h40 M200,24c35,0,35-1,70-1h40"/>
			<path fill="none" stroke="#FFCCCC" stroke-width="1.5" d="M160,24h40 M200,24c35,0,35-1,70-1h40 M310,23c175,0,175-11.7,350-11.7
				h40"/>
		</g>
		<g display="inline">
			<path fill="none" stroke="#FFCCCC" stroke-width="1.5" d="M160,171h40 M200,171c35,0,35,10.6,70,10.6h40"/>
			<path fill="none" stroke="#FFCCCC" stroke-width="1.5" d="M160,171h40 M200,171c35,0,35,10.6,70,10.6h40 M310,181.6
				c175,0,175,111.9,350,111.9h40"/>
		</g>
		<g display="inline">
			<path fill="none" stroke="#FFCCCC" stroke-width="1.5" d="M160,79h40 M200,79c35,0,35-1,70-1h40"/>
			<path fill="none" stroke="#FFCCCC" stroke-width="1.5" d="M160,79h40 M200,79c35,0,35-1,70-1h40 M310,78c175,0,175,11,350,11h40"
				/>
		</g>
		<g display="inline">
			<path fill="none" stroke="#CCCCCC" d="M160,81h40 M200,81c35,0,35,0,70,0h40"/>
			<path fill="none" stroke="#CCCCCC" d="M160,81h40 M200,81c35,0,35,0,70,0h40 M310,81c175,0,175,9,350,9h40"/>
		</g>
		<g display="inline">
			<path fill="none" stroke="#CCCCCC" stroke-width="3" d="M160,58.4h40 M200,58.4c35,0,35-7.9,70-7.9h40"/>
			<path fill="none" stroke="#CCCCCC" stroke-width="3" d="M160,58.4h40 M200,58.4c35,0,35-7.9,70-7.9h40 M310,50.5
				C485,50.5,485,61,660,61h40"/>
		</g>
		<g display="inline">
			<path fill="none" stroke="#CCCCCC" stroke-width="1.5" d="M160,161h40 M200,161c35,0,35,2,70,2h40"/>
			<path fill="none" stroke="#CCCCCC" stroke-width="1.5" d="M160,161h40 M200,161c35,0,35,2,70,2h40 M310,163c175,0,175,52,350,52
				h40"/>
		</g>
		<g display="inline">
			<path fill="none" stroke="#CCCCCC" stroke-width="1.5" d="M160,99h40 M200,99c35,0,35,0,70,0h40"/>
			<path fill="none" stroke="#CCCCCC" stroke-width="1.5" d="M160,99h40 M200,99c35,0,35,0,70,0h40 M310,99c175,0,175,4,350,4h40"/>
		</g>
		<g display="inline">
			<path fill="none" stroke="#CCCCCC" stroke-width="3" d="M160,5h40 M200,5c35,0,35,0,70,0h40"/>
			<path fill="none" stroke="#CCCCCC" stroke-width="3" d="M160,5h40 M200,5c35,0,35,0,70,0h40 M310,5c175,0,175,0,350,0h40"/>
		</g>
	</g>
	<g>
		<g transform="translate(165, 5)">
			<g>
				<g>
					<rect y="166" fill="#DEEFFC" width="20" height="70.7"/>
					<rect y="156" fill="#4DB6AC" width="20" height="10"/>
					<rect y="139" fill="#DCEDC8" width="20" height="17"/>
					<rect y="137.3" fill="#4DB6AC" width="20" height="1.7"/>
					<rect y="130.4" fill="#DCEDC8" width="20" height="6.9"/>
					<rect y="129" fill="#4DB6AC" width="20" height="1.4"/>
					<rect y="127" fill="#64B0AD" width="20" height="2"/>
					<rect y="126.5" fill="#4DB6AC" width="20" height="0.5"/>
					<rect y="126" fill="#DCEDC8" width="20" height="0.5"/>
					<rect y="114" fill="#4DB6AC" width="20" height="12"/>
					<rect y="109" fill="#64B0AD" width="20" height="5"/>
					<rect y="103.5" fill="#4DB6AC" width="20" height="5.5"/>
					<rect y="101.8" fill="#64B0AD" width="20" height="1.7"/>
					<rect y="94" fill="#4DB6AC" width="20" height="7.8"/>
					<rect y="74" fill="#DEEFFC" width="20" height="20"/>
					<rect y="52" fill="#4DB6AC" width="20" height="22"/>
					<rect y="21" fill="#BBDEFB" width="20" height="31"/>
					<rect y="19" fill="#4DB6AC" width="20" height="2"/>
					<rect y="15.4" fill="#BBDEFB" width="20" height="3.6"/>
					<rect y="8.5" fill="#7986CB" width="20" height="6.9"/>
					<rect y="0" fill="#C22762" width="20" height="8.5"/>
					<rect y="-0.5" fill="#DCEDC8" width="20" height="0.5"/>
				</g>
			</g>
		</g>
		<g transform="translate(275, 5)">
			<g>
				<g>
					<rect y="176.3" fill="#DEEFFC" width="20" height="39.7"/>
					<rect y="149.2" fill="#4DB6AC" width="20" height="27.1"/>
					<rect y="140" fill="#DCEDC8" width="20" height="9.2"/>
					<rect y="94" fill="#64B0AD" width="20" height="46"/>
					<rect y="73" fill="#BBDEFB" width="20" height="21"/>
					<rect y="68.5" fill="#64B0AD" width="20" height="4.5"/>
					<rect y="60" fill="#DCEDC8" width="20" height="8.5"/>
					<rect y="45.5" fill="#64B0AD" width="20" height="14.5"/>
					<rect y="39.5" fill="#DCEDC8" width="20" height="6"/>
					<rect y="7" fill="#BBDEFB" width="20" height="32.5"/>
					<rect y="6.5" fill="#C22762" width="20" height="0.5"/>
					<rect y="0" fill="#DEEFFC" width="20" height="6.5"/>
					<rect y="-7" fill="#DCEDC8" width="20" height="7"/>
				</g>
			</g>
		</g>
		<g transform="translate(665, 5)">
			<g>
				<g>
					<rect y="308" width="20" height="50"/>
					<rect y="288.5" fill="#DEEFFC" width="20" height="19.5"/>
					<rect y="280.6" fill="#4DB6AC" width="20" height="7.9"/>
					<rect y="257" fill="#DEEFFC" width="20" height="23.6"/>
					<rect y="240" fill="#4DB6AC" width="20" height="17"/>
					<rect y="221" fill="#DEEFFC" width="20" height="19"/>
					<rect y="210" fill="#4DB6AC" width="20" height="11"/>
					<rect y="198" fill="#DEEFFC" width="20" height="12"/>
					<rect y="189" fill="#DCEDC8" width="20" height="9"/>
					<rect y="183" fill="#7986CB" width="20" height="6"/>
					<rect y="153" fill="#DCEDC8" width="20" height="30"/>
					<rect y="150" fill="#4DB6AC" width="20" height="3"/>
					<rect y="142" fill="#DCEDC8" width="20" height="8"/>
					<rect y="116" fill="#BBDEFB" width="20" height="26"/>
					<rect y="112.5" fill="#4DB6AC" width="20" height="3.5"/>
					<rect y="92" fill="#DCEDC8" width="20" height="20.5"/>
					<rect y="85" fill="#DEEFFC" width="20" height="7"/>
					<rect y="84" fill="#DCEDC8" width="20" height="1"/>
					<rect y="69" fill="#4DB6AC" width="20" height="15"/>
					<rect y="66.5" fill="#DCEDC8" width="20" height="2.5"/>
					<rect y="33" fill="#BBDEFB" width="20" height="33.5"/>
					<rect y="28.6" fill="#DEEFFC" width="20" height="4.4"/>
					<rect y="19.3" fill="#7986CB" width="20" height="9.3"/>
					<rect y="15.9" fill="#DEEFFC" width="20" height="3.4"/>
					<rect y="13.7" fill="#7986CB" width="20" height="2.2"/>
					<rect y="12.1" fill="#DEEFFC" width="20" height="1.6"/>
					<rect y="0" fill="#7986CB" width="20" height="12.1"/>
					<rect y="-33.9" fill="#DCEDC8" width="20" height="33.9"/>
				</g>
			</g>
		</g>
	</g>
</g>
<g id="Lines">
	<path fill="none" stroke="#FFCCCC" stroke-width="1.5" d="M160,122L160,122c51.1,3.6,75,11,125,12.6c0,0,200,8.4,375,8.4h337"/>
	<path fill="none" stroke="#FFCCCC" stroke-width="1.5" d="M162.1,171c44.5,0,76,10.3,124.3,10.3c170.8,0,290.1,105,388.6,112.2
		c99.4,7.3,239.6,9.8,239.6,9.8"/>
	<path fill="none" stroke="#CCCCCC" stroke-width="1.5" d="M160,161h40 M200,161c35,0,85,1.4,85,1.4c118.7,0,200,52.6,375,52.6h40
		l255.4,11c0,0-144.8,2.8-280.4,0s-201.5-25.5-256.8-38c72.1,22.8,175.7,49.1,232.7,55c92.1,9.5,129.8,10.5,129.8,10.5h-68.5
		c0,0,22,5,92.9,10.1l77.1,6.1c0,0-142.4-6.3-207.3-7.7c-64.8-1.4-215.4-55-215.4-55s163.5,76.5,197.7,78.6
		c34.2,2.1,133.8,7.7,224.3,17.6"/>
	<path fill="none" stroke="#FFCCCC" stroke-width="3" d="M160,92.1h40 M200,92.1c35,0,35,2.7,70,2.7h40 M310,94.8
		c175,0,175-0.6,350-0.6h40"/>
	<path fill="none" stroke="#CCCCCC" d="M160,70h40 M200,70c35,0,35,3.5,70,3.5h40"/>
	<path fill="none" stroke="#FFCCCC" stroke-width="1.5" d="M160,24h40 M200,24c35,0,35-1,70-1h40 M310,23c175,0,175-11.7,350-11.7
		h40"/>
	<path fill="none" stroke="#FFCCCC" stroke-width="1.5" d="M160,79h40 M200,79c35,0,35-1,70-1h40 M310,78c175,0,175,11,350,11h40"/>
	<path fill="none" stroke="#CCCCCC" d="M160,81h40 M200,81c35,0,35,0,70,0h40 M310,81c175,0,175,9,350,9h40"/>
	<path fill="none" stroke="#CCCCCC" stroke-width="3" d="M160,58.4h40 M200,58.4c35,0,35-7.9,70-7.9h40 M310,50.5
		C485,50.5,485,61,660,61h40"/>
	<path fill="none" stroke="#CCCCCC" stroke-width="1.5" d="M160,99h40 M200,99c35,0,35,0,70,0h40 M310,99c175,0,175,4,350,4h40"/>
	<path fill="none" stroke="#CCCCCC" stroke-width="3" d="M160,5h40 M200,5c35,0,35,0,70,0h40 M310,5c175,0,175,0,350,0h40"/>
	<polygon fill="none" stroke="#CCCCCC" points="971.6,318 165,318 165,-1.6 984,-1.6 	"/>
	<path fill="none" stroke="#CCCCCC" d="M143.4,245c100.7,1.6,198.8-14,306.7,8.5s191.7,77.8,198.8,77.8"/>
	<polyline fill="none" stroke="#000000" stroke-miterlimit="10" points="310,278.7 353.8,298.3 408.2,285.6 	"/>
	<polyline fill="none" stroke="#000000" stroke-miterlimit="10" points="310,288.5 336.9,253.5 374.3,271 396.1,293.5 	"/>
	<path fill="none" stroke="#000000" stroke-miterlimit="10" d="M321.7,298.3l49.9-12.7c22.3-24.7,48.1-50.1,48.1-50.1l59.7-14.5"/>
</g>
<g id="Facies">
	<text transform="matrix(1 0 0 1 330.6108 177.7471)" font-family="'MyriadPro-Regular'" font-size="12px">cc</text>
	<text transform="matrix(1 0 0 1 341.3084 278.7215)" font-family="'MyriadPro-Regular'" font-size="12px">cc</text>
</g>
<g id="Labels">
</g>
</svg>
