<?xml version="1.0" encoding="utf-8"?>
<!-- Generator: Adobe Illustrator 24.0.0, SVG Export Plug-In . SVG Version: 6.00 Build 0)  -->
<svg version="1.1" xmlns="http://www.w3.org/2000/svg" xmlns:xlink="http://www.w3.org/1999/xlink" x="0px" y="0px" width="1200px"
	 height="268px" viewBox="0 0 1200 268" enable-background="new 0 0 1200 268" xml:space="preserve">
<g id="Layer_1">
	<g>
		<g transform="translate(165, 5)">
			<g>
				<g>
					<rect y="151" fill="#C22762" width="20" height="8.5"/>
					<rect y="111.7" fill="#DCEDC8" width="20" height="39.3"/>
					<rect y="102" fill="#BBDEFB" width="20" height="9.7"/>
					<rect y="99" fill="#7986CB" width="20" height="3"/>
					<rect y="95.8" fill="#BBDEFB" width="20" height="3.2"/>
					<rect y="95.2" fill="#7986CB" width="20" height="0.6"/>
					<rect y="94" fill="#DEEFFC" width="20" height="1.2"/>
					<rect y="91" fill="#C22762" width="20" height="3"/>
					<rect y="79" fill="#DEEFFC" width="20" height="12"/>
					<rect y="77" fill="#C22762" width="20" height="2"/>
					<rect y="75" fill="#BBDEFB" width="20" height="2"/>
					<rect y="73" fill="#C22762" width="20" height="2"/>
					<rect y="63" fill="#BBDEFB" width="20" height="10"/>
					<rect y="61.5" fill="#C22762" width="20" height="1.5"/>
					<rect y="10" fill="#DCEDC8" width="20" height="51.5"/>
					<rect y="9" fill="#BBDEFB" width="20" height="1"/>
					<rect y="5.3" fill="#7986CB" width="20" height="3.7"/>
					<rect y="0" fill="#DCEDC8" width="20" height="5.3"/>
					<rect y="-4.5" fill="#7986CB" width="20" height="4.5"/>
				</g>
			</g>
		</g>
		<g transform="translate(275, 5)">
			<g>
				<g>
					<rect y="176" fill="#DEEFFC" width="20" height="6.5"/>
					<rect y="126" fill="#DCEDC8" width="20" height="50"/>
					<rect y="109" fill="#BBDEFB" width="20" height="17"/>
					<rect y="101" fill="#4DB6AC" width="20" height="8"/>
					<rect y="100.2" fill="#BBDEFB" width="20" height="0.8"/>
					<rect y="95" fill="#4DB6AC" width="20" height="5.2"/>
					<rect y="62" fill="#7986CB" width="20" height="33"/>
					<rect y="18" fill="#DCEDC8" width="20" height="44"/>
					<rect y="10" fill="#7986CB" width="20" height="8"/>
					<rect y="0" fill="#DCEDC8" width="20" height="10"/>
					<rect y="-8" fill="#7986CB" width="20" height="8"/>
				</g>
			</g>
		</g>
		<g transform="translate(665, 5)">
			<g>
				<g>
					<rect y="258" width="20" height="2.4"/>
					<rect y="213.5" fill="#DCEDC8" width="20" height="44.5"/>
					<rect y="211" fill="#7986CB" width="20" height="2.5"/>
					<rect y="177" fill="#DCEDC8" width="20" height="34"/>
					<rect y="160" fill="#7986CB" width="20" height="17"/>
					<rect y="88" fill="#DCEDC8" width="20" height="72"/>
					<rect y="61.4" fill="#7986CB" width="20" height="26.6"/>
					<rect y="59.5" fill="#DEEFFC" width="20" height="1.9"/>
					<rect y="16" fill="#DCEDC8" width="20" height="43.5"/>
					<rect y="11" fill="#7986CB" width="20" height="5"/>
					<rect y="0" fill="#DCEDC8" width="20" height="11"/>
					<rect y="-8.6" fill="#4A148C" width="20" height="8.6"/>
				</g>
			</g>
		</g>
	</g>
</g>
<g id="Lines">
	<polygon fill="none" stroke="#CCCCCC" stroke-width="3" points="693.9,-9.8 693.9,282.9 165,288.9 165,-21.9 	"/>
	<g>
		<path fill="none" stroke="#CCCCCC" d="M160,115h13.5c35,0,75.6,9,111.5,11.4C398.3,134,579.9,216,675,216l29.6,2.5"/>
		<path fill="none" stroke="#FFCCCC" stroke-width="3" d="M160,83.5h40c35,0,35,1.5,70,1.5h40l0,0c175,0,175,6,350,6h40"/>
		<path fill="none" stroke="#FFCCCC" stroke-width="2" d="M160,107h15c35,0,71.4,4.4,106,7h29l0,0c176.8,10.6,266.9,63.3,365,68
			c21,1,82.5,10,82.5,10"/>
		<path fill="none" stroke="#FFCCCC" stroke-width="3" d="M160,5h40c35,0,35,0,70,0h40l0,0c175,0,175,0,350,0h40"/>
		<path fill="none" stroke="#FFCCCC" stroke-width="1.5" d="M160,15h15c35,0,75,7,110,7l25,1l0,0c175,0,175-2,350-2h40"/>
		<path fill="none" stroke="#CCCCCC" stroke-width="3" d="M160,93.5h40c35,0,52.6-1.2,85-1.5c122.4-1,318.1,73,390,73.5
			c10,0.1,69.2,6.8,69.2,6.8"/>
		<path fill="none" stroke="#CCCCCC" stroke-width="3" d="M160,10.3h15c35,0,74,4.6,109,4.6l26,0.1l0,0c175,0,175,1,350,1h40"/>
		<path fill="none" stroke="#CCCCCC" stroke-width="3" d="M160,66.5h40c35,0,35,0.5,70,0.5h40l0,0c175,0,175-2.5,350-2.5h40"/>
		<path fill="none" stroke="#CCCCCC" stroke-width="3" d="M160,156h15c34.7-3.1,76.9,22.3,110,25c120.5,9.9,217.5,67.6,390,82.2
			l97.2,13"/>
	</g>
	<polyline fill="none" stroke="#CCCCCC" points="369.9,100 403.4,100 382.5,94 426.5,95.5 397.6,91 466.5,86.5 	"/>
	<polyline fill="none" stroke="#CCCCCC" points="233.7,93.3 204.1,90 227.1,90 208.4,87.3 225,86.5 200,83.5 	"/>
	<path fill="none" stroke="#CCCCCC" d="M160,96.5c58.7,0,92.4,1.3,125,3.5c77.2,5.2,74,6.5,74,6.5c-17-1.1-29.1,0.1-29.1,0.1
		l24.9,3.4l-32.6,0l17.3,2.8l-18.9,2.8"/>
	<path fill="none" stroke="#CCCCCC" d="M160.2,99H175c77.8,0,80,11,110,15"/>
	<path fill="none" stroke="#CCCCCC" d="M305.2,129.5l32.4,1.5l-23.6-4.7l62.1,5.2l-49.1-8.7c0,0,10.6-0.3,97.2,10.7
		c-18.8-4.5-80.6-13.5-80.6-13.5s69.1,3,139.3,17.1"/>
	<path fill="none" stroke="#CCCCCC" d="M160,115"/>
	<path fill="none" stroke="#CCCCCC" d="M803.4,240.8c0,0-23.8-17.8-128.4-22.2c-110.3-4.7-289.4-79-390-87.5
		c-36.9-3.1-62.4-14.3-125-12.8"/>
	<polyline fill="none" stroke="#CCCCCC" points="452.7,171.3 470.1,172 490,174.2 	"/>
</g>
<g id="Facies">
	<text transform="matrix(1 0 0 1 463.8912 80.4528)" font-family="'MyriadPro-Regular'" font-size="12px">sh</text>
	<text transform="matrix(1 0 0 1 520.8488 114.0001)" font-family="'MyriadPro-Regular'" font-size="12px">fc</text>
	<text transform="matrix(1 0 0 1 520.8489 164.9996)" font-family="'MyriadPro-Regular'" font-size="12px">fc</text>
	<text transform="matrix(1 0 0 1 627.2168 240.75)" font-family="'MyriadPro-Regular'" font-size="12px">fc</text>
	<text transform="matrix(1 0 0 1 190.8765 90.9077)" font-family="'MyriadPro-Regular'" font-size="12px">p</text>
	<text transform="matrix(1 0 0 1 354.8018 93.084)" font-family="'MyriadPro-Regular'" font-size="12px">sh</text>
	<text transform="matrix(1 0 0 1 429.4588 122.5003)" font-family="'MyriadPro-Regular'" font-size="12px">sh</text>
	<text transform="matrix(1 0 0 1 302.5968 109.9999)" font-family="'MyriadPro-Regular'" font-size="12px">cc</text>
	<text transform="matrix(1 0 0 1 326.2144 221.1296)" font-family="'MyriadPro-Regular'" font-size="12px">none</text>
	<text transform="matrix(1 0 0 1 405.4708 13.1502)" font-family="'MyriadPro-Regular'" font-size="12px">fc</text>
	<text transform="matrix(1 0 0 1 364.1347 21.9998)" font-family="'MyriadPro-Regular'" font-size="8px">sh</text>
	<text transform="matrix(1 0 0 1 522.4595 188.8598)" font-family="'MyriadPro-Regular'" font-size="4px">sh</text>
	<text transform="matrix(1 0 0 1 305.2092 122.5002)" font-family="'MyriadPro-Regular'" font-size="12px">p</text>
	<text transform="matrix(1 0 0 1 299.6295 131.5148)" font-family="'MyriadPro-Regular'" font-size="5px">p</text>
	<text transform="matrix(1 0 0 1 452.1722 55.2185)" font-family="'MyriadPro-Regular'" font-size="12px">fc</text>
</g>
</svg>
