<svg id="Layer_1" data-name="Layer 1" xmlns="http://www.w3.org/2000/svg" width="1200" height="279" viewBox="0 0 1200 279">
  <g id="Layer_1-2" data-name="Layer 1-2">
    <g>
      <g>
        <rect x="165" y="272" width="20" height="3.7" fill="#dcedc8"/>
        <rect x="165" y="267.5" width="20" height="4.5" fill="#7986cb"/>
        <rect x="165" y="264.2" width="20" height="3.3" fill="#bbdefb"/>
        <rect x="165" y="257.4" width="20" height="6.9" fill="#7986cb"/>
        <rect x="165" y="243.5" width="20" height="13.9" fill="#deeffc"/>
        <rect x="165" y="118" width="20" height="125.5" fill="#7986cb"/>
        <rect x="165" y="112" width="20" height="6" fill="#deeffc"/>
        <rect x="165" y="101" width="20" height="11" fill="#673ab7"/>
        <rect x="165" y="78" width="20" height="23" fill="#7986cb"/>
        <rect x="165" y="62" width="20" height="16" fill="#673ab7"/>
        <rect x="165" y="-16" width="20" height="78" fill="#7986cb"/>
      </g>
      <g>
        <rect x="275" y="273" width="20" height="10" fill="#dcedc8"/>
        <rect x="275" y="265" width="20" height="8" fill="#7986cb"/>
      </g>
      <g>
        <rect x="665" y="274" width="20" height="7.8"/>
        <rect x="665" y="241" width="20" height="33" fill="#4a148c"/>
        <rect x="665" y="215" width="20" height="26" fill="#673ab7"/>
        <rect x="665" y="160" width="20" height="55" fill="#7986cb"/>
      </g>
    </g>
  </g>
  <g id="Lines">
    <polyline points="819.347 219.019 891.637 217.263 863.881 210.288 940.8 208.767 910.206 202 975.395 200.417 952.313 194.157 1013.529 194.157" fill="none" stroke="#ccc" stroke-width="0.75"/>
    <path d="M477.211,177.539s34.891.725,46.032,1.33c22.632,1.229,60.03,7.42,60.03,7.42L568.963,176.1l51.534,7.55-13.306-8.413,51.552,9.3" fill="none" stroke="#ccc" stroke-width="0.75"/>
    <polyline points="310 273 409.413 265 387.163 257.908 499.343 250.988 489.505 245.792 538.279 242.198 521.121 236.257 595.417 233.475 571.178 227.346 618.15 223.256" fill="none" stroke="#ccc" stroke-width="0.5"/>
    <path d="M488.8,138.6l-14.6-6.3,40.7-2.3" fill="none" stroke="#ccc" stroke-width="0.75"/>
    <path d="M2.6,118H156.1c111,0,260.8,12.2,347.5,21,148.7,15.2,200.2,65.2,305.8,78.2,105.9,13,218,12.834,218,12.834l-9.747-3.96,47.73,1.433-7.93-4.884,42.75,1.577" fill="none" stroke="#ccc" stroke-width="0.75"/>
    <path d="M1198.006,146.3l.567,145.206" fill="none" stroke="#ccc" stroke-width="0.75"/>
    <path d="M716.631,208.236l48.542.383" fill="none" stroke="#ccc" stroke-width="0.75"/>
    <g>
      <path d="M843.7,231.2l40.362-7.709" fill="none" stroke="#ccc" stroke-width="0.75"/>
      <path d="M940.8,160c44.9,7.8,122.7,25.4,165.6,29.6s101.7,8.7,101.7,8.7" fill="none" stroke="#ccc" stroke-width="0.75"/>
      <path d="M2.6,101H156.1l214.848,6.974-17-7.1s103.644,2.784,175.418,16.033L483.5,102.392s105.066,16.551,128.725,20.3" fill="none" stroke="#ccc" stroke-width="0.75"/>
      <path d="M512.657,89.946c69.892,13.6,119.1,21.86,119.1,21.86s-27.311-8.969-45.011-14.669l81.393,14.013L634.8,99.3l76.992,7.706" fill="none" stroke="#ccc" stroke-width="0.75"/>
      <path d="M1233.6,211.4c-67.1-10.8-94.1,0-264.6-40.8-34.5-8.3-86.6-12-115.9-16.7-78.5-12.5-179.7-14.8-281.4-38.9C505.9,99.4,419.4,83,326.2,82.8,281.1,82.7,145.5,78,145.5,78L7.394,79.628l64.283-5.2L47.7,70l95.823-2.426-6.872-4.835S163.8,61.9,177.8,62c44.7.4,156.879,7.612,156.879,7.612l-21.7-5.819S429.7,67.1,496.2,84.2c12.1,3.1,65.6,19.2,79.3,22.3,121,27.8,166,27.8,233,36.8,23.2,3.1,132.3,16.7,132.3,16.7" fill="none" stroke="#ccc" stroke-width="0.75"/>
      <path d="M441.3,126.537,414.107,118c28.682,1.873,66.393,4.6,96.193,6.8s148.8,23.3,170.1,26.3c21.4,2.9,136.291,11.311,172.742,15,67.837,6.865,107.833,13.051,107.833,13.051l-7.811-5.55c87.872,20.557,142.4,27.683,157.56,29.9l-18.4-8.345" fill="none" stroke="#ccc" stroke-width="0.75"/>
      <polyline points="1102.88 190.103 1079.996 181.338 1141.804 188.377 1132.45 181.824 1174.7 185.5 1165.5 180 1203.1 183.1" fill="none" stroke="#ccc"/>
      <path d="M2.6,3.27l131.967-.393C368.167,2.877,462.7,34.3,617.7,82c142,43.7,226,55.5,422.8,74,118.6,11.1,193.2,18.6,193.2,18.6" fill="none" stroke="#111" stroke-width="2"/>
    </g>
    <polyline points="977.4 279 998.3 272 981.7 265.4" fill="none" stroke="#ccc" stroke-width="0.75"/>
    <path d="M711.792,138.464s20.51-2.582,37.11-2.582" fill="none" stroke="#ccc" stroke-width="0.75"/>
    <g>
      <path d="M2.6,122.8,161,122h39c118.8,2.6,274.7,16.1,336.4,28.5,105,21.1,110.1,33.1,138.6,43.7,69.2,25.8,194.8,37,194.8,37" fill="none" stroke="#111"/>
      <path d="M2.6,112H200c119.1,0,208,13,302.3,18,49.5,5.8,150.5,23.2,172.7,25,56.6,4.6,197.3,20.3,290.7,31,81.4,9.3,118.2,43.5,166.7,45.2,73.2,2.5,149.1,4,149.1,4" fill="none" stroke="#111" stroke-width="1.5"/>
      <path d="M2.6,272H200c35,0,35,1,70,1h40c175,0,175,1,350,1l155.6,1.9h392.5" fill="none" stroke="#b90000" stroke-width="2"/>
      <path d="M2.6,202H200c346.4.8,400.105,15.149,474,39,56.347,17.884,125.6,27.4,125.6,27.4,50.1,2.7,405.932,2.044,405.932,2.044" fill="none" stroke="#ccc" stroke-width="1.5"/>
      <path d="M980.77,234.183l38.13,8.017L918,241.845l31.5,8.6-131.408-1.389,19.7,5.572s-61.694-2.41-96.894-6.31L770.53,257.4s-41.957-6.36-55.278-8.339C681.848,244.1,671,241,671,241" fill="none" stroke="#ccc" stroke-width="0.75"/>
      <polyline points="232.338 203.5 323.207 195.923 307.412 192.52 377.745 187.655 359.116 183.486 416.45 181.36 398.036 177.073 464.075 174.6" fill="none" stroke="#ccc" stroke-width="0.75"/>
      <polyline points="782.8 283.5 738 272 768 272 748.4 268.4 799.6 265.4" fill="none" stroke="#ccc" stroke-width="0.75"/>
      <path d="M47.7,343.6S2.5,308.7,4,306.4s-6.2,10.9,0-30.1v-288" fill="none" stroke="#fcc" stroke-width="1.5"/>
    </g>
    <path d="M1208.1,241l-161-5.8H954a19.242,19.242,0,0,1-4.5,0C821.8,229,745.7,224.9,675,215c-24.4-3.4-62.5-19.6-99.6-23.8C444.7,176.3,536.4,171,200,166H2.6" fill="none" stroke="#b90000" stroke-width="1.5"/>
  </g>
  <g id="Facies">
    <text transform="translate(1132.415 222.312)" font-size="4" font-family="ArialMT, Arial" style="isolation: isolate">fc</text>
    <text transform="translate(356.011 242.066)" font-size="12" font-family="ArialMT, Arial" style="isolation: isolate">sh</text>
    <text transform="translate(303.771 185.992)" font-size="12" font-family="ArialMT, Arial" style="isolation: isolate">sh</text>
    <text transform="translate(332.527 151.005)" font-size="12" font-family="ArialMT, Arial" style="isolation: isolate">sh</text>
    <text transform="translate(583.834 160.077)" font-size="8.316" font-family="ArialMT, Arial" style="isolation: isolate">sh</text>
    <text transform="translate(688.169 212.831)" font-size="12" font-family="ArialMT, Arial" style="isolation: isolate">or</text>
    <text transform="translate(641.177 257.5)" font-size="12" font-family="ArialMT, Arial" style="isolation: isolate">or</text>
    <text transform="translate(1010.292 216.648)" font-size="12" font-family="ArialMT, Arial" style="isolation: isolate">or</text>
    <text transform="translate(617.658 216.648)" font-size="12" font-family="ArialMT, Arial" style="isolation: isolate">mc</text>
    <text transform="translate(329.336 122.837)" font-size="8" font-family="ArialMT, Arial" style="isolation: isolate">p</text>
    <text transform="translate(468.376 51.718)" font-size="12" font-family="ArialMT, Arial" style="isolation: isolate">sh</text>
    <text transform="translate(322.835 94.945)" font-size="12" font-family="ArialMT, Arial" style="isolation: isolate">sh</text>
    <text transform="translate(1014.266 169)" font-size="12" font-family="ArialMT, Arial" style="isolation: isolate">mc</text>
    <text transform="translate(796.314 220.621)" font-size="6.551" font-family="ArialMT, Arial" style="isolation: isolate">or</text>
    <text transform="translate(768.8 191.7)" font-size="8.316" font-family="ArialMT, Arial" style="isolation: isolate">sh</text>
    <text transform="translate(1070.907 232.2)" font-size="8" font-family="ArialMT, Arial" style="isolation: isolate">mc</text>
    <text transform="translate(907.006 273.95)" font-size="4" font-family="ArialMT, Arial" style="isolation: isolate">mc</text>
    <text transform="translate(1048.806 273.942)" font-size="4" font-family="ArialMT, Arial" style="isolation: isolate">fc</text>
    <text transform="translate(1149.346 202.068)" font-size="3" font-family="ArialMT, Arial" style="isolation: isolate">fc</text>
    <text transform="translate(597.678 133.57)" font-size="12" font-family="ArialMT, Arial" style="isolation: isolate">mc</text>
    <text transform="translate(456.8 88.197)" font-size="12" font-family="ArialMT, Arial" style="isolation: isolate">mc</text>
    <text transform="translate(982.261 249.061)" font-size="4" font-family="ArialMT, Arial" style="isolation: isolate">fc</text>
    <text transform="translate(1178.2 191.761)" font-size="4" font-family="ArialMT, Arial" style="isolation: isolate">fc</text>
  </g>
</svg>
