<?xml version="1.0" encoding="utf-8"?>
<!-- Generator: Adobe Illustrator 25.2.3, SVG Export Plug-In . SVG Version: 6.00 Build 0)  -->
<svg version="1.1" id="Layer_1" xmlns="http://www.w3.org/2000/svg" xmlns:xlink="http://www.w3.org/1999/xlink" x="0px" y="0px"
	 width="1235.2px" height="343.8px" viewBox="0 0 1235.2 343.8" enable-background="new 0 0 1235.2 343.8" xml:space="preserve">
<g id="Layer_1-2">
	<g>
		<g>
			<rect x="158.6" y="172.5" fill="#DEEFFC" width="20" height="70.7"/>
			<rect x="158.6" y="162.5" fill="#4DB6AC" width="20" height="10"/>
			<rect x="158.6" y="145.5" fill="#DCEDC8" width="20" height="17"/>
			<rect x="158.6" y="143.8" fill="#4DB6AC" width="20" height="1.7"/>
			<rect x="158.6" y="136.9" fill="#DCEDC8" width="20" height="6.9"/>
			<rect x="158.6" y="135.5" fill="#4DB6AC" width="20" height="1.4"/>
			<rect x="158.6" y="133.5" fill="#64B0AD" width="20" height="2"/>
			<rect x="158.6" y="133" fill="#4DB6AC" width="20" height="0.5"/>
			<rect x="158.6" y="132.5" fill="#DCEDC8" width="20" height="0.5"/>
			<rect x="158.6" y="120.5" fill="#4DB6AC" width="20" height="12"/>
			<rect x="158.6" y="115.5" fill="#64B0AD" width="20" height="5"/>
			<rect x="158.6" y="110" fill="#4DB6AC" width="20" height="5.5"/>
			<rect x="158.6" y="108.3" fill="#64B0AD" width="20" height="1.7"/>
			<rect x="158.6" y="100.5" fill="#4DB6AC" width="20" height="7.8"/>
			<rect x="158.6" y="80.5" fill="#BBDEFB" width="20" height="20"/>
			<rect x="158.6" y="58.5" fill="#4DB6AC" width="20" height="22"/>
			<rect x="158.6" y="27.5" fill="#BBDEFB" width="20" height="31"/>
			<rect x="158.6" y="25.5" fill="#4DB6AC" width="20" height="2"/>
			<rect x="158.6" y="21.9" fill="#BBDEFB" width="20" height="3.6"/>
			<rect x="158.6" y="15" fill="#7986CB" width="20" height="6.9"/>
			<rect x="158.6" y="6.5" fill="#C22762" width="20" height="8.5"/>
			<rect x="158.6" y="6" fill="#DCEDC8" width="20" height="0.5"/>
		</g>
		<g>
			<rect x="271.9" y="191.2" fill="#DEEFFC" width="20" height="39.7"/>
			<rect x="271.9" y="172.9" fill="#4DB6AC" width="20" height="18.3"/>
			<rect x="271.9" y="154.9" fill="#DCEDC8" width="20" height="18"/>
			<rect x="271.9" y="136.4" fill="#64B0AD" width="20" height="18.5"/>
			<rect x="271.9" y="130.4" fill="#DCEDC8" width="20" height="6"/>
			<rect x="271.9" y="128.9" fill="#4DB6AC" width="20" height="1.5"/>
			<rect x="271.9" y="127.4" fill="#DCEDC8" width="20" height="1.5"/>
			<rect x="271.9" y="124.3" fill="#4DB6AC" width="20" height="3.1"/>
			<rect x="271.9" y="117.3" fill="#DCEDC8" width="20" height="7.1"/>
			<rect x="271.9" y="108.9" fill="#4DB6AC" width="20" height="8.3"/>
			<rect x="271.9" y="87.9" fill="#BBDEFB" width="20" height="21"/>
			<rect x="271.9" y="60.4" fill="#64B0AD" width="20" height="27.5"/>
			<rect x="271.9" y="54.4" fill="#DCEDC8" width="20" height="6"/>
			<rect x="271.9" y="22.9" fill="#BBDEFB" width="20" height="31.5"/>
			<rect x="271.9" y="6.5" fill="#C22762" width="20" height="16.5"/>
		</g>
		<g>
			<rect x="678.6" y="293" fill="#BBDEFB" width="20" height="19.5"/>
			<rect x="678.6" y="285.1" fill="#4DB6AC" width="20" height="7.9"/>
			<rect x="678.6" y="261.5" fill="#BBDEFB" width="20" height="23.6"/>
			<rect x="678.6" y="244.5" fill="#4DB6AC" width="20" height="17"/>
			<rect x="678.6" y="225.5" fill="#BBDEFB" width="20" height="19"/>
			<rect x="678.6" y="214.5" fill="#4DB6AC" width="20" height="11"/>
			<rect x="678.6" y="202.5" fill="#BBDEFB" width="20" height="12"/>
			<rect x="678.6" y="193.5" fill="#DCEDC8" width="20" height="9"/>
			<rect x="678.6" y="187.5" fill="#BBDEFB" width="20" height="6"/>
			<rect x="678.6" y="157.5" fill="#DCEDC8" width="20" height="30"/>
			<rect x="678.6" y="148.5" fill="#4DB6AC" width="20" height="9"/>
			<rect x="678.6" y="129.3" fill="#64B0AD" width="20" height="19.2"/>
			<rect x="678.6" y="119" fill="#4DB6AC" width="20" height="10.3"/>
			<rect x="678.6" y="98.5" fill="#DCEDC8" width="20" height="20.5"/>
			<rect x="678.6" y="91.5" fill="#BBDEFB" width="20" height="7"/>
			<rect x="678.6" y="90.5" fill="#DCEDC8" width="20" height="1"/>
			<rect x="678.6" y="75.5" fill="#4DB6AC" width="20" height="15"/>
			<rect x="678.6" y="73" fill="#DCEDC8" width="20" height="2.5"/>
			<rect x="678.6" y="39.5" fill="#BBDEFB" width="20" height="33.5"/>
			<rect x="678.6" y="35.1" fill="#DEEFFC" width="20" height="4.4"/>
			<rect x="678.6" y="25.8" fill="#7986CB" width="20" height="9.3"/>
			<rect x="678.6" y="22.4" fill="#DEEFFC" width="20" height="3.4"/>
			<rect x="678.6" y="20.2" fill="#7986CB" width="20" height="2.2"/>
			<rect x="678.6" y="18.6" fill="#DEEFFC" width="20" height="1.6"/>
			<rect x="678.6" y="6.5" fill="#7986CB" width="20" height="12.1"/>
		</g>
	</g>
</g>
<g id="Facies">
	<text transform="matrix(1 0 0 1 330.494 189.073)" font-family="'ArialMT'" font-size="12px">cc</text>
	<text transform="matrix(1 0 0 1 291.938 285.09)" font-family="'ArialMT'" font-size="12px">none</text>
	<text transform="matrix(1 0 0 1 1102.306 207.154)" font-family="'ArialMT'" font-size="12px">fc</text>
	<text transform="matrix(1 0 0 1 748.417 282.645)" font-family="'ArialMT'" font-size="12px">sub</text>
	<text transform="matrix(1 0 0 1 637.1 213.08)" font-family="'ArialMT'" font-size="12px">sub</text>
	<text transform="matrix(1 0 0 1 418.766 243.19)" font-family="'ArialMT'" font-size="12px">p</text>
	<text transform="matrix(1 0 0 1 603.2 190.49)" font-family="'ArialMT'" font-size="4px">sh</text>
	<text transform="matrix(1 0 0 1 766.045 182.08)" font-family="'ArialMT'" font-size="12px">fc</text>
	<text transform="matrix(1 0 0 1 767.654 114)" font-family="'ArialMT'" font-size="12px">fc</text>
	<text transform="matrix(1 0 0 1 638.802 52.609)" font-family="'ArialMT'" font-size="12px">sub</text>
	<text transform="matrix(1 0 0 1 182.768 109.99)" font-family="'ArialMT'" font-size="12px">cc</text>
	<text transform="matrix(1 0 0 1 311.2713 144)" font-family="'ArialMT'" font-size="8px">cc</text>
	<text transform="matrix(1 0 0 1 312.675 70.06)" font-family="'ArialMT'" font-size="8px">cc</text>
	<text transform="matrix(1 0 0 1 195.162 22.286)" font-family="'ArialMT'" font-size="2px">sub</text>
	<text transform="matrix(1 0 0 1 885.887 27.599)" font-family="'ArialMT'" font-size="7px">sh</text>
	<text transform="matrix(1 0 0 1 781.524 13.701)" font-family="'ArialMT'" font-size="5px">sh</text>
	<text transform="matrix(1 0 0 1 187.018 18.6)" font-family="'ArialMT'" font-size="4px">sh</text>
	<text transform="matrix(1 0 0 1 912.532 9.744)" font-family="'ArialMT'" font-size="12px">none</text>
	<text transform="matrix(1 0 0 1 1150.975 172.362)" font-family="'ArialMT'" font-size="12px">fc</text>
	<text transform="matrix(1 0 0 1 710.697 84.602)" font-family="'ArialMT'" font-size="12px">cc</text>
	<text transform="matrix(1 0 0 1 187.301 141.383)" font-family="'ArialMT'" font-size="5.283px">fc</text>
	<text transform="matrix(1 0 0 1 628.9845 253.0004)" font-family="'ArialMT'" font-size="12px">cc</text>
	<text transform="matrix(1 0 0 1 597.1 218.1576)" font-family="'ArialMT'" font-size="8px">cc</text>
	<text transform="matrix(1 0 0 1 665.226 289.709)" font-family="'ArialMT'" font-size="7px">cc</text>
	<text transform="matrix(1 0 0 1 1181.127 140.2)" font-family="'ArialMT'" font-size="12px">fc</text>
	<text transform="matrix(1 0 0 1 289.683 96.008)" font-family="'ArialMT'" font-size="9px">sub</text>
	<text transform="matrix(1 0 0 1 1178.032 99.351)" font-family="'ArialMT'" font-size="6px">fc</text>
	<text transform="matrix(1 0 0 1 1184.77 85.737)" font-family="'ArialMT'" font-size="6px">fc</text>
	<text transform="matrix(1 0 0 1 195.1 160.2)" font-family="'ArialMT'" font-size="5.283px">fc</text>
	<text transform="matrix(1 0 0 1 43.009 134.7)" font-family="'ArialMT'" font-size="5.283px">cc</text>
	<text transform="matrix(1 0 0 1 65.885 20.532)" font-family="'ArialMT'" font-size="4px">cc</text>
	<text transform="matrix(1 0 0 1 271.938 19.8)" font-family="'ArialMT'" font-size="6px">rework</text>
	<text transform="matrix(1 0 0 1 300.195 10.95)" font-family="'ArialMT'" font-size="6px">rework</text>
	<text transform="matrix(1 0 0 1 1011.309 72)" font-family="'ArialMT'" font-size="12px">fc</text>
	<text transform="matrix(1 0 0 1 723.923 309.84)" font-family="'ArialMT'" font-size="12px">sub</text>
	<text transform="matrix(1 0 0 1 1151.1887 316.4001)" font-family="'ArialMT'" font-size="12px">fc</text>
	<text transform="matrix(1 0 0 1 1151.082 231.628)" font-family="'ArialMT'" font-size="12px">fc</text>
	<text transform="matrix(1 0 0 1 648.413 237.856)" font-family="'ArialMT'" font-size="12px">sub</text>
	<text transform="matrix(1 0 0 1 658.889 278.687)" font-family="'ArialMT'" font-size="10px">sub</text>
	<text transform="matrix(1 0 0 1 1006.7895 306.3338)" font-family="'ArialMT'" font-size="4px">cc</text>
	<text transform="matrix(1 0 0 1 951.902 265.627)" font-family="'ArialMT'" font-size="12px">fc</text>
	<text transform="matrix(1 0 0 1 674.345 170.748)" font-family="'ArialMT'" font-size="2px">fc</text>
	<text transform="matrix(1 0 0 1 681.586 164.059)" font-family="'ArialMT'" font-size="2px">fc</text>
	<text transform="matrix(1 0 0 1 626.398 71.433)" font-family="'ArialMT'" font-size="12px">sub</text>
	<text transform="matrix(1 0 0 1 237.159 72.3298)" font-family="'ArialMT'" font-size="2px">fc</text>
</g>
<g id="Lines">
	<path fill="none" stroke="#CCCCCC" stroke-width="0.5" d="M242.95,15.4c11.1-1.1,117.2-0.9,117.2-0.9"/>
	<path fill="none" stroke="#B90000" d="M1020.535,236.83c0,0-291.7-8.69-337.585-10.93c-42.6-0.507-358.1-35.1-406.7-42.4
		c-29.9-4.5-50.8-6.9-113.3-10.5H-4.45"/>
	<path fill="none" stroke="#CCCCCC" stroke-width="0.75" d="M975.858,208.725L833.85,213.9l10.96,2.559l-121.059-3.302l8.699,3.302
		L691.55,215h-40c-47.118-2.404-102.407-10.38-151.637-15.509c-34.738-3.619-66.914-6.286-89.363-10.097
		c-31.824-5.403-128.646-15.434-128.646-15.434l-33.081-2.06c0,0-65.571-3.43-145.942-5.207c0,0,27.241-1.094,75.141,0.506
		c77.531,2.595,194.066,7.377,223.878,8.431l50.237-1.158"/>
	<path fill="none" stroke="#CCCCCC" d="M335.339,111.419l147.807-4.046l-11.437-3.751l128.441-0.115l-16.068-4.8
		c56.8-0.6,75.614-0.218,102.168-0.2c0,0,157.2-0.15,231.8,1.75L900.45,97l97.659-1.142"/>
	<polyline fill="none" stroke="#CCCCCC" stroke-width="3" points="-1.85,5 146.45,5 191.45,5 	"/>
	<path fill="none" stroke="#CCCCCC" stroke-width="3" d="M191.45,5h110"/>
	<path fill="none" stroke="#CCCCCC" stroke-width="3" d="M301.45,5h365l538.2,12.1"/>
	<path fill="none" d="M2.15,286.3L-0.35-9.4l1195.8,7.8V318h-1035C138.35,309.8,2.55,303.2,2.15,286.3z"/>
	<path fill="none" stroke="#CCCCCC" stroke-width="0.5" d="M-2.35,7.5c0,0,56.5,0.2,76,0.8c18.2,0.6,47.1,6.4,77,6.4
		c47.3,0,51.115-3.142,125.815-3.142c53.4,0,426.75,1.192,484.45,0.992l-12.5,4.55"/>
	<path fill="none" stroke="#CCCCCC" stroke-width="0.75" d="M98.15,9.7l-93.7,1.6l108.4,4.4l-25.8,2.25c0,0,35.1,2.85,51.7,3.45
		c13.6,0.5,57.417-0.415,71.285-1.906L197.65,17.2l43.9-5.5"/>
	<polyline fill="none" stroke="#CCCCCC" stroke-width="0.75" points="348.15,12.4 450.55,9.3 416.35,8.1 496.85,3.7 	"/>
	<path fill="none" stroke="#CCCCCC" d="M632.411,12.55l-16.161,4l123.9,1.35l-4.75,1.5l-140.247,0.4l17.45,1.86l199.05,1.682
		L708.25,25.5L535,26.966l26.85,3.217l-55.5,3.117l436.2,4.5l67.4,0.7l59.817,0.3l-98.236,3.53l10.219,3.762L654.95,46.3l58.6,1.591
		l467.679,5.72l-55.659,3.531l22.316,3.286c0,0-464.5-0.719-569.686-1.661c-38.043,0-137.578-10.208-137.578-10.208l-21,0.84
		c12.812,0.514,101.845,13.212,183.7,13.212c74.163,0,294.606,2.14,294.606,2.14l-87.077,2.955l9.818,3.869L692,73
		c-24.3,0.269-165.087-2.323-185.65-2.939S424.651,59.188,384.029,57.4l-103.557-2.641L238.037,54.4l8.413,3.675l-67.7,0.025
		l-32.3,0.3L49.25,61"/>
	<polyline fill="none" stroke="#CCCCCC" points="1204.65,81 1090.95,80 1012.25,80.6 1184.45,86.7 906.85,82.8 1056.55,91.1 
		825.15,87.5 1155.85,100.1 	"/>
	<path fill="none" stroke="#CCCCCC" stroke-width="0.5" d="M-5.65,15.7c0,0,40.4,0,53.9,0.7c9.4,0.5,32.14,1.262,32.14,1.262
		l-6.7,2.138c0,0,48.567,3.4,64.667,3.9c14.7,0.4,43.527-0.829,58.227-0.829c9.175,0.097,18.302-1.331,27.008-4.227
		c0,0-11.828-0.675-10.128-0.975c8.8-1.4,23.638-4.494,32.038-4.494c22.6,0,136.649-1.617,136.649-1.617"/>
	<path fill="none" stroke="#CCCCCC" d="M-4.35,60.4h300.435c10.766,0,36.786,0.685,62.65,1.375
		C394.417,62.727,478.427,74.5,503.291,74.5c12.152,0,108.5,0.642,163.3,0.642c33.6,0,533.158,0.858,533.158,0.858"/>
	<polyline fill="none" stroke="#CCCCCC" points="404.83,276.063 545.275,293 528.473,285.396 602.36,289.786 585.511,285.09 
		652.117,287.817 	"/>
	<path fill="none" stroke="#CCCCCC" d="M714.35,229.831l31.725-5.253L659.696,220h101.062l-7.494-3.541l103.667,1.699l-5.353-2.454
		l149.302-4.904c-53.8-1.5-259.629-7.8-334.429-7.9c-75.212-0.4-124.636-5.972-219.795-17.422l72.204,4.348l-1.988-2.807
		c0,0,101.267,7.41,149.478,6.981c56.239-0.5,118.638,1.782,118.638,1.782l-4.6-2.555l81.634,0.353c0,0-104.072-5.58-195.672-5.58
		s-187.544-12.37-226.2-12.37h0l-243.5-12.43l-4.7-0.3c-8.8-0.4-13.4-1-29.1-1c-38.1,0-167.3-0.8-167.3-0.8l-31.341-7.1l31.441-1.5
		h58.7l-21.9-2.7l86.648-1.354l-10.724-2.946c0,0-2.622,0.355,33.976,0.767C209,147.018,272.183,154.9,281.9,154.9
		c9.283,0,34.734,1.912,34.734,1.912l-6.2-2.812l56.082,0.9c3.7,0.2-179.768-9.5-203.568-10.7c-45-2.2-132.339-3.036-132.339-3.036
		h0.002l64.189-2.715l-11.58-2.463c24-0.7,65.33-0.086,65.33-0.086c38.8,0.3,59.618,2.664,79.412,5.264l24.252,2.077
		c16.386,0.692,77.5,5.279,106.068,6.084c13.553,0.381-41.321-6.507-29.617-6.063c19.485,0.738,166.375,3.082,259.373,7.26
		c34,1.528,65.4,6.251,78.412,6.544c58.7,1.034,58.7,1.034,58.7,1.034v0l0,0c0,0,120.5,4.133,110.9,3.333
		c-10-0.8-33.276-4.733-33.276-4.733l149.126,4.556l-38.578-5.1L1025.1,157.5l69.8-3.2L651.45,143c-175,0-375.2-6.8-375.2-6.8
		c-45.2-1.6-85.4-12-113.3-12.4l-167.3-3"/>
	<path fill="none" stroke="#CCCCCC" d="M115.75,124.3l-24.3-3.5h71.6c22.2,0,84.3,9.6,115.6,9.6c31.2,0,372.656,6.7,406.6,7.9
		c27.6,1,150.8,2.7,150.8,2.7l9.2-2.2l-162.3-4.3l-170.458-6.051l-65.942-1.984l43.817-2.315c0,0,185.583,5.45,192.583,5.55
		c41.2,0.6,124.8,1.4,124.8,1.4l141.03-0.05l-23.721-4.217l160-2.683l-29.04-0.65c0,0-330.769-2.4-373.069-3.5
		c-37-1-124.4-3.8-162.1-5.8c-37.4-2-244.5-5.3-244.5-5.3c-31.3-1.4-85.7-7.9-114.3-9.6c-41.6-2.5-166.4-3.7-166.4-3.7"/>
	<path fill="none" stroke="#CCCCCC" stroke-width="1.5" d="M654.385,223.653L583.85,223.3c0,0,48.3,5.1,85.1,8.1
		s269.578,12.246,269.578,12.246l-77.078,0.622l14.65,5.33c0,0-149.85-7.074-193.15-7.274c-43.3-0.1-85.25-5.494-85.25-5.494
		l21.332,5.744l-90.71-8.973l25.385,7.623L336.75,210.8c0,0,245.8,44.7,346.2,50.6s296.8,17.2,296.8,17.2l35.15,1.717l183.202,8.462
		h-137.068l17.986,6.915l-93.237,0.77l17.509,7.094l-129.889-5.25l3.068,5.752c-91.2-6.7-157.32-16.46-191.52-18.46
		c-51.8-3-260.1-36.275-332-50.175"/>
	<path fill="none" stroke="#CCCCCC" stroke-width="1.5" d="M352.95,235c51.176,14.69,282,54.1,335.65,58
		c109.4,12.4,137.28,13.623,137.28,13.623l136.344,19.01l-40.395,3.487l-9.297,7.477l-161.149,15.019L640.35,331.3
		c-7.1,0-132.4-35.5-240.3-58S270.45,245,129.85,245H-4.35"/>
	<path fill="none" stroke="#CCCCCC" stroke-width="0.75" d="M745.68,266.019l20.472-2.58l-100.646-7.494l94.342,2.126
		l-115.885-6.812l23.304-0.526l57.028,1.89l-3.523-1.777l29.664,0.144l-71.836-4.647l-14.148-1.909L877.392,253l29.8,1.649
		l-13.278-5.23l110.763-2.484l-23.77-1.359l-63.229-2.296"/>
	<polyline fill="none" stroke="#CCCCCC" stroke-width="0.75" points="441.465,252.342 499.049,254.253 486.22,250.333 
		567.187,255.931 552.937,251.568 617.466,252.578 	"/>
	<polyline fill="none" stroke="#CCCCCC" stroke-width="1.5" points="1198.102,288.779 1239.42,289.709 1089.072,292.951 
		1132.84,299.361 1018.463,300.984 1030.316,307.546 890.967,306.124 894.052,310.459 821.463,306.901 	"/>
	<polygon fill="none" stroke="#CCCCCC" stroke-width="0.75" points="591.238,168.785 740.072,173.474 759.009,171.195 
		742.777,170.853 566.233,165.397 	"/>
	<polygon fill="none" stroke="#CCCCCC" stroke-width="0.75" points="679.053,164.488 827.887,169.177 846.824,166.898 
		830.592,166.556 654.048,161.1 	"/>
	<line fill="none" stroke="#CCCCCC" x1="549.471" y1="189.826" x2="597.42" y2="185.478"/>
	<polyline fill="none" stroke="#CCCCCC" points="1047.497,39.306 1126.793,37.517 1089.543,31.546 1193.674,27.676 1156.649,20.985 
			"/>
	<polyline fill="none" stroke="#CCCCCC" points="483.146,206.871 404.955,202.5 561.337,223.798 457.395,216.459 472.148,221.882 
		386.517,218.158 	"/>
	<path fill="none" stroke="#B90000" stroke-width="2" d="M-4.35,18.4c0,0,44.5-1.9,57.2,1.4c22.3,5.7,55.8,7,80.3,7.7
		c14.5,0.4,58.3-0.5,58.3-0.5c35,0,44.3-11.6,51.5-11.6c14,0,16.1,7.7,33.3,7.7c11.1,0,21.5-5.2,29.1-5.2c8.2,0,13.1,5.1,26.5,5.1
		c9.1,0,20.7-8.5,28.3-8.5c147.9-0.3,156.3,0,322.8,0l521.7,8.5"/>
	<path fill="none" stroke="#B90000" stroke-width="1.5" d="M-4.35,78c0,0,126.6,0.7,168.8,2.5c24.1,1,69.9,6.6,96,7.4
		c12.8,0.4,32.2-1,42.6-0.8c170.9,1.9,192.2,2.3,348.4,2.9c0,0,187.3,0.3,290.9,5c36.3,1.6,200.4,4.4,218.4,4.4"/>
	<path fill="none" stroke="#CCCCCC" d="M147.219,68.2c9.461,0.181,17.472-0.51,37.844,0.742c25.284,1.554,55.034,4.98,61.387,5.54
		C257.216,75.433,266.2,76,281.9,76h36.227l42.023-1.85c0,0-79.989-0.604-91.483-1.127s-56.445-7.028-85.419-7.203
		s-72.44-0.078-72.44-0.078S138.097,68.026,147.219,68.2z"/>
	<line fill="none" stroke="#CCCCCC" stroke-width="3" x1="1199.749" y1="10.121" x2="1198.102" y2="90.05"/>
	<line fill="none" stroke="#CCCCCC" x1="979.016" y1="210.281" x2="1239.42" y2="216.459"/>
	<line fill="none" stroke="#CCCCCC" x1="1072.442" y1="153.818" x2="1242.105" y2="157.462"/>
</g>
</svg>
