<?xml version="1.0" encoding="utf-8"?>
<!-- Generator: Adobe Illustrator 24.0.0, SVG Export Plug-In . SVG Version: 6.00 Build 0)  -->
<svg version="1.1" id="Layer_1" xmlns="http://www.w3.org/2000/svg" xmlns:xlink="http://www.w3.org/1999/xlink" x="0px" y="0px"
	 width="1200px" height="303px" viewBox="0 0 1200 303" enable-background="new 0 0 1200 303" xml:space="preserve">
<g id="Layer_1_1_">
	<g>
		<g transform="translate(165, 5)">
			<g>
				<g>
					<rect y="151" fill="#C22762" width="20" height="8.5"/>
					<rect y="111.7" fill="#DCEDC8" width="20" height="39.3"/>
					<rect y="102" fill="#BBDEFB" width="20" height="9.7"/>
					<rect y="99" fill="#7986CB" width="20" height="3"/>
					<rect y="95.8" fill="#BBDEFB" width="20" height="3.2"/>
					<rect y="95.2" fill="#7986CB" width="20" height="0.6"/>
					<rect y="94" fill="#DEEFFC" width="20" height="1.2"/>
					<rect y="91" fill="#C22762" width="20" height="3"/>
					<rect y="79" fill="#DEEFFC" width="20" height="12"/>
					<rect y="77" fill="#C22762" width="20" height="2"/>
					<rect y="75" fill="#BBDEFB" width="20" height="2"/>
					<rect y="73" fill="#C22762" width="20" height="2"/>
					<rect y="63" fill="#BBDEFB" width="20" height="10"/>
					<rect y="61.5" fill="#C22762" width="20" height="1.5"/>
					<rect y="10" fill="#DCEDC8" width="20" height="51.5"/>
					<rect y="9" fill="#BBDEFB" width="20" height="1"/>
					<rect y="5.3" fill="#7986CB" width="20" height="3.7"/>
					<rect y="0" fill="#DCEDC8" width="20" height="5.3"/>
					<rect y="-4.5" fill="#7986CB" width="20" height="4.5"/>
				</g>
			</g>
		</g>
		<g transform="translate(275, 5)">
			<g>
				<g>
					<rect y="176" fill="#DEEFFC" width="20" height="6.5"/>
					<rect y="126" fill="#DCEDC8" width="20" height="50"/>
					<rect y="109" fill="#BBDEFB" width="20" height="17"/>
					<rect y="101" fill="#4DB6AC" width="20" height="8"/>
					<rect y="100.2" fill="#BBDEFB" width="20" height="0.8"/>
					<rect y="95" fill="#4DB6AC" width="20" height="5.2"/>
					<rect y="62" fill="#7986CB" width="20" height="33"/>
					<rect y="18" fill="#DCEDC8" width="20" height="44"/>
					<rect y="10" fill="#7986CB" width="20" height="8"/>
					<rect y="0" fill="#DCEDC8" width="20" height="10"/>
					<rect y="-8" fill="#7986CB" width="20" height="8"/>
				</g>
			</g>
		</g>
		<g transform="translate(665, 5)">
			<g>
				<g>
					<rect y="258" width="20" height="2.4"/>
					<rect y="213.5" fill="#DCEDC8" width="20" height="44.5"/>
					<rect y="211" fill="#7986CB" width="20" height="2.5"/>
					<rect y="177" fill="#DCEDC8" width="20" height="34"/>
					<rect y="160" fill="#7986CB" width="20" height="17"/>
					<rect y="88" fill="#DCEDC8" width="20" height="72"/>
					<rect y="61.4" fill="#7986CB" width="20" height="26.6"/>
					<rect y="59.5" fill="#DEEFFC" width="20" height="1.9"/>
					<rect y="16" fill="#DCEDC8" width="20" height="43.5"/>
					<rect y="11" fill="#7986CB" width="20" height="5"/>
					<rect y="0" fill="#DCEDC8" width="20" height="11"/>
					<rect y="-8.6" fill="#4A148C" width="20" height="8.6"/>
				</g>
			</g>
		</g>
	</g>
</g>
<g id="Lines">
	<g>
		<path fill="none" stroke="#CCCCCC" d="M0,115h173.5c35,0,75.6,9,111.5,11.4C398.3,134,522.5,199,675,216
			c23.5,2.6,101.3,19.1,101.3,19.1"/>
		<path fill="none" stroke="#FFCCCC" stroke-width="3" d="M0,83.5h200c35,0,35,1.5,70,1.5h40l0,0c176.4,1.5,175.1,0.9,350,6
			c76.8,2.3,307,18,307,18"/>
		<path fill="none" stroke="#FFCCCC" stroke-width="2" d="M0,107h175c35,0,71.4,4.4,106,7h29l0,0c176.8,10.6,267.4,58.8,365,68
			c20.9,2,215.5,25.5,215.5,25.5"/>
		<path fill="none" stroke="#FFCCCC" stroke-width="3" d="M0,5h160h40c35,0,35,0,70,0h40l0,0c175,0,175,0,350,0h540"/>
		<path fill="none" stroke="#FFCCCC" stroke-width="1.5" d="M0,14.5L160,15h15c35,0,75,7,110,7l25,1l0,0c175,0,175-2,350-2h40"/>
		<polyline fill="none" stroke="#CCCCCC" points="1005.9,196.2 850.9,196.2 916.9,202 784.9,200 865,211.8 		"/>
		<path fill="none" stroke="#CCCCCC" stroke-width="3" d="M0,93.5h200c35,0,52.6-1.2,85-1.5c122.4-1,318.4,65.2,390,73.5
			c44.8,5.2,252.3,25.7,252.3,25.7l78.6,7"/>
		<polyline fill="none" stroke="#CCCCCC" stroke-width="0.75" points="920.4,15 698,20 689,23 		"/>
		<path fill="none" stroke="#CCCCCC" stroke-width="3" d="M0,10.3h160h15c35,0,74,4.6,109,4.6l26,0.1l0,0c175,0,175,1,350,1h260.4"
			/>
		<path fill="none" stroke="#CCCCCC" stroke-width="3" d="M0,66.5l160,0h40c35,0,35,0.5,70,0.5h40l0,0c175,0,373.9-2.1,429.3,2.2
			C917.5,83.1,1188,88.5,1188,88.5"/>
		<path fill="none" stroke="#CCCCCC" stroke-width="3" d="M0,146.4c0,0,135.5,3.1,175,9.6c58.7,9.8,77.4,18.9,110,25
			c122.3,22.9,218.5,58.4,390,82.2c135.4,18.8,527.5,45.1,527.5,45.1"/>
	</g>
	<polyline fill="none" stroke="#CCCCCC" points="369.9,100 403.4,100 382.5,94 426.5,95.5 397.6,91 475.4,85.9 	"/>
	<polyline fill="none" stroke="#CCCCCC" points="233.7,93.3 204.1,90 227.1,90 208.4,87.3 225,86.5 200,83.5 	"/>
	<path fill="none" stroke="#CCCCCC" d="M0,96.5h161c58.7,0,91.4,1.3,124,3.5c77.2,5.2,74,6.5,74,6.5c-17-1.1-29.1,0.1-29.1,0.1
		l24.9,3.4h-32.6l17.3,2.8l-18.9,2.8"/>
	<path fill="none" stroke="#CCCCCC" d="M0,99h161.2H175c77.8,0,80,11,110,15"/>
	<path fill="none" stroke="#CCCCCC" d="M305.2,129.5l32.4,1.5l-23.6-4.7l62.1,5.2l-49.1-8.7c0,0,10.6-0.3,97.2,10.7
		c-18.8-4.5-80.6-13.5-80.6-13.5s69.1,3,139.3,17.1"/>
	<path fill="none" stroke="#CCCCCC" d="M160,115"/>
	<path fill="none" stroke="#CCCCCC" d="M771,233.7c0,0-59.7-11.3-96-15.1c-152.5-15.9-289.4-79-390-87.5
		c-36.9-3.1-51.3-13.9-125-13.8L0,117.6"/>
	<polyline fill="none" stroke="#CCCCCC" points="452.7,171.3 470.1,172 490,174.2 	"/>
	<polyline fill="none" stroke="#CCCCCC" points="908.3,116.9 834.5,105.3 1034.3,103.5 962.2,97.7 1150.5,100.7 1073,92.4 
		1188,85.9 	"/>
	<line fill="none" stroke="#CCCCCC" stroke-width="3" x1="3.3" y1="-0.2" x2="3.3" y2="162.3"/>
	<line fill="none" stroke="#CCCCCC" stroke-width="3" x1="1198.4" y1="-0.1" x2="1198.4" y2="320.9"/>
</g>
<g id="Facies">
	<text transform="matrix(1 0 0 1 463.8912 80.4528)" font-family="'ArialMT'" font-size="12px">sh</text>
	<text transform="matrix(1 0 0 1 520.8488 114.0001)" font-family="'ArialMT'" font-size="12px">fc</text>
	<text transform="matrix(1 0 0 1 520.8489 164.9996)" font-family="'ArialMT'" font-size="12px">fc</text>
	<text transform="matrix(1 0 0 1 627.2168 240.75)" font-family="'ArialMT'" font-size="12px">fc</text>
	<text transform="matrix(1 0 0 1 190.8765 90.9077)" font-family="'ArialMT'" font-size="12px">p</text>
	<text transform="matrix(1 0 0 1 356.8018 96.084)" font-family="'ArialMT'" font-size="12px">sh</text>
	<text transform="matrix(1 0 0 1 429.4588 124.5003)" font-family="'ArialMT'" font-size="12px">sh</text>
	<text transform="matrix(1 0 0 1 302.5968 109.9999)" font-family="'ArialMT'" font-size="12px">cc</text>
	<text transform="matrix(1 0 0 1 326.2144 221.1296)" font-family="'ArialMT'" font-size="12px">none</text>
	<text transform="matrix(1 0 0 1 405.4708 13.1502)" font-family="'ArialMT'" font-size="12px">fc</text>
	<text transform="matrix(1 0 0 1 364.1347 21.9998)" font-family="'ArialMT'" font-size="8px">sh</text>
	<text transform="matrix(1 0 0 1 522.4595 188.8598)" font-family="'ArialMT'" font-size="4px">sh</text>
	<text transform="matrix(1 0 0 1 305.2092 122.5002)" font-family="'ArialMT'" font-size="12px">p</text>
	<text transform="matrix(1 0 0 1 299.6295 131.5148)" font-family="'ArialMT'" font-size="5px">p</text>
	<text transform="matrix(1 0 0 1 452.1722 55.2185)" font-family="'ArialMT'" font-size="12px">fc</text>
</g>
</svg>
