<svg class="_section-link-overlay_bc6dc sequence-link-overlay" width="1200" height="318" xmlns="http://www.w3.org/2000/svg" xmlns:xlink="http://www.w3.org/1999/xlink"><g class="section-links"><g><path d="M160,92.08000000000001l40,0M200,92.08000000000001C235,92.08000000000001,235,94.77000000000002,270,94.77000000000002l40,0" class="_section-link_bc6dc sequence-strat" stroke="#fcc" stroke-width="3" fill="none" style="cursor: pointer;"/><path d="M160,92.08000000000001l40,0M200,92.08000000000001C235,92.08000000000001,235,94.77000000000002,270,94.77000000000002l40,0M310,94.77000000000002C485,94.77000000000002,485,94.18,660,94.18l40,0" class="_section-link_bc6dc sequence-strat" stroke="#fcc" stroke-width="3" fill="none" style="cursor: pointer;"/></g><g><path d="M160,70l40,0M200,70C235,70,235,73.5,270,73.5l40,0" class="_section-link_bc6dc sequence-strat" stroke="#ccc" stroke-width="1" fill="none" style="cursor: pointer;"/></g><g><path d="M160,123l40,0M200,123C235,123,235,134,270,134l40,0" class="_section-link_bc6dc sequence-strat" stroke="#fcc" stroke-width="1.5" fill="none" style="cursor: pointer;"/><path d="M160,123l40,0M200,123C235,123,235,134,270,134l40,0M310,134C485,134,485,143,660,143l40,0" class="_section-link_bc6dc sequence-strat" stroke="#fcc" stroke-width="1.5" fill="none" style="cursor: pointer;"/></g><g><path d="M160,24l40,0M200,24C235,24,235,23,270,23l40,0" class="_section-link_bc6dc sequence-strat" stroke="#fcc" stroke-width="1.5" fill="none" style="cursor: pointer;"/><path d="M160,24l40,0M200,24C235,24,235,23,270,23l40,0M310,23C485,23,485,11.300000000000011,660,11.300000000000011l40,0" class="_section-link_bc6dc sequence-strat" stroke="#fcc" stroke-width="1.5" fill="none" style="cursor: pointer;"/></g><g><path d="M160,171l40,0M200,171C235,171,235,181.57,270,181.57l40,0" class="_section-link_bc6dc sequence-strat" stroke="#fcc" stroke-width="1.5" fill="none" style="cursor: pointer;"/><path d="M160,171l40,0M200,171C235,171,235,181.57,270,181.57l40,0M310,181.57C485,181.57,485,293.5,660,293.5l40,0" class="_section-link_bc6dc sequence-strat" stroke="#fcc" stroke-width="1.5" fill="none" style="cursor: pointer;"/></g><g><path d="M160,79l40,0M200,79C235,79,235,78,270,78l40,0" class="_section-link_bc6dc sequence-strat" stroke="#fcc" stroke-width="1.5" fill="none" style="cursor: pointer;"/><path d="M160,79l40,0M200,79C235,79,235,78,270,78l40,0M310,78C485,78,485,89,660,89l40,0" class="_section-link_bc6dc sequence-strat" stroke="#fcc" stroke-width="1.5" fill="none" style="cursor: pointer;"/></g><g><path d="M160,81.00000000000003l40,0M200,81.00000000000003C235,81.00000000000003,235,81,270,81l40,0" class="_section-link_bc6dc sequence-strat" stroke="#ccc" stroke-width="1" fill="none" style="cursor: pointer;"/><path d="M160,81.00000000000003l40,0M200,81.00000000000003C235,81.00000000000003,235,81,270,81l40,0M310,81C485,81,485,90,660,90l40,0" class="_section-link_bc6dc sequence-strat" stroke="#ccc" stroke-width="1" fill="none" style="cursor: pointer;"/></g><g><path d="M160,58.400000000000006l40,0M200,58.400000000000006C235,58.400000000000006,235,50.5,270,50.5l40,0" class="_section-link_bc6dc sequence-strat" stroke="#ccc" stroke-width="3" fill="none" style="cursor: pointer;"/><path d="M160,58.400000000000006l40,0M200,58.400000000000006C235,58.400000000000006,235,50.5,270,50.5l40,0M310,50.5C485,50.5,485,60.99999999999997,660,60.99999999999997l40,0" class="_section-link_bc6dc sequence-strat" stroke="#ccc" stroke-width="3" fill="none" style="cursor: pointer;"/></g><g><path d="M160,161l40,0M200,161C235,161,235,163,270,163l40,0" class="_section-link_bc6dc sequence-strat" stroke="#ccc" stroke-width="1.5" fill="none" style="cursor: pointer;"/><path d="M160,161l40,0M200,161C235,161,235,163,270,163l40,0M310,163C485,163,485,215,660,215l40,0" class="_section-link_bc6dc sequence-strat" stroke="#ccc" stroke-width="1.5" fill="none" style="cursor: pointer;"/></g><g><path d="M160,99.00000000000003l40,0M200,99.00000000000003C235,99.00000000000003,235,99.00000000000001,270,99.00000000000001l40,0" class="_section-link_bc6dc sequence-strat" stroke="#ccc" stroke-width="1.5" fill="none" style="cursor: pointer;"/><path d="M160,99.00000000000003l40,0M200,99.00000000000003C235,99.00000000000003,235,99.00000000000001,270,99.00000000000001l40,0M310,99.00000000000001C485,99.00000000000001,485,103.00000000000003,660,103.00000000000003l40,0" class="_section-link_bc6dc sequence-strat" stroke="#ccc" stroke-width="1.5" fill="none" style="cursor: pointer;"/></g><g><path d="M160,5l40,0M200,5C235,5,235,5,270,5l40,0" class="_section-link_bc6dc sequence-strat" stroke="#ccc" stroke-width="3" fill="none" style="cursor: pointer;"/><path d="M160,5l40,0M200,5C235,5,235,5,270,5l40,0M310,5C485,5,485,5,660,5l40,0" class="_section-link_bc6dc sequence-strat" stroke="#ccc" stroke-width="3" fill="none" style="cursor: pointer;"/></g></g><g class="sections"><g class="lithology-column" transform="translate(165, 5)"><defs><rect id="f81ecdf1-ecba-4a1a-85cb-32aa3c0a9076-frame" x="0" y="0" width="20" height="236.70000000000002"/><clipPath id="f81ecdf1-ecba-4a1a-85cb-32aa3c0a9076-clip"><use xmlns:xlink="http://www.w3.org/1999/xlink" xlink:href="#f81ecdf1-ecba-4a1a-85cb-32aa3c0a9076-frame" fill="transparent" class="frame"/></clipPath></defs><g clip-path="url(#f81ecdf1-ecba-4a1a-85cb-32aa3c0a9076-clip)" class="inner"><g class="facies_tract"><rect x="0" y="166" width="20" height="70.70000000000002" class="facies_tract 362" fill="#deeffc"/><rect x="0" y="156" width="20" height="10" class="facies_tract 377" fill="#4db6ac"/><rect x="0" y="139" width="20" height="17" class="facies_tract 381" fill="#dcedc8"/><rect x="0" y="137.3" width="20" height="1.6999999999999886" class="facies_tract 382" fill="#4db6ac"/><rect x="0" y="130.4" width="20" height="6.900000000000006" class="facies_tract 383" fill="#dcedc8"/><rect x="0" y="129" width="20" height="1.4000000000000057" class="facies_tract 386" fill="#4db6ac"/><rect x="0" y="127" width="20" height="2" class="facies_tract 387" fill="#64b0ad"/><rect x="0" y="126.5" width="20" height="0.5" class="facies_tract 388" fill="#4db6ac"/><rect x="0" y="126" width="20" height="0.5" class="facies_tract 389" fill="#dcedc8"/><rect x="0" y="114" width="20" height="12" class="facies_tract 390" fill="#4db6ac"/><rect x="0" y="109" width="20" height="5" class="facies_tract 396" fill="#64b0ad"/><rect x="0" y="103.50000000000003" width="20" height="5.499999999999972" class="facies_tract 397" fill="#4db6ac"/><rect x="0" y="101.79999999999998" width="20" height="1.7000000000000455" class="facies_tract 400" fill="#64b0ad"/><rect x="0" y="94.00000000000003" width="20" height="7.7999999999999545" class="facies_tract 401" fill="#4db6ac"/><rect x="0" y="74" width="20" height="20.00000000000003" class="facies_tract 402" fill="#deeffc"/><rect x="0" y="52" width="20" height="22" class="facies_tract 407" fill="#4db6ac"/><rect x="0" y="21" width="20" height="31" class="facies_tract 413" fill="#bbdefb"/><rect x="0" y="19" width="20" height="2" class="facies_tract 414" fill="#4db6ac"/><rect x="0" y="15.399999999999977" width="20" height="3.6000000000000227" class="facies_tract 415" fill="#bbdefb"/><rect x="0" y="8.5" width="20" height="6.899999999999977" class="facies_tract 559" fill="#7986cb"/><rect x="0" y="0" width="20" height="8.5" class="facies_tract 558" fill="#C22762"/><rect x="0" y="-0.4999999999999716" width="20" height="0.4999999999999716" class="facies_tract 416" fill="#dcedc8"/></g></g><use xmlns:xlink="http://www.w3.org/1999/xlink" xlink:href="#f81ecdf1-ecba-4a1a-85cb-32aa3c0a9076-frame" fill="transparent" class="frame"/></g><g class="lithology-column" transform="translate(275, 5)"><defs><rect id="b073fd2c-0cb1-4a79-8326-c05f2ded3dcd-frame" x="0" y="0" width="20" height="216"/><clipPath id="b073fd2c-0cb1-4a79-8326-c05f2ded3dcd-clip"><use xmlns:xlink="http://www.w3.org/1999/xlink" xlink:href="#b073fd2c-0cb1-4a79-8326-c05f2ded3dcd-frame" fill="transparent" class="frame"/></clipPath></defs><g clip-path="url(#b073fd2c-0cb1-4a79-8326-c05f2ded3dcd-clip)" class="inner"><g class="facies_tract"><rect x="0" y="176.28" width="20" height="39.72" class="facies_tract 201" fill="#deeffc"/><rect x="0" y="149.2" width="20" height="27.080000000000013" class="facies_tract 623" fill="#4db6ac"/><rect x="0" y="140" width="20" height="9.199999999999989" class="facies_tract 521" fill="#dcedc8"/><rect x="0" y="94.00000000000001" width="20" height="45.999999999999986" class="facies_tract 522" fill="#64b0ad"/><rect x="0" y="73" width="20" height="21.000000000000014" class="facies_tract 539" fill="#bbdefb"/><rect x="0" y="68.5" width="20" height="4.5" class="facies_tract 542" fill="#64b0ad"/><rect x="0" y="60" width="20" height="8.5" class="facies_tract 543" fill="#dcedc8"/><rect x="0" y="45.5" width="20" height="14.5" class="facies_tract 544" fill="#64b0ad"/><rect x="0" y="39.5" width="20" height="6" class="facies_tract 548" fill="#dcedc8"/><rect x="0" y="7" width="20" height="32.5" class="facies_tract 549" fill="#bbdefb"/><rect x="0" y="6.5" width="20" height="0.5" class="facies_tract 170" fill="#C22762"/><rect x="0" y="0" width="20" height="6.5" class="facies_tract 171" fill="#deeffc"/><rect x="0" y="-7" width="20" height="7" class="facies_tract 172" fill="#dcedc8"/></g></g><use xmlns:xlink="http://www.w3.org/1999/xlink" xlink:href="#b073fd2c-0cb1-4a79-8326-c05f2ded3dcd-frame" fill="transparent" class="frame"/></g><g class="lithology-column" transform="translate(665, 5)"><defs><rect id="318f40af-7b2d-4299-838f-93f98610ae0a-frame" x="0" y="0" width="20" height="308"/><clipPath id="318f40af-7b2d-4299-838f-93f98610ae0a-clip"><use xmlns:xlink="http://www.w3.org/1999/xlink" xlink:href="#318f40af-7b2d-4299-838f-93f98610ae0a-frame" fill="transparent" class="frame"/></clipPath></defs><g clip-path="url(#318f40af-7b2d-4299-838f-93f98610ae0a-clip)" class="inner"><g class="facies_tract"><rect x="0" y="308" width="20" height="50" class="facies_tract 652"/><rect x="0" y="288.5" width="20" height="19.5" class="facies_tract 48" fill="#deeffc"/><rect x="0" y="280.6" width="20" height="7.899999999999977" class="facies_tract 51" fill="#4db6ac"/><rect x="0" y="257" width="20" height="23.600000000000023" class="facies_tract 52" fill="#deeffc"/><rect x="0" y="240" width="20" height="17" class="facies_tract 54" fill="#4db6ac"/><rect x="0" y="221" width="20" height="19" class="facies_tract 61" fill="#deeffc"/><rect x="0" y="210" width="20" height="11" class="facies_tract 64" fill="#4db6ac"/><rect x="0" y="198" width="20" height="12" class="facies_tract 68" fill="#deeffc"/><rect x="0" y="189" width="20" height="9" class="facies_tract 71" fill="#dcedc8"/><rect x="0" y="183" width="20" height="6" class="facies_tract 75" fill="#7986cb"/><rect x="0" y="153" width="20" height="30" class="facies_tract 76" fill="#dcedc8"/><rect x="0" y="150" width="20" height="3" class="facies_tract 81" fill="#4db6ac"/><rect x="0" y="142" width="20" height="8" class="facies_tract 82" fill="#dcedc8"/><rect x="0" y="116" width="20" height="26" class="facies_tract 85" fill="#bbdefb"/><rect x="0" y="112.5" width="20" height="3.5" class="facies_tract 122" fill="#4db6ac"/><rect x="0" y="92" width="20" height="20.5" class="facies_tract 125" fill="#dcedc8"/><rect x="0" y="85" width="20" height="7" class="facies_tract 131" fill="#deeffc"/><rect x="0" y="84" width="20" height="1" class="facies_tract 132" fill="#dcedc8"/><rect x="0" y="69" width="20" height="15" class="facies_tract 133" fill="#4db6ac"/><rect x="0" y="66.5" width="20" height="2.5" class="facies_tract 134" fill="#dcedc8"/><rect x="0" y="33" width="20" height="33.5" class="facies_tract 135" fill="#bbdefb"/><rect x="0" y="28.579999999999984" width="20" height="4.420000000000016" class="facies_tract 31" fill="#deeffc"/><rect x="0" y="19.30000000000001" width="20" height="9.279999999999973" class="facies_tract 574" fill="#7986cb"/><rect x="0" y="15.870000000000005" width="20" height="3.430000000000007" class="facies_tract 555" fill="#deeffc"/><rect x="0" y="13.699999999999989" width="20" height="2.170000000000016" class="facies_tract 575" fill="#7986cb"/><rect x="0" y="12.139999999999986" width="20" height="1.5600000000000023" class="facies_tract 33" fill="#deeffc"/><rect x="0" y="0" width="20" height="12.139999999999986" class="facies_tract 628" fill="#7986cb"/><rect x="0" y="-33.93000000000001" width="20" height="33.93000000000001" class="facies_tract 39" fill="#dcedc8"/></g></g><use xmlns:xlink="http://www.w3.org/1999/xlink" xlink:href="#318f40af-7b2d-4299-838f-93f98610ae0a-frame" fill="transparent" class="frame"/></g></g></svg>