<svg class="section-link-overlay sequence-link-overlay" height="0" width="1200" xmlns="http://www.w3.org/2000/svg" xmlns:xlink="http://www.w3.org/1999/xlink" style="opacity: 0.2; margin: 0px;"><g transform="translate(0,0)"><g class="section-links"/></g><g class="sections"><g class="lithology-column" transform="translate(144.99999237060547, 5)"><defs><rect id="2a7f58b7-3b13-466f-bdcf-546a9bddaba4-frame" x="0" y="0" width="20" height="236.70000000000002"/><clipPath id="2a7f58b7-3b13-466f-bdcf-546a9bddaba4-clip"/></defs><g class="inner"><g class="facies_tract"><rect x="0" y="236.70000000000002" width="20" height="50.00000000000003" class="facies_tract"/><rect x="0" y="166" width="20" height="70.70000000000002" class="facies_tract 362" fill="#deeffc"/><rect x="0" y="156" width="20" height="10" class="facies_tract 377" fill="#4db6ac"/><rect x="0" y="138.99999999999997" width="20" height="17.00000000000003" class="facies_tract 381" fill="#dcedc8"/><rect x="0" y="137.3" width="20" height="1.6999999999999602" class="facies_tract 382" fill="#4db6ac"/><rect x="0" y="130.4" width="20" height="6.900000000000006" class="facies_tract 383" fill="#dcedc8"/><rect x="0" y="129" width="20" height="1.4000000000000057" class="facies_tract 386" fill="#4db6ac"/><rect x="0" y="127" width="20" height="2" class="facies_tract 387" fill="#64b0ad"/><rect x="0" y="126.50000000000001" width="20" height="0.4999999999999858" class="facies_tract 388" fill="#4db6ac"/><rect x="0" y="125.99999999999999" width="20" height="0.5000000000000284" class="facies_tract 389" fill="#dcedc8"/><rect x="0" y="114" width="20" height="11.999999999999986" class="facies_tract 390" fill="#4db6ac"/><rect x="0" y="109" width="20" height="5" class="facies_tract 396" fill="#64b0ad"/><rect x="0" y="103.50000000000003" width="20" height="5.499999999999972" class="facies_tract 397" fill="#4db6ac"/><rect x="0" y="101.80000000000003" width="20" height="1.7000000000000028" class="facies_tract 400" fill="#64b0ad"/><rect x="0" y="94.00000000000001" width="20" height="7.800000000000011" class="facies_tract 401" fill="#4db6ac"/><rect x="0" y="74" width="20" height="20.000000000000014" class="facies_tract 402" fill="#bbdefb"/><rect x="0" y="52.00000000000001" width="20" height="21.999999999999993" class="facies_tract 407" fill="#4db6ac"/><rect x="0" y="21.000000000000007" width="20" height="31" class="facies_tract 413" fill="#bbdefb"/><rect x="0" y="18.999999999999993" width="20" height="2.000000000000014" class="facies_tract 414" fill="#4db6ac"/><rect x="0" y="15.400000000000013" width="20" height="3.59999999999998" class="facies_tract 415" fill="#bbdefb"/><rect x="0" y="8.49999999999999" width="20" height="6.9000000000000234" class="facies_tract 559" fill="#7986cb"/><rect x="0" y="0" width="20" height="8.49999999999999" class="facies_tract 558" fill="#C22762"/><rect x="0" y="-0.49999999999998385" width="20" height="0.49999999999998385" class="facies_tract 416" fill="#dcedc8"/></g></g><use xmlns:xlink="http://www.w3.org/1999/xlink" xlink:href="#2a7f58b7-3b13-466f-bdcf-546a9bddaba4-frame" fill="transparent" class="frame"/></g><g class="lithology-column" transform="translate(258.33805084228516, 5)"><defs><rect id="97bf14a5-dc00-48b6-9dfe-19709b7c0988-frame" x="0" y="0" width="20" height="224.45000000000002"/><clipPath id="97bf14a5-dc00-48b6-9dfe-19709b7c0988-clip"/></defs><g class="inner"><g class="facies_tract"><rect x="0" y="224.45000000000002" width="20" height="50.00000000000003" class="facies_tract"/><rect x="0" y="184.73000000000002" width="20" height="39.72" class="facies_tract 201" fill="#deeffc"/><rect x="0" y="166.45000000000002" width="20" height="18.28" class="facies_tract 623" fill="#4db6ac"/><rect x="0" y="148.45000000000002" width="20" height="18" class="facies_tract 514" fill="#dcedc8"/><rect x="0" y="129.95000000000002" width="20" height="18.5" class="facies_tract 522" fill="#64b0ad"/><rect x="0" y="123.95000000000002" width="20" height="6" class="facies_tract 529" fill="#dcedc8"/><rect x="0" y="122.45000000000002" width="20" height="1.5" class="facies_tract 532" fill="#4db6ac"/><rect x="0" y="120.95000000000003" width="20" height="1.4999999999999858" class="facies_tract 533" fill="#dcedc8"/><rect x="0" y="117.85000000000001" width="20" height="3.1000000000000227" class="facies_tract 534" fill="#4db6ac"/><rect x="0" y="110.77000000000001" width="20" height="7.079999999999998" class="facies_tract 537" fill="#dcedc8"/><rect x="0" y="102.45000000000002" width="20" height="8.319999999999993" class="facies_tract 598" fill="#4db6ac"/><rect x="0" y="81.45000000000002" width="20" height="21" class="facies_tract 539" fill="#bbdefb"/><rect x="0" y="53.950000000000024" width="20" height="27.499999999999993" class="facies_tract 542" fill="#64b0ad"/><rect x="0" y="47.95000000000002" width="20" height="6.000000000000007" class="facies_tract 548" fill="#dcedc8"/><rect x="0" y="16.45000000000002" width="20" height="31.499999999999996" class="facies_tract 549" fill="#bbdefb"/><rect x="0" y="0" width="20" height="16.45000000000002" class="facies_tract 718" fill="#C22762"/><rect x="0" y="-6.999999999999999" width="20" height="6.999999999999999" class="facies_tract 172" fill="#dcedc8"/></g></g><use xmlns:xlink="http://www.w3.org/1999/xlink" xlink:href="#97bf14a5-dc00-48b6-9dfe-19709b7c0988-frame" fill="transparent" class="frame"/></g><g class="lithology-column" transform="translate(664.9999465942383, 5)"><defs><rect id="d6a2de20-f861-4e04-9968-bd947fb45de3-frame" x="0" y="0" width="20" height="306"/><clipPath id="d6a2de20-f861-4e04-9968-bd947fb45de3-clip"/></defs><g class="inner"><g class="facies_tract"><rect x="0" y="306" width="20" height="50" class="facies_tract 652"/><rect x="0" y="286.5" width="20" height="19.5" class="facies_tract 48" fill="#bbdefb"/><rect x="0" y="278.6" width="20" height="7.899999999999977" class="facies_tract 51" fill="#4db6ac"/><rect x="0" y="255" width="20" height="23.600000000000023" class="facies_tract 52" fill="#bbdefb"/><rect x="0" y="238" width="20" height="17" class="facies_tract 54" fill="#4db6ac"/><rect x="0" y="219" width="20" height="19" class="facies_tract 61" fill="#bbdefb"/><rect x="0" y="208" width="20" height="11" class="facies_tract 64" fill="#4db6ac"/><rect x="0" y="195.99999999999997" width="20" height="12.000000000000028" class="facies_tract 68" fill="#bbdefb"/><rect x="0" y="187.00000000000003" width="20" height="8.999999999999943" class="facies_tract 71" fill="#dcedc8"/><rect x="0" y="181" width="20" height="6.000000000000028" class="facies_tract 75" fill="#bbdefb"/><rect x="0" y="151" width="20" height="30" class="facies_tract 76" fill="#dcedc8"/><rect x="0" y="141.99999999999997" width="20" height="9.000000000000028" class="facies_tract 106" fill="#4db6ac"/><rect x="0" y="122.79999999999997" width="20" height="19.200000000000003" class="facies_tract 111" fill="#64b0ad"/><rect x="0" y="112.49999999999997" width="20" height="10.299999999999997" class="facies_tract 118" fill="#4db6ac"/><rect x="0" y="91.99999999999994" width="20" height="20.50000000000003" class="facies_tract 125" fill="#dcedc8"/><rect x="0" y="84.99999999999993" width="20" height="7.000000000000014" class="facies_tract 131" fill="#bbdefb"/><rect x="0" y="83.99999999999994" width="20" height="0.9999999999999858" class="facies_tract 132" fill="#dcedc8"/><rect x="0" y="68.99999999999996" width="20" height="14.999999999999986" class="facies_tract 133" fill="#4db6ac"/><rect x="0" y="66.49999999999993" width="20" height="2.5000000000000284" class="facies_tract 134" fill="#dcedc8"/><rect x="0" y="32.999999999999886" width="20" height="33.50000000000004" class="facies_tract 135" fill="#bbdefb"/><rect x="0" y="28.579999999999973" width="20" height="4.420000000000012" class="facies_tract 31" fill="#deeffc"/><rect x="0" y="19.3" width="20" height="9.279999999999973" class="facies_tract 574" fill="#7986cb"/><rect x="0" y="15.870000000000005" width="20" height="3.429999999999996" class="facies_tract 555" fill="#deeffc"/><rect x="0" y="13.699999999999985" width="20" height="2.1700000000000195" class="facies_tract 575" fill="#7986cb"/><rect x="0" y="12.139999999999977" width="20" height="1.5600000000000076" class="facies_tract 33" fill="#deeffc"/><rect x="0" y="0" width="20" height="12.139999999999977" class="facies_tract 628" fill="#7986cb"/><rect x="0" y="-33.929999999999986" width="20" height="33.929999999999986" class="facies_tract 39" fill="#dcedc8"/></g></g><use xmlns:xlink="http://www.w3.org/1999/xlink" xlink:href="#d6a2de20-f861-4e04-9968-bd947fb45de3-frame" fill="transparent" class="frame"/></g></g></svg>