<svg class="_section-link-overlay_bc6dc sequence-link-overlay" height="318" width="1200" xmlns="http://www.w3.org/2000/svg" xmlns:xlink="http://www.w3.org/1999/xlink" style="opacity: 0.2; margin: 0px;"><g transform="translate(0,0)"><g class="section-links"><path d="M160,92.08000000000001L200,92.08000000000001C235,92.08000000000001,235,94.77000000000002,270,94.77000000000002l40,0L310,94.77000000000002C485,94.77000000000002,485,94.17999999999999,660,94.17999999999999l40,0" class="_section-link_bc6dc sequence-strat" stroke="#fcc" stroke-width="3" fill="none" style="cursor: pointer;"/><path d="M160,70L200,70C235,70,235,73.5,270,73.5l40,0" class="_section-link_bc6dc sequence-strat" stroke="#ccc" stroke-width="1" fill="none" style="cursor: pointer;"/><path d="M160,123L200,123C235,123,235,134,270,134l40,0L310,134C485,134,485,143,660,143l40,0" class="_section-link_bc6dc sequence-strat" stroke="#fcc" stroke-width="1.5" fill="none" style="cursor: pointer;"/><path d="M160,23.999999999999993L200,23.999999999999993C235,23.999999999999993,235,23.000000000000007,270,23.000000000000007l40,0L310,23.000000000000007C485,23.000000000000007,485,11.300000000000015,660,11.300000000000015l40,0" class="_section-link_bc6dc sequence-strat" stroke="#fcc" stroke-width="1.5" fill="none" style="cursor: pointer;"/><path d="M160,171L200,171C235,171,235,181.57,270,181.57l40,0L310,181.57C485,181.57,485,293.49999999999994,660,293.49999999999994l40,0" class="_section-link_bc6dc sequence-strat" stroke="#fcc" stroke-width="1.5" fill="none" style="cursor: pointer;"/><path d="M160,79L200,79C235,79,235,78,270,78l40,0L310,78C485,78,485,89,660,89l40,0" class="_section-link_bc6dc sequence-strat" stroke="#fcc" stroke-width="1.5" fill="none" style="cursor: pointer;"/><path d="M160,81.00000000000001L200,81.00000000000001C235,81.00000000000001,235,81,270,81l40,0L310,81C485,81,485,90,660,90l40,0" class="_section-link_bc6dc sequence-strat" stroke="#ccc" stroke-width="1" fill="none" style="cursor: pointer;"/><path d="M160,58.39999999999999L200,58.39999999999999C235,58.39999999999999,235,50.5,270,50.5l40,0L310,50.5C485,50.5,485,60.999999999999986,660,60.999999999999986l40,0" class="_section-link_bc6dc sequence-strat" stroke="#ccc" stroke-width="3" fill="none" style="cursor: pointer;"/><path d="M160,161.00000000000003L200,161.00000000000003C235,161.00000000000003,235,162.99999999999997,270,162.99999999999997l40,0L310,162.99999999999997C485,162.99999999999997,485,215.00000000000003,660,215.00000000000003l40,0" class="_section-link_bc6dc sequence-strat" stroke="#ccc" stroke-width="1.5" fill="none" style="cursor: pointer;"/><path d="M160,99.00000000000001L200,99.00000000000001C235,99.00000000000001,235,99.00000000000001,270,99.00000000000001l40,0L310,99.00000000000001C485,99.00000000000001,485,103.00000000000001,660,103.00000000000001l40,0" class="_section-link_bc6dc sequence-strat" stroke="#ccc" stroke-width="1.5" fill="none" style="cursor: pointer;"/><path d="M160,5L200,5C235,5,235,5,270,5l40,0L310,5C485,5,485,5,660,5l40,0" class="_section-link_bc6dc sequence-strat" stroke="#ccc" stroke-width="3" fill="none" style="cursor: pointer;"/></g></g><g class="sections"><g class="lithology-column" transform="translate(165, 5)"><g class="inner"><g class="facies_tract"><rect x="0" y="166" width="20" height="70.70000000000002" class="facies_tract 362" fill="#deeffc"/><rect x="0" y="156" width="20" height="10" class="facies_tract 377" fill="#4db6ac"/><rect x="0" y="138.99999999999997" width="20" height="17.00000000000003" class="facies_tract 381" fill="#dcedc8"/><rect x="0" y="137.3" width="20" height="1.6999999999999602" class="facies_tract 382" fill="#4db6ac"/><rect x="0" y="130.4" width="20" height="6.900000000000006" class="facies_tract 383" fill="#dcedc8"/><rect x="0" y="129" width="20" height="1.4000000000000057" class="facies_tract 386" fill="#4db6ac"/><rect x="0" y="127" width="20" height="2" class="facies_tract 387" fill="#64b0ad"/><rect x="0" y="126.50000000000001" width="20" height="0.4999999999999858" class="facies_tract 388" fill="#4db6ac"/><rect x="0" y="125.99999999999999" width="20" height="0.5000000000000284" class="facies_tract 389" fill="#dcedc8"/><rect x="0" y="114" width="20" height="11.999999999999986" class="facies_tract 390" fill="#4db6ac"/><rect x="0" y="109" width="20" height="5" class="facies_tract 396" fill="#64b0ad"/><rect x="0" y="103.50000000000003" width="20" height="5.499999999999972" class="facies_tract 397" fill="#4db6ac"/><rect x="0" y="101.8" width="20" height="1.7000000000000313" class="facies_tract 400" fill="#64b0ad"/><rect x="0" y="94.00000000000001" width="20" height="7.799999999999983" class="facies_tract 401" fill="#4db6ac"/><rect x="0" y="74" width="20" height="20.000000000000014" class="facies_tract 402" fill="#deeffc"/><rect x="0" y="52.00000000000001" width="20" height="21.999999999999993" class="facies_tract 407" fill="#4db6ac"/><rect x="0" y="21.000000000000007" width="20" height="31" class="facies_tract 413" fill="#bbdefb"/><rect x="0" y="18.999999999999993" width="20" height="2.000000000000014" class="facies_tract 414" fill="#4db6ac"/><rect x="0" y="15.399999999999986" width="20" height="3.6000000000000068" class="facies_tract 415" fill="#bbdefb"/><rect x="0" y="8.49999999999999" width="20" height="6.899999999999997" class="facies_tract 559" fill="#7986cb"/><rect x="0" y="0" width="20" height="8.49999999999999" class="facies_tract 558" fill="#C22762"/><rect x="0" y="-0.49999999999998385" width="20" height="0.49999999999998385" class="facies_tract 416" fill="#dcedc8"/></g></g></g><g class="lithology-column" transform="translate(275, 5)"><g class="inner"><g class="facies_tract"><rect x="0" y="176.28" width="20" height="39.72" class="facies_tract 201" fill="#deeffc"/><rect x="0" y="149.20000000000002" width="20" height="27.079999999999984" class="facies_tract 623" fill="#4db6ac"/><rect x="0" y="140" width="20" height="9.200000000000017" class="facies_tract 521" fill="#dcedc8"/><rect x="0" y="94.00000000000001" width="20" height="45.999999999999986" class="facies_tract 522" fill="#64b0ad"/><rect x="0" y="72.99999999999999" width="20" height="21.00000000000003" class="facies_tract 539" fill="#bbdefb"/><rect x="0" y="68.5" width="20" height="4.499999999999986" class="facies_tract 542" fill="#64b0ad"/><rect x="0" y="60" width="20" height="8.5" class="facies_tract 543" fill="#dcedc8"/><rect x="0" y="45.5" width="20" height="14.5" class="facies_tract 544" fill="#64b0ad"/><rect x="0" y="39.49999999999999" width="20" height="6.000000000000007" class="facies_tract 548" fill="#dcedc8"/><rect x="0" y="7.000000000000007" width="20" height="32.499999999999986" class="facies_tract 549" fill="#bbdefb"/><rect x="0" y="6.499999999999993" width="20" height="0.5000000000000142" class="facies_tract 170" fill="#C22762"/><rect x="0" y="0" width="20" height="6.499999999999993" class="facies_tract 171" fill="#deeffc"/><rect x="0" y="-7.000000000000007" width="20" height="7.000000000000007" class="facies_tract 172" fill="#dcedc8"/></g></g></g><g class="lithology-column" transform="translate(665, 5)"><g class="inner"><g class="facies_tract"><rect x="0" y="308" width="20" height="50.00000000000006" class="facies_tract 652"/><rect x="0" y="288.5" width="20" height="19.5" class="facies_tract 48" fill="#deeffc"/><rect x="0" y="280.6" width="20" height="7.899999999999977" class="facies_tract 51" fill="#4db6ac"/><rect x="0" y="257" width="20" height="23.600000000000023" class="facies_tract 52" fill="#deeffc"/><rect x="0" y="240" width="20" height="17" class="facies_tract 54" fill="#4db6ac"/><rect x="0" y="220.99999999999997" width="20" height="19.00000000000003" class="facies_tract 61" fill="#deeffc"/><rect x="0" y="210.00000000000003" width="20" height="10.999999999999943" class="facies_tract 64" fill="#4db6ac"/><rect x="0" y="197.99999999999997" width="20" height="12.000000000000057" class="facies_tract 68" fill="#deeffc"/><rect x="0" y="189" width="20" height="8.999999999999972" class="facies_tract 71" fill="#dcedc8"/><rect x="0" y="182.99999999999997" width="20" height="6.000000000000028" class="facies_tract 75" fill="#7986cb"/><rect x="0" y="153" width="20" height="29.99999999999997" class="facies_tract 76" fill="#dcedc8"/><rect x="0" y="150" width="20" height="3" class="facies_tract 81" fill="#4db6ac"/><rect x="0" y="142" width="20" height="8" class="facies_tract 82" fill="#dcedc8"/><rect x="0" y="116" width="20" height="26" class="facies_tract 85" fill="#bbdefb"/><rect x="0" y="112.50000000000001" width="20" height="3.499999999999986" class="facies_tract 122" fill="#4db6ac"/><rect x="0" y="92" width="20" height="20.500000000000014" class="facies_tract 125" fill="#dcedc8"/><rect x="0" y="85" width="20" height="7" class="facies_tract 131" fill="#deeffc"/><rect x="0" y="84" width="20" height="1" class="facies_tract 132" fill="#dcedc8"/><rect x="0" y="69" width="20" height="15" class="facies_tract 133" fill="#4db6ac"/><rect x="0" y="66.50000000000001" width="20" height="2.499999999999986" class="facies_tract 134" fill="#dcedc8"/><rect x="0" y="32.999999999999986" width="20" height="33.50000000000003" class="facies_tract 135" fill="#bbdefb"/><rect x="0" y="28.57999999999999" width="20" height="4.419999999999995" class="facies_tract 31" fill="#deeffc"/><rect x="0" y="19.30000000000003" width="20" height="9.279999999999962" class="facies_tract 574" fill="#7986cb"/><rect x="0" y="15.870000000000001" width="20" height="3.430000000000028" class="facies_tract 555" fill="#deeffc"/><rect x="0" y="13.699999999999992" width="20" height="2.170000000000009" class="facies_tract 575" fill="#7986cb"/><rect x="0" y="12.13999999999998" width="20" height="1.560000000000013" class="facies_tract 33" fill="#deeffc"/><rect x="0" y="0" width="20" height="12.13999999999998" class="facies_tract 628" fill="#7986cb"/><rect x="0" y="-33.93000000000002" width="20" height="33.93000000000002" class="facies_tract 39" fill="#dcedc8"/></g></g></g></g></svg>