<svg class="_section-link-overlay_bc6dc sequence-link-overlay" width="1200" height="268" xmlns="http://www.w3.org/2000/svg" xmlns:xlink="http://www.w3.org/1999/xlink"><g class="section-links"><g><path d="M160,115l40,0M200,115C235,115,235,126,270,126l40,0" class="_section-link_bc6dc sequence-strat" stroke="#ccc" stroke-width="1" fill="none" style="cursor: pointer;"/><path d="M160,115l40,0M200,115C235,115,235,126,270,126l40,0M310,126C485,126,485,216,660,216l40,0" class="_section-link_bc6dc sequence-strat" stroke="#ccc" stroke-width="1" fill="none" style="cursor: pointer;"/></g><g><path d="M160,83.5l40,0M200,83.5C235,83.5,235,85,270,85l40,0" class="_section-link_bc6dc sequence-strat" stroke="#fcc" stroke-width="3" fill="none" style="cursor: pointer;"/><path d="M160,83.5l40,0M200,83.5C235,83.5,235,85,270,85l40,0M310,85C485,85,485,91,660,91l40,0" class="_section-link_bc6dc sequence-strat" stroke="#fcc" stroke-width="3" fill="none" style="cursor: pointer;"/></g><g><path d="M160,107l40,0M200,107C235,107,235,114,270,114l40,0" class="_section-link_bc6dc sequence-strat" stroke="#fcc" stroke-width="3" fill="none" style="cursor: pointer;"/><path d="M160,107l40,0M200,107C235,107,235,114,270,114l40,0M310,114C485,114,485,182,660,182l40,0" class="_section-link_bc6dc sequence-strat" stroke="#fcc" stroke-width="3" fill="none" style="cursor: pointer;"/></g><g><path d="M160,5l40,0M200,5C235,5,235,5,270,5l40,0" class="_section-link_bc6dc sequence-strat" stroke="#fcc" stroke-width="3" fill="none" style="cursor: pointer;"/><path d="M160,5l40,0M200,5C235,5,235,5,270,5l40,0M310,5C485,5,485,5,660,5l40,0" class="_section-link_bc6dc sequence-strat" stroke="#fcc" stroke-width="3" fill="none" style="cursor: pointer;"/></g><g><path d="M160,15l40,0M200,15C235,15,235,23,270,23l40,0" class="_section-link_bc6dc sequence-strat" stroke="#fcc" stroke-width="1.5" fill="none" style="cursor: pointer;"/><path d="M160,15l40,0M200,15C235,15,235,23,270,23l40,0M310,23C485,23,485,21,660,21l40,0" class="_section-link_bc6dc sequence-strat" stroke="#fcc" stroke-width="1.5" fill="none" style="cursor: pointer;"/></g><g><path d="M160,93.5l40,0M200,93.5C235,93.5,235,91.99999999999999,270,91.99999999999999l40,0" class="_section-link_bc6dc sequence-strat" stroke="#ccc" stroke-width="3" fill="none" style="cursor: pointer;"/><path d="M160,93.5l40,0M200,93.5C235,93.5,235,91.99999999999999,270,91.99999999999999l40,0M310,91.99999999999999C485,91.99999999999999,485,165,660,165l40,0" class="_section-link_bc6dc sequence-strat" stroke="#ccc" stroke-width="3" fill="none" style="cursor: pointer;"/></g><g><path d="M160,10.300000000000011l40,0M200,10.300000000000011C235,10.300000000000011,235,15,270,15l40,0" class="_section-link_bc6dc sequence-strat" stroke="#ccc" stroke-width="3" fill="none" style="cursor: pointer;"/><path d="M160,10.300000000000011l40,0M200,10.300000000000011C235,10.300000000000011,235,15,270,15l40,0M310,15C485,15,485,16,660,16l40,0" class="_section-link_bc6dc sequence-strat" stroke="#ccc" stroke-width="3" fill="none" style="cursor: pointer;"/></g><g><path d="M160,66.5l40,0M200,66.5C235,66.5,235,67,270,67l40,0" class="_section-link_bc6dc sequence-strat" stroke="#ccc" stroke-width="3" fill="none" style="cursor: pointer;"/><path d="M160,66.5l40,0M200,66.5C235,66.5,235,67,270,67l40,0M310,67C485,67,485,64.5,660,64.5l40,0" class="_section-link_bc6dc sequence-strat" stroke="#ccc" stroke-width="3" fill="none" style="cursor: pointer;"/></g><g><path d="M160,156l40,0M200,156C235,156,235,181,270,181l40,0" class="_section-link_bc6dc sequence-strat" stroke="#ccc" stroke-width="3" fill="none" style="cursor: pointer;"/><path d="M160,156l40,0M200,156C235,156,235,181,270,181l40,0M310,181C485,181,485,263,660,263l40,0" class="_section-link_bc6dc sequence-strat" stroke="#ccc" stroke-width="3" fill="none" style="cursor: pointer;"/></g></g><g class="sections"><g class="lithology-column" transform="translate(165, 5)"><g class="inner"><g class="facies_tract"><rect x="0" y="151" width="20" height="8.5" class="facies_tract 558" fill="#C22762"/><rect x="0" y="111.69999999999999" width="20" height="39.30000000000001" class="facies_tract 416" fill="#dcedc8"/><rect x="0" y="102" width="20" height="9.699999999999989" class="facies_tract 422" fill="#bbdefb"/><rect x="0" y="99" width="20" height="3" class="facies_tract 430" fill="#7986cb"/><rect x="0" y="95.80000000000001" width="20" height="3.1999999999999886" class="facies_tract 431" fill="#bbdefb"/><rect x="0" y="95.19999999999999" width="20" height="0.6000000000000227" class="facies_tract 435" fill="#7986cb"/><rect x="0" y="94" width="20" height="1.1999999999999886" class="facies_tract 570" fill="#deeffc"/><rect x="0" y="91" width="20" height="3" class="facies_tract 436" fill="#C22762"/><rect x="0" y="79" width="20" height="12" class="facies_tract 437" fill="#deeffc"/><rect x="0" y="77" width="20" height="2" class="facies_tract 443" fill="#C22762"/><rect x="0" y="75" width="20" height="2" class="facies_tract 560" fill="#bbdefb"/><rect x="0" y="73" width="20" height="2" class="facies_tract 561" fill="#C22762"/><rect x="0" y="63" width="20" height="10" class="facies_tract 550" fill="#bbdefb"/><rect x="0" y="61.5" width="20" height="1.5" class="facies_tract 562" fill="#C22762"/><rect x="0" y="10" width="20" height="51.5" class="facies_tract 445" fill="#dcedc8"/><rect x="0" y="9" width="20" height="1" class="facies_tract 458" fill="#bbdefb"/><rect x="0" y="5.300000000000011" width="20" height="3.6999999999999886" class="facies_tract 563" fill="#7986cb"/><rect x="0" y="0" width="20" height="5.300000000000011" class="facies_tract 459" fill="#dcedc8"/><rect x="0" y="-4.5" width="20" height="4.5" class="facies_tract 462" fill="#7986cb"/></g></g></g><g class="lithology-column" transform="translate(275, 5)"><g class="inner"><g class="facies_tract"><rect x="0" y="176" width="20" height="6.5" class="facies_tract 171" fill="#deeffc"/><rect x="0" y="126" width="20" height="50" class="facies_tract 172" fill="#dcedc8"/><rect x="0" y="109" width="20" height="17" class="facies_tract 180" fill="#bbdefb"/><rect x="0" y="101" width="20" height="8" class="facies_tract 184" fill="#4db6ac"/><rect x="0" y="100.19999999999999" width="20" height="0.8000000000000114" class="facies_tract 185" fill="#bbdefb"/><rect x="0" y="95" width="20" height="5.199999999999989" class="facies_tract 186" fill="#4db6ac"/><rect x="0" y="62" width="20" height="33" class="facies_tract 187" fill="#7986cb"/><rect x="0" y="18" width="20" height="44" class="facies_tract 502" fill="#dcedc8"/><rect x="0" y="10" width="20" height="8" class="facies_tract 504" fill="#7986cb"/><rect x="0" y="0" width="20" height="10" class="facies_tract 505" fill="#dcedc8"/><rect x="0" y="-8" width="20" height="8" class="facies_tract 506" fill="#7986cb"/></g></g></g><g class="lithology-column" transform="translate(665, 5)"><g class="inner"><g class="facies_tract"><rect x="0" y="258" width="20" height="2.3700000000000045" class="facies_tract 586"/><rect x="0" y="213.5" width="20" height="44.5" class="facies_tract 39" fill="#dcedc8"/><rect x="0" y="211" width="20" height="2.5" class="facies_tract 44" fill="#7986cb"/><rect x="0" y="177" width="20" height="34" class="facies_tract 97" fill="#dcedc8"/><rect x="0" y="160" width="20" height="17" class="facies_tract 99" fill="#7986cb"/><rect x="0" y="88" width="20" height="72" class="facies_tract 2" fill="#dcedc8"/><rect x="0" y="61.43000000000001" width="20" height="26.569999999999993" class="facies_tract 5" fill="#7986cb"/><rect x="0" y="59.5" width="20" height="1.9300000000000068" class="facies_tract 582" fill="#deeffc"/><rect x="0" y="16" width="20" height="43.5" class="facies_tract 8" fill="#dcedc8"/><rect x="0" y="11" width="20" height="5" class="facies_tract 10" fill="#7986cb"/><rect x="0" y="0" width="20" height="11" class="facies_tract 13" fill="#dcedc8"/><rect x="0" y="-8.629999999999995" width="20" height="8.629999999999995" class="facies_tract 14" fill="#4a148c"/></g></g></g></g></svg>