<svg class="section-link-overlay sequence-link-overlay" height="35" width="1200" xmlns="http://www.w3.org/2000/svg" xmlns:xlink="http://www.w3.org/1999/xlink" style="opacity: 0.2; margin: 0px;"><g transform="translate(0,0)"><g class="section-links"/></g><g class="sections"><g class="lithology-column" transform="translate(144.99999237060547, 5)"><defs><rect id="fa548c27-6c07-43c3-a5f8-5547e8f42f04-frame" x="0" y="0" width="20" height="151"/><clipPath id="fa548c27-6c07-43c3-a5f8-5547e8f42f04-clip"/></defs><g class="inner"><g class="facies_tract"><rect x="0" y="151" width="20" height="8.5" class="facies_tract 558" fill="#C22762"/><rect x="0" y="111.69999999999999" width="20" height="39.30000000000001" class="facies_tract 416" fill="#dcedc8"/><rect x="0" y="102" width="20" height="9.699999999999989" class="facies_tract 422" fill="#bbdefb"/><rect x="0" y="99" width="20" height="3" class="facies_tract 430" fill="#7986cb"/><rect x="0" y="95.80000000000001" width="20" height="3.1999999999999886" class="facies_tract 431" fill="#bbdefb"/><rect x="0" y="95.19999999999999" width="20" height="0.6000000000000227" class="facies_tract 435" fill="#7986cb"/><rect x="0" y="94.00000000000001" width="20" height="1.1999999999999744" class="facies_tract 570" fill="#deeffc"/><rect x="0" y="91" width="20" height="3.000000000000014" class="facies_tract 436" fill="#C22762"/><rect x="0" y="79" width="20" height="12" class="facies_tract 437" fill="#deeffc"/><rect x="0" y="76.99999999999999" width="20" height="2.000000000000014" class="facies_tract 443" fill="#C22762"/><rect x="0" y="75" width="20" height="1.9999999999999858" class="facies_tract 560" fill="#bbdefb"/><rect x="0" y="73" width="20" height="2" class="facies_tract 561" fill="#C22762"/><rect x="0" y="63" width="20" height="10" class="facies_tract 550" fill="#bbdefb"/><rect x="0" y="61.49999999999999" width="20" height="1.500000000000007" class="facies_tract 562" fill="#C22762"/><rect x="0" y="10" width="20" height="51.49999999999999" class="facies_tract 445" fill="#dcedc8"/><rect x="0" y="8.999999999999996" width="20" height="1.0000000000000036" class="facies_tract 458" fill="#bbdefb"/><rect x="0" y="5.300000000000003" width="20" height="3.699999999999993" class="facies_tract 563" fill="#7986cb"/><rect x="0" y="0" width="20" height="5.300000000000003" class="facies_tract 459" fill="#dcedc8"/><rect x="0" y="-4.500000000000006" width="20" height="4.500000000000006" class="facies_tract 462" fill="#7986cb"/></g></g><use xmlns:xlink="http://www.w3.org/1999/xlink" xlink:href="#fa548c27-6c07-43c3-a5f8-5547e8f42f04-frame" fill="transparent" class="frame"/></g><g class="lithology-column" transform="translate(258.33805084228516, 5)"><defs><rect id="1c0735cc-d7a8-4d82-9e88-6e000acaab98-frame" x="0" y="0" width="20" height="176"/><clipPath id="1c0735cc-d7a8-4d82-9e88-6e000acaab98-clip"/></defs><g class="inner"><g class="facies_tract"><rect x="0" y="176" width="20" height="6.5" class="facies_tract 171" fill="#C22762"/><rect x="0" y="125.99999999999997" width="20" height="50.00000000000003" class="facies_tract 172" fill="#dcedc8"/><rect x="0" y="108.99999999999997" width="20" height="17" class="facies_tract 180" fill="#bbdefb"/><rect x="0" y="100.99999999999996" width="20" height="8.000000000000014" class="facies_tract 184" fill="#4db6ac"/><rect x="0" y="100.19999999999995" width="20" height="0.8000000000000114" class="facies_tract 185" fill="#bbdefb"/><rect x="0" y="94.99999999999997" width="20" height="5.199999999999974" class="facies_tract 186" fill="#4db6ac"/><rect x="0" y="62" width="20" height="32.99999999999997" class="facies_tract 187" fill="#7986cb"/><rect x="0" y="18.000000000000004" width="20" height="44" class="facies_tract 502" fill="#dcedc8"/><rect x="0" y="10.00000000000001" width="20" height="7.999999999999993" class="facies_tract 504" fill="#7986cb"/><rect x="0" y="0" width="20" height="10.00000000000001" class="facies_tract 505" fill="#dcedc8"/><rect x="0" y="-7.999999999999993" width="20" height="7.999999999999993" class="facies_tract 506" fill="#7986cb"/></g></g><use xmlns:xlink="http://www.w3.org/1999/xlink" xlink:href="#1c0735cc-d7a8-4d82-9e88-6e000acaab98-frame" fill="transparent" class="frame"/></g><g class="lithology-column" transform="translate(664.9999465942383, 5)"><defs><rect id="aa42cb8f-c2e9-4c25-9554-17a08381a0b7-frame" x="0" y="0" width="20" height="256"/><clipPath id="aa42cb8f-c2e9-4c25-9554-17a08381a0b7-clip"/></defs><g class="inner"><g class="facies_tract"><rect x="0" y="256" width="20" height="2.3700000000000045" class="facies_tract 586"/><rect x="0" y="211.5" width="20" height="44.5" class="facies_tract 39" fill="#dcedc8"/><rect x="0" y="209" width="20" height="2.5" class="facies_tract 44" fill="#7986cb"/><rect x="0" y="175" width="20" height="34" class="facies_tract 97" fill="#dcedc8"/><rect x="0" y="160" width="20" height="15" class="facies_tract 99" fill="#7986cb"/><rect x="0" y="88" width="20" height="72" class="facies_tract 2" fill="#dcedc8"/><rect x="0" y="61.430000000000064" width="20" height="26.569999999999936" class="facies_tract 5" fill="#7986cb"/><rect x="0" y="59.5" width="20" height="1.9300000000000637" class="facies_tract 582" fill="#deeffc"/><rect x="0" y="16" width="20" height="43.5" class="facies_tract 8" fill="#dcedc8"/><rect x="0" y="11" width="20" height="5" class="facies_tract 10" fill="#7986cb"/><rect x="0" y="0" width="20" height="11" class="facies_tract 13" fill="#dcedc8"/><rect x="0" y="-8.629999999999995" width="20" height="8.629999999999995" class="facies_tract 14" fill="#4a148c"/></g></g><use xmlns:xlink="http://www.w3.org/1999/xlink" xlink:href="#aa42cb8f-c2e9-4c25-9554-17a08381a0b7-frame" fill="transparent" class="frame"/></g></g></svg>