<svg class="_section-link-overlay_bc6dc sequence-link-overlay" width="1200" height="279" xmlns="http://www.w3.org/2000/svg" xmlns:xlink="http://www.w3.org/1999/xlink" style="opacity: 0.2;"><g class="section-links"><path d="M160,122.00000000000003L200,122.00000000000003C430,122.00000000000003,430,195,660,195l40,0" class="_section-link_bc6dc sequence-strat" stroke="#fcc" stroke-width="1" fill="none" style="cursor: pointer;"/><path d="M160,166.00000000000006L200,166.00000000000006C430,166.00000000000006,430,215,660,215l40,0" class="_section-link_bc6dc sequence-strat" stroke="#fcc" stroke-width="1.5" fill="none" style="cursor: pointer;"/><path d="M160,112L200,112C430,112,430,160,660,160l40,0" class="_section-link_bc6dc sequence-strat" stroke="#ccc" stroke-width="3" fill="none" style="cursor: pointer;"/><path d="M160,272.00000000000006L200,272.00000000000006C235,272.00000000000006,235,273,270,273l40,0L310,273C485,273,485,274,660,274l40,0" class="_section-link_bc6dc sequence-strat" stroke="#fcc" stroke-width="3" fill="none" style="cursor: pointer;"/><path d="M160,202.00000000000006L200,202.00000000000006C430,202.00000000000006,430,241,660,241l40,0" class="_section-link_bc6dc sequence-strat" stroke="#ccc" stroke-width="1.5" fill="none" style="cursor: pointer;"/></g><g class="sections"><g class="lithology-column" transform="translate(165, 5)"><g class="inner"><g class="facies_tract"><rect x="0" y="267.00000000000006" width="20" height="3.6999999999999886" class="facies_tract 461" fill="#dcedc8"/><rect x="0" y="262.50000000000006" width="20" height="4.5" class="facies_tract 462" fill="#7986cb"/><rect x="0" y="259.20000000000005" width="20" height="3.3000000000000114" class="facies_tract 463" fill="#bbdefb"/><rect x="0" y="252.35000000000002" width="20" height="6.850000000000023" class="facies_tract 564" fill="#7986cb"/><rect x="0" y="238.50000000000006" width="20" height="13.849999999999966" class="facies_tract 661" fill="#deeffc"/><rect x="0" y="113" width="20" height="125.50000000000006" class="facies_tract 467" fill="#7986cb"/><rect x="0" y="107" width="20" height="6" class="facies_tract 567" fill="#deeffc"/><rect x="0" y="96" width="20" height="11" class="facies_tract 470" fill="#673ab7"/><rect x="0" y="73" width="20" height="23" class="facies_tract 483" fill="#7986cb"/><rect x="0" y="57" width="20" height="16" class="facies_tract 484" fill="#673ab7"/><rect x="0" y="-21" width="20" height="78" class="facies_tract 553" fill="#7986cb"/></g></g></g><g class="lithology-column" transform="translate(275, 270)"><g class="inner"><g class="facies_tract"><rect x="0" y="3" width="20" height="10" class="facies_tract 505" fill="#dcedc8"/><rect x="0" y="-5" width="20" height="8" class="facies_tract 506" fill="#7986cb"/></g></g></g><g class="lithology-column" transform="translate(665, 165)"><g class="inner"><g class="facies_tract"><rect x="0" y="109" width="20" height="7.7999999999999545" class="facies_tract 12"/><rect x="0" y="76" width="20" height="33" class="facies_tract 14" fill="#4a148c"/><rect x="0" y="50" width="20" height="26" class="facies_tract 16" fill="#673ab7"/><rect x="0" y="-5" width="20" height="55" class="facies_tract 19" fill="#7986cb"/></g></g></g></g></svg>