<svg class="_section-link-overlay_bc6dc sequence-link-overlay" width="1200" height="279" xmlns="http://www.w3.org/2000/svg" xmlns:xlink="http://www.w3.org/1999/xlink"><g class="section-links"><g><path d="M160,122.00000000000003l40,0M200,122.00000000000003C430,122.00000000000003,430,195,660,195l40,0" class="_section-link_bc6dc sequence-strat" stroke="#fcc" stroke-width="1" fill="none" style="cursor: pointer;"/></g><g><path d="M160,166.00000000000006l40,0M200,166.00000000000006C430,166.00000000000006,430,215,660,215l40,0" class="_section-link_bc6dc sequence-strat" stroke="#fcc" stroke-width="1.5" fill="none" style="cursor: pointer;"/></g><g><path d="M160,112l40,0M200,112C430,112,430,160,660,160l40,0" class="_section-link_bc6dc sequence-strat" stroke="#ccc" stroke-width="3" fill="none" style="cursor: pointer;"/></g><g><path d="M160,272.00000000000006l40,0M200,272.00000000000006C235,272.00000000000006,235,273,270,273l40,0" class="_section-link_bc6dc sequence-strat" stroke="#fcc" stroke-width="3" fill="none" style="cursor: pointer;"/><path d="M160,272.00000000000006l40,0M200,272.00000000000006C235,272.00000000000006,235,273,270,273l40,0M310,273C485,273,485,274,660,274l40,0" class="_section-link_bc6dc sequence-strat" stroke="#fcc" stroke-width="3" fill="none" style="cursor: pointer;"/></g><g><path d="M160,202.00000000000006l40,0M200,202.00000000000006C430,202.00000000000006,430,241,660,241l40,0" class="_section-link_bc6dc sequence-strat" stroke="#ccc" stroke-width="1.5" fill="none" style="cursor: pointer;"/></g></g><g class="sections"><g class="lithology-column" transform="translate(165, 5)"><defs><rect id="1dda4e22-aeb7-4025-8de2-9d73889b571b-frame" x="0" y="0" width="20" height="267.00000000000006"/><clipPath id="1dda4e22-aeb7-4025-8de2-9d73889b571b-clip"><use xmlns:xlink="http://www.w3.org/1999/xlink" xlink:href="#1dda4e22-aeb7-4025-8de2-9d73889b571b-frame" fill="transparent" class="frame"/></clipPath></defs><g clip-path="url(#1dda4e22-aeb7-4025-8de2-9d73889b571b-clip)" class="inner"><g class="facies_tract"><rect x="0" y="267.00000000000006" width="20" height="3.6999999999999886" class="facies_tract 461" fill="#dcedc8"/><rect x="0" y="262.50000000000006" width="20" height="4.5" class="facies_tract 462" fill="#7986cb"/><rect x="0" y="259.20000000000005" width="20" height="3.3000000000000114" class="facies_tract 463" fill="#bbdefb"/><rect x="0" y="252.35000000000002" width="20" height="6.850000000000023" class="facies_tract 564" fill="#7986cb"/><rect x="0" y="238.50000000000006" width="20" height="13.849999999999966" class="facies_tract 661" fill="#deeffc"/><rect x="0" y="113" width="20" height="125.50000000000006" class="facies_tract 467" fill="#7986cb"/><rect x="0" y="107" width="20" height="6" class="facies_tract 567" fill="#deeffc"/><rect x="0" y="96" width="20" height="11" class="facies_tract 470" fill="#673ab7"/><rect x="0" y="73" width="20" height="23" class="facies_tract 483" fill="#7986cb"/><rect x="0" y="57" width="20" height="16" class="facies_tract 484" fill="#673ab7"/><rect x="0" y="-21" width="20" height="78" class="facies_tract 553" fill="#7986cb"/></g></g><use xmlns:xlink="http://www.w3.org/1999/xlink" xlink:href="#1dda4e22-aeb7-4025-8de2-9d73889b571b-frame" fill="transparent" class="frame"/></g><g class="lithology-column" transform="translate(275, 270)"><defs><rect id="78db08c8-e32f-4f2a-9313-8d7ce12d6604-frame" x="0" y="0" width="20" height="3"/><clipPath id="78db08c8-e32f-4f2a-9313-8d7ce12d6604-clip"><use xmlns:xlink="http://www.w3.org/1999/xlink" xlink:href="#78db08c8-e32f-4f2a-9313-8d7ce12d6604-frame" fill="transparent" class="frame"/></clipPath></defs><g clip-path="url(#78db08c8-e32f-4f2a-9313-8d7ce12d6604-clip)" class="inner"><g class="facies_tract"><rect x="0" y="3" width="20" height="10" class="facies_tract 505" fill="#dcedc8"/><rect x="0" y="-5" width="20" height="8" class="facies_tract 506" fill="#7986cb"/></g></g><use xmlns:xlink="http://www.w3.org/1999/xlink" xlink:href="#78db08c8-e32f-4f2a-9313-8d7ce12d6604-frame" fill="transparent" class="frame"/></g><g class="lithology-column" transform="translate(665, 165)"><defs><rect id="ba09fe44-6f4a-416a-8d13-3f1338c70038-frame" x="0" y="0" width="20" height="109"/><clipPath id="ba09fe44-6f4a-416a-8d13-3f1338c70038-clip"><use xmlns:xlink="http://www.w3.org/1999/xlink" xlink:href="#ba09fe44-6f4a-416a-8d13-3f1338c70038-frame" fill="transparent" class="frame"/></clipPath></defs><g clip-path="url(#ba09fe44-6f4a-416a-8d13-3f1338c70038-clip)" class="inner"><g class="facies_tract"><rect x="0" y="109" width="20" height="7.7999999999999545" class="facies_tract 12"/><rect x="0" y="76" width="20" height="33" class="facies_tract 14" fill="#4a148c"/><rect x="0" y="50" width="20" height="26" class="facies_tract 16" fill="#673ab7"/><rect x="0" y="-5" width="20" height="55" class="facies_tract 19" fill="#7986cb"/></g></g><use xmlns:xlink="http://www.w3.org/1999/xlink" xlink:href="#ba09fe44-6f4a-416a-8d13-3f1338c70038-frame" fill="transparent" class="frame"/></g></g></svg>