<svg class="section-link-overlay sequence-link-overlay" height="0" width="1200" xmlns="http://www.w3.org/2000/svg" xmlns:xlink="http://www.w3.org/1999/xlink" style="opacity: 0.2; margin: 0px;"><g transform="translate(0,0)"><g class="section-links"/></g><g class="sections"><g class="lithology-column" transform="translate(144.99999237060547, 5)"><defs><rect id="f656b276-86e6-47d8-aff3-c1e4b2065c50-frame" x="0" y="0" width="20" height="267.00000000000006"/><clipPath id="f656b276-86e6-47d8-aff3-c1e4b2065c50-clip"/></defs><g class="inner"><g class="facies_tract"><rect x="0" y="267.00000000000006" width="20" height="3.6999999999999886" class="facies_tract 461" fill="#dcedc8"/><rect x="0" y="262.50000000000006" width="20" height="4.5" class="facies_tract 462" fill="#7986cb"/><rect x="0" y="259.20000000000005" width="20" height="3.3000000000000114" class="facies_tract 463" fill="#bbdefb"/><rect x="0" y="252.35000000000008" width="20" height="6.849999999999966" class="facies_tract 564" fill="#7986cb"/><rect x="0" y="238.50000000000006" width="20" height="13.850000000000023" class="facies_tract 661" fill="#deeffc"/><rect x="0" y="113" width="20" height="125.50000000000006" class="facies_tract 467" fill="#7986cb"/><rect x="0" y="106.99999999999999" width="20" height="6.000000000000014" class="facies_tract 567" fill="#deeffc"/><rect x="0" y="95.99999999999999" width="20" height="11" class="facies_tract 470" fill="#673ab7"/><rect x="0" y="72.99999999999999" width="20" height="23" class="facies_tract 483" fill="#7986cb"/><rect x="0" y="57" width="20" height="15.999999999999986" class="facies_tract 484" fill="#673ab7"/><rect x="0" y="-20.999999999999996" width="20" height="78" class="facies_tract 553" fill="#7986cb"/></g></g><use xmlns:xlink="http://www.w3.org/1999/xlink" xlink:href="#f656b276-86e6-47d8-aff3-c1e4b2065c50-frame" fill="transparent" class="frame"/></g><g class="lithology-column" transform="translate(258.33805084228516, 270.00000381469727)"><defs><rect id="0e09d064-7394-4b18-bda1-4b66f400ec38-frame" x="0" y="0" width="20" height="3"/><clipPath id="0e09d064-7394-4b18-bda1-4b66f400ec38-clip"/></defs><g class="inner"><g class="facies_tract"><rect x="0" y="3" width="20" height="10.000000000000002" class="facies_tract 505" fill="#dcedc8"/><rect x="0" y="-5" width="20" height="8" class="facies_tract 506" fill="#7986cb"/></g></g><use xmlns:xlink="http://www.w3.org/1999/xlink" xlink:href="#0e09d064-7394-4b18-bda1-4b66f400ec38-frame" fill="transparent" class="frame"/></g><g class="lithology-column" transform="translate(664.9999465942383, 164.9999885559082)"><defs><rect id="8ff4acb7-b427-42a0-8e03-c4f5bd69ad93-frame" x="0" y="0" width="20" height="108.99999999999977"/><clipPath id="8ff4acb7-b427-42a0-8e03-c4f5bd69ad93-clip"/></defs><g class="inner"><g class="facies_tract"><rect x="0" y="108.99999999999977" width="20" height="7.79999999999994" class="facies_tract 12"/><rect x="0" y="75.99999999999977" width="20" height="33" class="facies_tract 14" fill="#4a148c"/><rect x="0" y="49.99999999999978" width="20" height="25.999999999999993" class="facies_tract 16" fill="#673ab7"/><rect x="0" y="-5.000000000000008" width="20" height="54.99999999999979" class="facies_tract 19" fill="#4a148c"/></g></g><use xmlns:xlink="http://www.w3.org/1999/xlink" xlink:href="#8ff4acb7-b427-42a0-8e03-c4f5bd69ad93-frame" fill="transparent" class="frame"/></g></g></svg>