<svg class="_section-link-overlay_bc6dc ub-w_700px ub-h_318px ub-box-szg_border-box" xmlns="http://www.w3.org/2000/svg" xmlns:xlink="http://www.w3.org/1999/xlink"><g class="section-links"><g><path d="M160,92.08000000000001l40,0M200,92.08000000000001C235,92.08000000000001,235,94.77000000000002,270,94.77000000000002l40,0" class="_section-link_bc6dc sequence-strat" stroke="#fcc" stroke-width="3" fill="none" style="cursor: pointer;"/><path d="M160,92.08000000000001l40,0M200,92.08000000000001C235,92.08000000000001,235,94.77000000000002,270,94.77000000000002l40,0M310,94.77000000000002C485,94.77000000000002,485,94.18,660,94.18l40,0" class="_section-link_bc6dc sequence-strat" stroke="#fcc" stroke-width="3" fill="none" style="cursor: pointer;"/></g><g><path d="M160,70l40,0M200,70C235,70,235,73.5,270,73.5l40,0" class="_section-link_bc6dc sequence-strat" stroke="#ccc" stroke-width="1" fill="none" style="cursor: pointer;"/></g><g><path d="M160,123l40,0M200,123C235,123,235,134,270,134l40,0" class="_section-link_bc6dc sequence-strat" stroke="#fcc" stroke-width="1.5" fill="none" style="cursor: pointer;"/><path d="M160,123l40,0M200,123C235,123,235,134,270,134l40,0M310,134C485,134,485,143,660,143l40,0" class="_section-link_bc6dc sequence-strat" stroke="#fcc" stroke-width="1.5" fill="none" style="cursor: pointer;"/></g><g><path d="M160,24l40,0M200,24C235,24,235,23,270,23l40,0" class="_section-link_bc6dc sequence-strat" stroke="#fcc" stroke-width="1.5" fill="none" style="cursor: pointer;"/><path d="M160,24l40,0M200,24C235,24,235,23,270,23l40,0M310,23C485,23,485,11.300000000000011,660,11.300000000000011l40,0" class="_section-link_bc6dc sequence-strat" stroke="#fcc" stroke-width="1.5" fill="none" style="cursor: pointer;"/></g><g><path d="M160,171l40,0M200,171C235,171,235,181.57,270,181.57l40,0" class="_section-link_bc6dc sequence-strat" stroke="#fcc" stroke-width="1.5" fill="none" style="cursor: pointer;"/><path d="M160,171l40,0M200,171C235,171,235,181.57,270,181.57l40,0M310,181.57C485,181.57,485,293.5,660,293.5l40,0" class="_section-link_bc6dc sequence-strat" stroke="#fcc" stroke-width="1.5" fill="none" style="cursor: pointer;"/></g><g><path d="M160,79l40,0M200,79C235,79,235,78,270,78l40,0" class="_section-link_bc6dc sequence-strat" stroke="#fcc" stroke-width="1.5" fill="none" style="cursor: pointer;"/><path d="M160,79l40,0M200,79C235,79,235,78,270,78l40,0M310,78C485,78,485,89,660,89l40,0" class="_section-link_bc6dc sequence-strat" stroke="#fcc" stroke-width="1.5" fill="none" style="cursor: pointer;"/></g><g><path d="M160,81.00000000000003l40,0M200,81.00000000000003C235,81.00000000000003,235,81,270,81l40,0" class="_section-link_bc6dc sequence-strat" stroke="#ccc" stroke-width="1" fill="none" style="cursor: pointer;"/><path d="M160,81.00000000000003l40,0M200,81.00000000000003C235,81.00000000000003,235,81,270,81l40,0M310,81C485,81,485,90,660,90l40,0" class="_section-link_bc6dc sequence-strat" stroke="#ccc" stroke-width="1" fill="none" style="cursor: pointer;"/></g><g><path d="M160,58.400000000000006l40,0M200,58.400000000000006C235,58.400000000000006,235,50.5,270,50.5l40,0" class="_section-link_bc6dc sequence-strat" stroke="#ccc" stroke-width="3" fill="none" style="cursor: pointer;"/><path d="M160,58.400000000000006l40,0M200,58.400000000000006C235,58.400000000000006,235,50.5,270,50.5l40,0M310,50.5C485,50.5,485,60.99999999999997,660,60.99999999999997l40,0" class="_section-link_bc6dc sequence-strat" stroke="#ccc" stroke-width="3" fill="none" style="cursor: pointer;"/></g><g><path d="M160,161l40,0M200,161C235,161,235,163,270,163l40,0" class="_section-link_bc6dc sequence-strat" stroke="#ccc" stroke-width="1.5" fill="none" style="cursor: pointer;"/><path d="M160,161l40,0M200,161C235,161,235,163,270,163l40,0M310,163C485,163,485,215,660,215l40,0" class="_section-link_bc6dc sequence-strat" stroke="#ccc" stroke-width="1.5" fill="none" style="cursor: pointer;"/></g><g><path d="M160,99.00000000000003l40,0M200,99.00000000000003C235,99.00000000000003,235,99.00000000000001,270,99.00000000000001l40,0" class="_section-link_bc6dc sequence-strat" stroke="#ccc" stroke-width="1.5" fill="none" style="cursor: pointer;"/><path d="M160,99.00000000000003l40,0M200,99.00000000000003C235,99.00000000000003,235,99.00000000000001,270,99.00000000000001l40,0M310,99.00000000000001C485,99.00000000000001,485,103.00000000000003,660,103.00000000000003l40,0" class="_section-link_bc6dc sequence-strat" stroke="#ccc" stroke-width="1.5" fill="none" style="cursor: pointer;"/></g><g><path d="M160,5l40,0M200,5C235,5,235,5,270,5l40,0" class="_section-link_bc6dc sequence-strat" stroke="#ccc" stroke-width="3" fill="none" style="cursor: pointer;"/><path d="M160,5l40,0M200,5C235,5,235,5,270,5l40,0M310,5C485,5,485,5,660,5l40,0" class="_section-link_bc6dc sequence-strat" stroke="#ccc" stroke-width="3" fill="none" style="cursor: pointer;"/></g></g></svg>