<svg id="section-link-overlay" xmlns="http://www.w3.org/2000/svg" xmlns:xlink="http://www.w3.org/1999/xlink" class="ub-w_800px ub-h_328px ub-box-szg_border-box"><g class="section-links"><g><path d="M0,97.08000000000001l70,0M70,97.08000000000001C168.3359375,97.08000000000001,168.3359375,99.77000000000002,266.671875,99.77000000000002l70,0" class="section-link sequence-strat" stroke="#fcc" stroke-width="3" fill="none" style="cursor: pointer;"/><path d="M0,97.08000000000001l70,0M70,97.08000000000001C168.3359375,97.08000000000001,168.3359375,99.77000000000002,266.671875,99.77000000000002l70,0M336.671875,99.77000000000002C533.3359375,99.77000000000002,533.3359375,99.18,730,99.18l70,0" class="section-link sequence-strat" stroke="#fcc" stroke-width="3" fill="none" style="cursor: pointer;"/></g><g><path d="M0,75l70,0M70,75C168.3359375,75,168.3359375,78.5,266.671875,78.5l70,0" class="section-link sequence-strat" stroke="#ccc" stroke-width="1" fill="none" style="cursor: pointer;"/></g><g><path d="M0,128l70,0M70,128C168.3359375,128,168.3359375,139,266.671875,139l70,0" class="section-link sequence-strat" stroke="#fcc" stroke-width="1.5" fill="none" style="cursor: pointer;"/><path d="M0,128l70,0M70,128C168.3359375,128,168.3359375,139,266.671875,139l70,0M336.671875,139C533.3359375,139,533.3359375,148,730,148l70,0" class="section-link sequence-strat" stroke="#fcc" stroke-width="1.5" fill="none" style="cursor: pointer;"/></g><g><path d="M0,29l70,0M70,29C168.3359375,29,168.3359375,28,266.671875,28l70,0" class="section-link sequence-strat" stroke="#fcc" stroke-width="1.5" fill="none" style="cursor: pointer;"/><path d="M0,29l70,0M70,29C168.3359375,29,168.3359375,28,266.671875,28l70,0M336.671875,28C533.3359375,28,533.3359375,16.30000000000001,730,16.30000000000001l70,0" class="section-link sequence-strat" stroke="#fcc" stroke-width="1.5" fill="none" style="cursor: pointer;"/></g><g><path d="M0,176l70,0M70,176C168.3359375,176,168.3359375,186.57,266.671875,186.57l70,0" class="section-link sequence-strat" stroke="#fcc" stroke-width="1.5" fill="none" style="cursor: pointer;"/><path d="M0,176l70,0M70,176C168.3359375,176,168.3359375,186.57,266.671875,186.57l70,0M336.671875,186.57C533.3359375,186.57,533.3359375,298.5,730,298.5l70,0" class="section-link sequence-strat" stroke="#fcc" stroke-width="1.5" fill="none" style="cursor: pointer;"/></g><g><path d="M0,84l70,0M70,84C168.3359375,84,168.3359375,83,266.671875,83l70,0" class="section-link sequence-strat" stroke="#fcc" stroke-width="1.5" fill="none" style="cursor: pointer;"/><path d="M0,84l70,0M70,84C168.3359375,84,168.3359375,83,266.671875,83l70,0M336.671875,83C533.3359375,83,533.3359375,94,730,94l70,0" class="section-link sequence-strat" stroke="#fcc" stroke-width="1.5" fill="none" style="cursor: pointer;"/></g><g><path d="M0,86.00000000000003l70,0M70,86.00000000000003C168.3359375,86.00000000000003,168.3359375,86,266.671875,86l70,0" class="section-link sequence-strat" stroke="#ccc" stroke-width="1" fill="none" style="cursor: pointer;"/><path d="M0,86.00000000000003l70,0M70,86.00000000000003C168.3359375,86.00000000000003,168.3359375,86,266.671875,86l70,0M336.671875,86C533.3359375,86,533.3359375,95,730,95l70,0" class="section-link sequence-strat" stroke="#ccc" stroke-width="1" fill="none" style="cursor: pointer;"/></g><g><path d="M0,63.400000000000006l70,0M70,63.400000000000006C168.3359375,63.400000000000006,168.3359375,55.5,266.671875,55.5l70,0" class="section-link sequence-strat" stroke="#ccc" stroke-width="3" fill="none" style="cursor: pointer;"/><path d="M0,63.400000000000006l70,0M70,63.400000000000006C168.3359375,63.400000000000006,168.3359375,55.5,266.671875,55.5l70,0M336.671875,55.5C533.3359375,55.5,533.3359375,65.99999999999997,730,65.99999999999997l70,0" class="section-link sequence-strat" stroke="#ccc" stroke-width="3" fill="none" style="cursor: pointer;"/></g><g><path d="M0,166l70,0M70,166C168.3359375,166,168.3359375,168,266.671875,168l70,0" class="section-link sequence-strat" stroke="#ccc" stroke-width="1.5" fill="none" style="cursor: pointer;"/><path d="M0,166l70,0M70,166C168.3359375,166,168.3359375,168,266.671875,168l70,0M336.671875,168C533.3359375,168,533.3359375,220,730,220l70,0" class="section-link sequence-strat" stroke="#ccc" stroke-width="1.5" fill="none" style="cursor: pointer;"/></g><g><path d="M0,104.00000000000003l70,0M70,104.00000000000003C168.3359375,104.00000000000003,168.3359375,104.00000000000001,266.671875,104.00000000000001l70,0" class="section-link sequence-strat" stroke="#ccc" stroke-width="1.5" fill="none" style="cursor: pointer;"/><path d="M0,104.00000000000003l70,0M70,104.00000000000003C168.3359375,104.00000000000003,168.3359375,104.00000000000001,266.671875,104.00000000000001l70,0M336.671875,104.00000000000001C533.3359375,104.00000000000001,533.3359375,108.00000000000003,730,108.00000000000003l70,0" class="section-link sequence-strat" stroke="#ccc" stroke-width="1.5" fill="none" style="cursor: pointer;"/></g><g><path d="M0,10l70,0M70,10C168.3359375,10,168.3359375,10,266.671875,10l70,0" class="section-link sequence-strat" stroke="#ccc" stroke-width="3" fill="none" style="cursor: pointer;"/><path d="M0,10l70,0M70,10C168.3359375,10,168.3359375,10,266.671875,10l70,0M336.671875,10C533.3359375,10,533.3359375,10,730,10l70,0" class="section-link sequence-strat" stroke="#ccc" stroke-width="3" fill="none" style="cursor: pointer;"/></g></g></svg>