<svg id="section-link-overlay" xmlns="http://www.w3.org/2000/svg" xmlns:xlink="http://www.w3.org/1999/xlink" class="ub-w_800px ub-h_278px ub-box-szg_border-box"><g class="section-links"><g><path d="M0,114.59999999999997l70,0M70,114.59999999999997C168.3359375,114.59999999999997,168.3359375,101,266.671875,101l70,0" class="section-link sequence-strat" stroke="#ccc" stroke-width="1" fill="none" style="cursor: pointer;"/><path d="M0,114.59999999999997l70,0M70,114.59999999999997C168.3359375,114.59999999999997,168.3359375,101,266.671875,101l70,0M336.671875,101C533.3359375,101,533.3359375,221,730,221l70,0" class="section-link sequence-strat" stroke="#ccc" stroke-width="1" fill="none" style="cursor: pointer;"/></g><g><path d="M0,88.5l70,0M70,88.5C168.3359375,88.5,168.3359375,60,266.671875,60l70,0" class="section-link sequence-strat" stroke="#fcc" stroke-width="3" fill="none" style="cursor: pointer;"/><path d="M0,88.5l70,0M70,88.5C168.3359375,88.5,168.3359375,60,266.671875,60l70,0M336.671875,60C533.3359375,60,533.3359375,96,730,96l70,0" class="section-link sequence-strat" stroke="#fcc" stroke-width="3" fill="none" style="cursor: pointer;"/></g><g><path d="M0,112l70,0M70,112C168.3359375,112,168.3359375,89,266.671875,89l70,0" class="section-link sequence-strat" stroke="#fcc" stroke-width="3" fill="none" style="cursor: pointer;"/><path d="M0,112l70,0M70,112C168.3359375,112,168.3359375,89,266.671875,89l70,0M336.671875,89C533.3359375,89,533.3359375,187,730,187l70,0" class="section-link sequence-strat" stroke="#fcc" stroke-width="3" fill="none" style="cursor: pointer;"/></g><g><path d="M0,10l70,0M70,10C168.3359375,10,168.3359375,10,266.671875,10l70,0" class="section-link sequence-strat" stroke="#fcc" stroke-width="3" fill="none" style="cursor: pointer;"/><path d="M0,10l70,0M70,10C168.3359375,10,168.3359375,10,266.671875,10l70,0M336.671875,10C533.3359375,10,533.3359375,10,730,10l70,0" class="section-link sequence-strat" stroke="#fcc" stroke-width="3" fill="none" style="cursor: pointer;"/></g><g><path d="M0,20l70,0M70,20C168.3359375,20,168.3359375,28,266.671875,28l70,0" class="section-link sequence-strat" stroke="#fcc" stroke-width="1.5" fill="none" style="cursor: pointer;"/><path d="M0,20l70,0M70,20C168.3359375,20,168.3359375,28,266.671875,28l70,0M336.671875,28C533.3359375,28,533.3359375,26,730,26l70,0" class="section-link sequence-strat" stroke="#fcc" stroke-width="1.5" fill="none" style="cursor: pointer;"/></g><g><path d="M0,98.5l70,0M70,98.5C168.3359375,98.5,168.3359375,67,266.671875,67l70,0" class="section-link sequence-strat" stroke="#ccc" stroke-width="3" fill="none" style="cursor: pointer;"/><path d="M0,98.5l70,0M70,98.5C168.3359375,98.5,168.3359375,67,266.671875,67l70,0M336.671875,67C533.3359375,67,533.3359375,170,730,170l70,0" class="section-link sequence-strat" stroke="#ccc" stroke-width="3" fill="none" style="cursor: pointer;"/></g><g><path d="M0,15.300000000000011l70,0M70,15.300000000000011C168.3359375,15.300000000000011,168.3359375,20,266.671875,20l70,0" class="section-link sequence-strat" stroke="#ccc" stroke-width="3" fill="none" style="cursor: pointer;"/><path d="M0,15.300000000000011l70,0M70,15.300000000000011C168.3359375,15.300000000000011,168.3359375,20,266.671875,20l70,0M336.671875,20C533.3359375,20,533.3359375,21,730,21l70,0" class="section-link sequence-strat" stroke="#ccc" stroke-width="3" fill="none" style="cursor: pointer;"/></g><g><path d="M0,71.5l70,0M70,71.5C168.3359375,71.5,168.3359375,42,266.671875,42l70,0" class="section-link sequence-strat" stroke="#ccc" stroke-width="3" fill="none" style="cursor: pointer;"/><path d="M0,71.5l70,0M70,71.5C168.3359375,71.5,168.3359375,42,266.671875,42l70,0M336.671875,42C533.3359375,42,533.3359375,69.5,730,69.5l70,0" class="section-link sequence-strat" stroke="#ccc" stroke-width="3" fill="none" style="cursor: pointer;"/></g><g><path d="M0,161l70,0M70,161C168.3359375,161,168.3359375,156,266.671875,156l70,0" class="section-link sequence-strat" stroke="#ccc" stroke-width="3" fill="none" style="cursor: pointer;"/><path d="M0,161l70,0M70,161C168.3359375,161,168.3359375,156,266.671875,156l70,0M336.671875,156C533.3359375,156,533.3359375,268,730,268l70,0" class="section-link sequence-strat" stroke="#ccc" stroke-width="3" fill="none" style="cursor: pointer;"/></g></g></svg>