<svg id="section-link-overlay" xmlns="http://www.w3.org/2000/svg" xmlns:xlink="http://www.w3.org/1999/xlink" class="ub-w_700px ub-h_268px ub-box-szg_border-box"><g class="section-links"><g><path d="M160,109.59999999999997l40,0M200,109.59999999999997C235,109.59999999999997,235,96,270,96l40,0" class="section-link sequence-strat" stroke="#ccc" stroke-width="1" fill="none" style="cursor: pointer;"/><path d="M160,109.59999999999997l40,0M200,109.59999999999997C235,109.59999999999997,235,96,270,96l40,0M310,96C485,96,485,216,660,216l40,0" class="section-link sequence-strat" stroke="#ccc" stroke-width="1" fill="none" style="cursor: pointer;"/></g><g><path d="M160,83.5l40,0M200,83.5C235,83.5,235,55,270,55l40,0" class="section-link sequence-strat" stroke="#fcc" stroke-width="3" fill="none" style="cursor: pointer;"/><path d="M160,83.5l40,0M200,83.5C235,83.5,235,55,270,55l40,0M310,55C485,55,485,91,660,91l40,0" class="section-link sequence-strat" stroke="#fcc" stroke-width="3" fill="none" style="cursor: pointer;"/></g><g><path d="M160,107l40,0M200,107C235,107,235,84,270,84l40,0" class="section-link sequence-strat" stroke="#fcc" stroke-width="3" fill="none" style="cursor: pointer;"/><path d="M160,107l40,0M200,107C235,107,235,84,270,84l40,0M310,84C485,84,485,182,660,182l40,0" class="section-link sequence-strat" stroke="#fcc" stroke-width="3" fill="none" style="cursor: pointer;"/></g><g><path d="M160,5l40,0M200,5C235,5,235,5,270,5l40,0" class="section-link sequence-strat" stroke="#fcc" stroke-width="3" fill="none" style="cursor: pointer;"/><path d="M160,5l40,0M200,5C235,5,235,5,270,5l40,0M310,5C485,5,485,5,660,5l40,0" class="section-link sequence-strat" stroke="#fcc" stroke-width="3" fill="none" style="cursor: pointer;"/></g><g><path d="M160,15l40,0M200,15C235,15,235,23,270,23l40,0" class="section-link sequence-strat" stroke="#fcc" stroke-width="1.5" fill="none" style="cursor: pointer;"/><path d="M160,15l40,0M200,15C235,15,235,23,270,23l40,0M310,23C485,23,485,21,660,21l40,0" class="section-link sequence-strat" stroke="#fcc" stroke-width="1.5" fill="none" style="cursor: pointer;"/></g><g><path d="M160,93.5l40,0M200,93.5C235,93.5,235,62,270,62l40,0" class="section-link sequence-strat" stroke="#ccc" stroke-width="3" fill="none" style="cursor: pointer;"/><path d="M160,93.5l40,0M200,93.5C235,93.5,235,62,270,62l40,0M310,62C485,62,485,165,660,165l40,0" class="section-link sequence-strat" stroke="#ccc" stroke-width="3" fill="none" style="cursor: pointer;"/></g><g><path d="M160,10.300000000000011l40,0M200,10.300000000000011C235,10.300000000000011,235,15,270,15l40,0" class="section-link sequence-strat" stroke="#ccc" stroke-width="3" fill="none" style="cursor: pointer;"/><path d="M160,10.300000000000011l40,0M200,10.300000000000011C235,10.300000000000011,235,15,270,15l40,0M310,15C485,15,485,16,660,16l40,0" class="section-link sequence-strat" stroke="#ccc" stroke-width="3" fill="none" style="cursor: pointer;"/></g><g><path d="M160,66.5l40,0M200,66.5C235,66.5,235,37,270,37l40,0" class="section-link sequence-strat" stroke="#ccc" stroke-width="3" fill="none" style="cursor: pointer;"/><path d="M160,66.5l40,0M200,66.5C235,66.5,235,37,270,37l40,0M310,37C485,37,485,64.5,660,64.5l40,0" class="section-link sequence-strat" stroke="#ccc" stroke-width="3" fill="none" style="cursor: pointer;"/></g><g><path d="M160,156l40,0M200,156C235,156,235,151,270,151l40,0" class="section-link sequence-strat" stroke="#ccc" stroke-width="3" fill="none" style="cursor: pointer;"/><path d="M160,156l40,0M200,156C235,156,235,151,270,151l40,0M310,151C485,151,485,263,660,263l40,0" class="section-link sequence-strat" stroke="#ccc" stroke-width="3" fill="none" style="cursor: pointer;"/></g></g></svg>