<svg class="_section-link-overlay_bc6dc sequence-link-overlay" width="1200" height="268" xmlns="http://www.w3.org/2000/svg" xmlns:xlink="http://www.w3.org/1999/xlink"><g class="section-links"><g><path d="M160,115l40,0M200,115C235,115,235,126,270,126l40,0" class="_section-link_bc6dc sequence-strat" stroke="#ccc" stroke-width="1" fill="none" style="cursor: pointer;"/><path d="M160,115l40,0M200,115C235,115,235,126,270,126l40,0M310,126C485,126,485,216,660,216l40,0" class="_section-link_bc6dc sequence-strat" stroke="#ccc" stroke-width="1" fill="none" style="cursor: pointer;"/></g><g><path d="M160,83.5l40,0M200,83.5C235,83.5,235,85,270,85l40,0" class="_section-link_bc6dc sequence-strat" stroke="#fcc" stroke-width="3" fill="none" style="cursor: pointer;"/><path d="M160,83.5l40,0M200,83.5C235,83.5,235,85,270,85l40,0M310,85C485,85,485,91,660,91l40,0" class="_section-link_bc6dc sequence-strat" stroke="#fcc" stroke-width="3" fill="none" style="cursor: pointer;"/></g><g><path d="M160,107l40,0M200,107C235,107,235,114,270,114l40,0" class="_section-link_bc6dc sequence-strat" stroke="#fcc" stroke-width="3" fill="none" style="cursor: pointer;"/><path d="M160,107l40,0M200,107C235,107,235,114,270,114l40,0M310,114C485,114,485,182,660,182l40,0" class="_section-link_bc6dc sequence-strat" stroke="#fcc" stroke-width="3" fill="none" style="cursor: pointer;"/></g><g><path d="M160,5l40,0M200,5C235,5,235,5,270,5l40,0" class="_section-link_bc6dc sequence-strat" stroke="#fcc" stroke-width="3" fill="none" style="cursor: pointer;"/><path d="M160,5l40,0M200,5C235,5,235,5,270,5l40,0M310,5C485,5,485,5,660,5l40,0" class="_section-link_bc6dc sequence-strat" stroke="#fcc" stroke-width="3" fill="none" style="cursor: pointer;"/></g><g><path d="M160,15l40,0M200,15C235,15,235,23,270,23l40,0" class="_section-link_bc6dc sequence-strat" stroke="#fcc" stroke-width="1.5" fill="none" style="cursor: pointer;"/><path d="M160,15l40,0M200,15C235,15,235,23,270,23l40,0M310,23C485,23,485,21,660,21l40,0" class="_section-link_bc6dc sequence-strat" stroke="#fcc" stroke-width="1.5" fill="none" style="cursor: pointer;"/></g><g><path d="M160,93.5l40,0M200,93.5C235,93.5,235,91.99999999999999,270,91.99999999999999l40,0" class="_section-link_bc6dc sequence-strat" stroke="#ccc" stroke-width="3" fill="none" style="cursor: pointer;"/><path d="M160,93.5l40,0M200,93.5C235,93.5,235,91.99999999999999,270,91.99999999999999l40,0M310,91.99999999999999C485,91.99999999999999,485,165,660,165l40,0" class="_section-link_bc6dc sequence-strat" stroke="#ccc" stroke-width="3" fill="none" style="cursor: pointer;"/></g><g><path d="M160,10.300000000000011l40,0M200,10.300000000000011C235,10.300000000000011,235,15,270,15l40,0" class="_section-link_bc6dc sequence-strat" stroke="#ccc" stroke-width="3" fill="none" style="cursor: pointer;"/><path d="M160,10.300000000000011l40,0M200,10.300000000000011C235,10.300000000000011,235,15,270,15l40,0M310,15C485,15,485,16,660,16l40,0" class="_section-link_bc6dc sequence-strat" stroke="#ccc" stroke-width="3" fill="none" style="cursor: pointer;"/></g><g><path d="M160,66.5l40,0M200,66.5C235,66.5,235,67,270,67l40,0" class="_section-link_bc6dc sequence-strat" stroke="#ccc" stroke-width="3" fill="none" style="cursor: pointer;"/><path d="M160,66.5l40,0M200,66.5C235,66.5,235,67,270,67l40,0M310,67C485,67,485,64.5,660,64.5l40,0" class="_section-link_bc6dc sequence-strat" stroke="#ccc" stroke-width="3" fill="none" style="cursor: pointer;"/></g><g><path d="M160,156l40,0M200,156C235,156,235,181,270,181l40,0" class="_section-link_bc6dc sequence-strat" stroke="#ccc" stroke-width="3" fill="none" style="cursor: pointer;"/><path d="M160,156l40,0M200,156C235,156,235,181,270,181l40,0M310,181C485,181,485,263,660,263l40,0" class="_section-link_bc6dc sequence-strat" stroke="#ccc" stroke-width="3" fill="none" style="cursor: pointer;"/></g></g></svg>