<svg class="_section-link-overlay_bc6dc sequence-link-overlay" width="1200" height="279" xmlns="http://www.w3.org/2000/svg" xmlns:xlink="http://www.w3.org/1999/xlink"><g class="section-links"><g><path d="M160,122.00000000000003l40,0M200,122.00000000000003C430,122.00000000000003,430,195,660,195l40,0" class="_section-link_bc6dc sequence-strat" stroke="#fcc" stroke-width="1" fill="none" style="cursor: pointer;"/></g><g><path d="M160,166.00000000000006l40,0M200,166.00000000000006C430,166.00000000000006,430,215,660,215l40,0" class="_section-link_bc6dc sequence-strat" stroke="#fcc" stroke-width="1.5" fill="none" style="cursor: pointer;"/></g><g><path d="M160,112l40,0M200,112C430,112,430,160,660,160l40,0" class="_section-link_bc6dc sequence-strat" stroke="#ccc" stroke-width="3" fill="none" style="cursor: pointer;"/></g><g><path d="M160,272.00000000000006l40,0M200,272.00000000000006C235,272.00000000000006,235,273,270,273l40,0" class="_section-link_bc6dc sequence-strat" stroke="#fcc" stroke-width="3" fill="none" style="cursor: pointer;"/><path d="M160,272.00000000000006l40,0M200,272.00000000000006C235,272.00000000000006,235,273,270,273l40,0M310,273C485,273,485,274,660,274l40,0" class="_section-link_bc6dc sequence-strat" stroke="#fcc" stroke-width="3" fill="none" style="cursor: pointer;"/></g><g><path d="M160,202.00000000000006l40,0M200,202.00000000000006C430,202.00000000000006,430,241,660,241l40,0" class="_section-link_bc6dc sequence-strat" stroke="#ccc" stroke-width="1.5" fill="none" style="cursor: pointer;"/></g></g></svg>