<svg id="section-link-overlay" xmlns="http://www.w3.org/2000/svg" xmlns:xlink="http://www.w3.org/1999/xlink" class="ub-w_800px ub-h_289px ub-box-szg_border-box"><g class="section-links"><g><path d="M0,127.00000000000003l70,0M70,127.00000000000003C400,127.00000000000003,400,200,730,200l70,0" class="section-link sequence-strat" stroke="#fcc" stroke-width="1" fill="none" style="cursor: pointer;"/></g><g><path d="M0,171.00000000000006l70,0M70,171.00000000000006C400,171.00000000000006,400,220,730,220l70,0" class="section-link sequence-strat" stroke="#fcc" stroke-width="1.5" fill="none" style="cursor: pointer;"/></g><g><path d="M0,117l70,0M70,117C400,117,400,165,730,165l70,0" class="section-link sequence-strat" stroke="#ccc" stroke-width="3" fill="none" style="cursor: pointer;"/></g><g><path d="M0,277.00000000000006l70,0M70,277.00000000000006C168.3359375,277.00000000000006,168.3359375,278,266.671875,278l70,0" class="section-link sequence-strat" stroke="#fcc" stroke-width="3" fill="none" style="cursor: pointer;"/><path d="M0,277.00000000000006l70,0M70,277.00000000000006C168.3359375,277.00000000000006,168.3359375,278,266.671875,278l70,0M336.671875,278C533.3359375,278,533.3359375,279,730,279l70,0" class="section-link sequence-strat" stroke="#fcc" stroke-width="3" fill="none" style="cursor: pointer;"/></g><g><path d="M0,207.00000000000006l70,0M70,207.00000000000006C400,207.00000000000006,400,246,730,246l70,0" class="section-link sequence-strat" stroke="#ccc" stroke-width="1.5" fill="none" style="cursor: pointer;"/></g></g></svg>